<svg xmlns="http://www.w3.org/2000/svg" viewBox="-8 7 181 58" fill="none">
<path d="M27.28 18.95c-1.74 2.06-4.52 3.68-7.3 3.45-.35-2.78 1.01-5.74 2.61-7.57 1.74-2.11 4.78-3.62 7.25-3.74.29 2.88-0.84 5.73-2.56 7.86zm2.55 4.0c-4.03-.23-7.48 2.29-9.4 2.29-1.94 0-4.87-2.17-8.06-2.11-4.15.06-8 2.4-10.12 6.14-4.35 7.48-1.13 18.55 3.07 24.63 2.06 3.01 4.52 6.32 7.77 6.2 3.07-.12 4.29-2 8-2 3.74 0 4.81 2 8.06 1.94 3.36-.06 5.48-3.01 7.54-6.03 2.35-3.42 3.3-6.75 3.36-6.93-.06-.06-6.49-2.52-6.55-9.95-.06-6.2 5.07-9.16 5.3-9.33-2.89-4.29-7.39-4.75-8.97-4.85zm24.63-8.41v45.18h7.01v-15.45h9.71c8.87 0 15.1-6.09 15.1-14.9 0-8.81-6.12-14.83-14.87-14.83H54.46zm7.01 5.91h8.09c6.09 0 9.57 3.25 9.57 8.96 0 5.71-3.48 8.98-9.6 8.98h-8.06V20.45zm30.83 39.62c4.41 0 8.49-2.23 10.35-5.77h.14v5.42h6.49V35.56c0-6.52-5.22-10.72-13.25-10.72-7.45 0-12.96 4.26-13.16 10.12h6.32c.52-2.78 3.1-4.61 6.64-4.61 4.29 0 6.7 2 6.7 5.68v2.49l-8.75.52c-8.15.49-12.55 3.83-12.55 9.63 0 5.86 4.55 9.81 11.07 9.81zm1.88-5.36c-3.74 0-6.12-1.8-6.12-4.55 0-2.84 2.29-4.49 6.67-4.75l7.8-.49v2.55c0 4.26-3.6 7.24-8.35 7.24zm25.3 17.66c6.84 0 10.06-2.61 12.87-10.53l12.55-35.27h-7.13l-8.26 26.69h-.14l-8.26-26.69h-7.33l11.89 32.89-.64 2c-1.07 3.39-2.81 4.7-5.91 4.7-.55 0-1.62-.06-2.06-.12v5.42c.41.09 1.15.12 1.42.12z" fill="#c0c0c0"/>
</svg>
