<svg xmlns="http://www.w3.org/2000/svg" viewBox="-1 -1 135 86">
  <g transform="translate(250.61873,742.76481)">
    <path d="m -132.52375,-728.43203 h -6.19595 -28.63723 -6.19647 l -4.17278,4.69823 -13.5409,15.24473 v 4.8e-4 l -4.17276,4.69771 h -6.197 -28.0934 -6.19702 l 4.10827,-4.75748 1.94452,-2.25185 4.10826,-4.75748 h -6.197 -7.98525 -4.47327 c -3.40814,0 -6.197,2.85964 -6.197,6.35433 v 4.9e-4 12.2713 1.13587 c 0,3.49523 2.78886,6.35488 6.197,6.35488 h 1.74108 65.01898 4.66152 c 3.40818,0 8.06392,-2.12387 10.34616,-4.71973 l 10.80347,-12.28809 z" style="fill:#005697;fill-rule:evenodd;stroke:none;stroke-width:0.524415"/>
    <path d="m -124.28005,-742.76481 c 3.40815,0 6.19699,2.85963 6.19699,6.35485 v 13.40717 c 0,3.49471 -2.78884,6.35487 -6.19699,6.35487 h -3.36204 -9.03566 -6.19701 l 4.14709,-4.72184 h 4.9e-4 l 2.05622,-2.34099 4.14709,-4.72128 H -173.553 l -21.88645,24.65902 h -40.73858 l 29.21564,-33.03445 1.10546,-1.25021 c 2.29011,-2.58904 6.95218,-4.70714 10.36032,-4.70714 h 1.439 z" style="fill:#fbd500;fill-rule:evenodd;stroke:none;stroke-width:0.524415"/>
    <path d="m -236.6528,-666.64868 c 0,-0.87524 -0.20661,-1.63303 -0.61878,-2.27283 -0.41271,-0.63977 -0.95549,-1.12802 -1.62885,-1.46469 0.67336,-0.33666 1.19516,-0.83381 1.56593,-1.49037 0.37021,-0.65656 0.55533,-1.39703 0.55533,-2.22194 v -0.45468 c 0,-1.01054 -0.19345,-1.8517 -0.58052,-2.52558 -0.38753,-0.67333 -0.93082,-1.21244 -1.62936,-1.61624 -0.69851,-0.40434 -1.53652,-0.69432 -2.51245,-0.87156 -0.97699,-0.17682 -2.06254,-0.26486 -3.25819,-0.26486 -0.40381,0 -0.82492,0.008 -1.26228,0.0251 -0.4384,0.0159 -0.86319,0.0376 -1.27539,0.0629 -0.41272,0.0251 -0.79186,0.0552 -1.13639,0.0886 -0.34559,0.0341 -0.62774,0.0677 -0.84642,0.10073 -0.4882,0.0851 -0.83328,0.23598 -1.0352,0.45465 -0.20187,0.21921 -0.3031,0.61515 -0.3031,1.18729 v 15.35485 c 0,0.57267 0.10486,0.96806 0.3157,1.18674 0.21029,0.21919 0.56795,0.37023 1.07349,0.45466 0.25222,0.0503 0.55534,0.0925 0.90879,0.12645 0.35348,0.0335 0.73627,0.0628 1.14899,0.088 0.41273,0.0251 0.8375,0.0462 1.2754,0.0635 0.43789,0.0159 0.86684,0.0251 1.28796,0.0251 1.09444,0 2.12544,-0.0844 3.09406,-0.25278 0.96752,-0.16787 1.80921,-0.46724 2.52503,-0.89675 0.71583,-0.42896 1.28378,-1.01 1.70489,-1.74209 0.42057,-0.7326 0.63136,-1.65453 0.63136,-2.76575 z" style="fill:#005697;fill-rule:evenodd;stroke:none;stroke-width:0.524415"/>
  </g>
</svg>
