<svg xmlns="http://www.w3.org/2000/svg" width="295" height="295" viewBox="0 0 295 295" fill="none">
  <path d="M56.5076 22.8711V159.27C56.5076 165.798 61.8751 171.141 68.4355 171.141H150.321C212.227 171.141 239.065 136.655 239.065 90.8925C239.065 45.3667 212.227 11 150.321 11H68.4355C61.8751 11 56.5076 16.342 56.5076 22.8711Z" fill="white"/>
  <path d="M111.317 44.4757V145.261H155.391C195.409 145.261 212.764 122.765 212.764 90.9507C212.764 60.5016 195.409 36.8782 155.391 36.8782H118.95C114.716 36.8782 111.317 40.3208 111.317 44.4757Z" fill="#CC0066"/>
  <path fill-rule="evenodd" clip-rule="evenodd" d="M79.11 160.279H150.32C200.358 160.279 227.971 135.646 227.971 90.9514C227.971 65.1914 217.891 21.9214 150.32 21.9214H79.11C72.7882 21.9214 67.6592 27.0259 67.6592 33.3176V148.883C67.6592 155.175 72.7882 160.279 79.11 160.279ZM71.4733 33.3177C71.4733 29.1034 74.8728 25.7202 79.1073 25.7202H150.317C177.87 25.7202 224.151 34.208 224.151 90.9514C224.151 133.213 197.91 156.48 150.317 156.48H79.1073C74.8728 156.48 71.4733 153.096 71.4733 148.883V33.3177Z" fill="#232323"/>
  <path fill-rule="evenodd" clip-rule="evenodd" d="M133.005 76.3046C131.663 75.825 130.263 75.5851 128.746 75.5851V75.5251H118.654V99.8693H128.863C130.672 99.8693 132.247 99.5096 133.589 98.91C134.93 98.2506 136.039 97.411 136.914 96.3314C137.789 95.2526 138.43 93.933 138.897 92.434C139.305 90.935 139.539 89.3163 139.539 87.5175C139.539 85.4787 139.247 83.7397 138.722 82.2407C138.139 80.8014 137.381 79.5424 136.447 78.5233C135.455 77.5638 134.347 76.7843 133.005 76.3046ZM130.61 95.0732C129.852 95.3132 129.151 95.4328 128.394 95.4328V95.4934H123.784V80.1428H127.518C128.802 80.1428 129.852 80.323 130.727 80.6826C131.602 81.0422 132.302 81.6418 132.827 82.302C133.352 82.9614 133.76 83.8609 133.994 84.8201C134.227 85.7793 134.344 86.9187 134.344 88.1179C134.344 89.4973 134.168 90.5761 133.819 91.5353C133.469 92.4953 133.002 93.2146 132.477 93.8142C131.952 94.4138 131.31 94.8332 130.61 95.0732Z" fill="white"/>
  <path d="M160.599 75.5851V80.0822H148.114V85.2985H159.608V89.4359H148.114V95.3722H160.891V99.8693H142.922V75.5251H160.599V75.5851Z" fill="white"/>
  <path fill-rule="evenodd" clip-rule="evenodd" d="M187.317 99.9283L178.45 75.5845H173.024L164.098 99.9283H169.348L171.216 94.5319H180.083L181.891 99.9283H187.317ZM175.766 81.5813L178.742 90.5148H172.616L175.708 81.5813H175.766Z" fill="white"/>
  <path d="M195.777 75.5845V95.4313H207.328V99.9283H190.585V75.5845H195.777Z" fill="white"/>
  <path d="M90.8379 100.287C97.1579 100.287 102.281 95.1623 102.281 88.8402C102.281 82.5181 97.1579 77.3931 90.8379 77.3931C84.5179 77.3931 79.3945 82.5181 79.3945 88.8402C79.3945 95.1623 84.5179 100.287 90.8379 100.287Z" fill="#232323"/>
  <path d="M97.6474 146.076C88.7909 146.076 81.6831 138.425 81.6831 129.026V115.712C81.6831 111.012 85.237 107.156 89.6934 107.156C94.0935 107.156 97.7039 110.952 97.7039 115.712V146.076H97.6474Z" fill="#232323"/>
  <path d="M38 197H258" stroke="white" stroke-width="4" stroke-linecap="round"/>
  <path d="M205.535 248.62C205.535 235.245 215.166 223.049 231.798 223.049C248.5 223.049 258.131 235.245 258.131 248.62C258.131 261.994 248.5 274.19 231.798 274.19C215.169 274.193 205.535 261.994 205.535 248.62ZM243.512 248.62C243.512 242.174 239.215 236.216 231.801 236.216C224.454 236.216 220.09 242.177 220.09 248.62C220.09 255.066 224.457 261.024 231.801 261.024C239.215 261.024 243.512 255.066 243.512 248.62Z" fill="white"/>
  <path d="M195.309 258.115C200.853 254.996 204.178 249.038 204.178 242.454C204.178 232.683 197.038 224.366 185.951 224.366H162.668V272.876H177.082V260.472H179.785L188.031 272.876H205.009L195.309 258.115ZM183.043 249.313H177.082V235.592H183.112C186.994 235.592 189.489 238.711 189.489 242.454C189.489 246.194 186.925 249.313 183.043 249.313Z" fill="white"/>
  <path d="M96.8677 224.314L88.221 253.226L79.7822 224.314H68.3024L59.7943 253.226L51.2169 224.314H36L53.4291 272.732H65.9487L74.0409 246.379L82.0667 272.732H94.6555L112.085 224.314H96.8677Z" fill="white"/>
  <path d="M133.895 260.905C133.884 260.905 133.872 260.905 133.861 260.905C128.469 260.905 124.688 257.688 123.065 253.428H159.515H159.697C159.991 251.825 160.144 250.185 160.144 248.524C160.144 235.185 150.542 223.02 133.895 223.003V236.146C139.319 236.161 143.062 239.372 144.668 243.623H108.088C107.796 245.226 107.646 246.867 107.646 248.527C107.646 261.876 117.26 274.051 133.861 274.051C133.872 274.051 133.884 274.051 133.895 274.051V260.905Z" fill="white"/>
  <path d="M133.861 274.046C134.424 274.046 134.978 274.028 135.527 274.002C138.9 273.832 141.961 273.153 144.691 272.059C147.42 270.964 149.817 269.459 151.856 267.64C153.895 265.821 155.578 263.689 156.884 261.341C158.071 259.207 158.937 256.897 159.48 254.485H144.217C143.905 255.129 143.541 255.744 143.125 256.319C142.556 257.105 141.889 257.818 141.133 258.433C140.376 259.048 139.527 259.568 138.591 259.969C137.655 260.371 136.636 260.654 135.533 260.795C134.996 260.865 134.441 260.905 133.866 260.905C130.433 260.905 127.651 259.597 125.667 257.549L115.744 267.472C120.154 271.504 126.277 274.046 133.861 274.046Z" fill="url(#paint0_linear_2815_10727)"/>
  <path d="M133.86 223C119.781 223 110.727 231.756 108.301 242.563H123.521C125.341 238.841 128.925 236.143 133.86 236.143C137.794 236.143 140.846 237.824 142.842 240.366L152.855 230.353C148.384 225.871 141.952 223 133.86 223Z" fill="url(#paint1_linear_2815_10727)"/>
  <defs>
    <linearGradient id="paint0_linear_2815_10727" x1="151.798" y1="245.506" x2="129.339" y2="273.329" gradientUnits="userSpaceOnUse">
      <stop offset="0.0243" stop-color="white" stop-opacity="0"/>
      <stop offset="0.676" stop-color="white"/>
    </linearGradient>
    <linearGradient id="paint1_linear_2815_10727" x1="112.501" y1="251.74" x2="135.579" y2="228.662" gradientUnits="userSpaceOnUse">
      <stop offset="0.0243" stop-color="white" stop-opacity="0"/>
      <stop offset="0.676" stop-color="white"/>
    </linearGradient>
  </defs>
</svg>
