<svg xmlns="http://www.w3.org/2000/svg" viewBox="325 300 1270 360"><g fill="#0f298f"><path d="m330.09 542.43h86.97c0 3.61-.23 7.06.04 10.48 1.6 20.14 10.18 29.17 30.34 29.7 19.62.51 39.3.02 58.92-.85 14.77-.66 24-10.36 24.65-25.03.3-6.73.21-13.71-1.23-20.24-1.99-9.07-8.36-14.85-17.78-15.84-18.36-1.94-36.78-3.36-55.17-5.03-23.66-2.14-47.58-2.46-70.66-8.99-13.61-3.85-26.22-9.66-35.92-20.49-9.12-10.17-13.37-22.52-15.54-35.64-4.42-26.68-4.34-53.33 1.22-79.89 5.49-26.2 22.74-41.26 47-49.62 19.81-6.83 40.51-7.59 61.12-8.06 23.13-.52 46.29-.51 69.42.08 16.45.42 32.91 1.93 48.65 7.46 26.58 9.33 41.34 28.73 46.51 55.74 1.68 8.77 1.85 17.84 2.41 26.79.33 5.27.06 10.58.06 16.28h-86.26c-.6-6.08-1.1-12.01-1.8-17.92-.99-8.42-5.41-14.33-13.64-16.63-5.89-1.64-11.97-3.06-18.04-3.51-16.8-1.23-33.59-1.11-50.21 2.37-10.96 2.3-17.37 8.89-18.63 19.9-.71 6.23-1.11 12.7-.26 18.87 1.78 12.95 8.76 19.19 22.58 20.43 18.23 1.65 36.53 2.64 54.78 4.11 21.87 1.76 43.94 2.1 65.3 7.96 16.86 4.63 32.18 11.85 42.75 26.64 7.06 9.88 10.38 21.03 11.6 33.02 2.51 24.65 2.19 49.22-1.75 73.69-4.93 30.55-23.93 48.81-52.58 57.08-13.46 3.89-27.65 6.07-41.65 7.08-33.42 2.41-66.95 1.87-100.32-1.04-14.17-1.23-28.56-3.3-42.11-7.41-25.53-7.75-41.53-25.52-45.84-52.12-2.65-16.15-3.33-32.62-4.93-49.37z" stroke="#0f298f" stroke-miterlimit="10"/><path d="m1587.58 653.35h-93.23c-3.03-10.07-6.14-20.34-9.21-30.61-2.42-8.12-4.83-16.25-7.15-24.4-.76-2.66-1.91-4.05-5.09-4.04-38.49.15-76.97.19-115.46.07-3.57-.01-4.8 1.18-5.69 4.46-4.92 18.12-10.09 36.17-15.24 54.5h-95.42c2.22-7.46 4.4-14.85 6.62-22.23 28.18-93.9 56.35-187.8 84.54-281.7 3.58-11.94 7.34-23.83 10.8-35.8.81-2.8 2.09-3.56 4.89-3.55 43.65.1 87.31.14 130.96-.02 3.89-.01 5.06 1.66 6.03 4.84 16.54 54.54 33.17 109.06 49.75 163.59 17.21 56.6 34.39 113.21 51.57 169.83.46 1.56.83 3.16 1.33 5.06zm-129.24-126.08c-14.33-49.23-28.51-97.99-42.7-146.75-.43.03-.85.05-1.28.08-13.75 48.77-27.51 97.54-41.36 146.67zm-469.26-217.15h5.46c55.5 0 111-.2 166.49.11 18.61.1 37.32.47 55.33 6.41 33.62 11.07 53.36 34.6 59.08 68.95 6.19 37.2 5.6 74.72-.87 111.88-6.04 34.67-30.51 58.54-65.29 63.97-12.76 1.99-25.86 2.15-38.82 2.4-28.48.55-56.97.61-85.46.89-1.13.01-2.27.16-3.92.29v88.25h-92.01c.01-114.28.01-228.37.01-343.15zm92.43 75.22c-.32 1.25-.54 1.72-.54 2.19-.03 31.49-.01 62.98-.11 94.47-.01 3.04 1.42 3.63 3.98 3.57 25.29-.61 50.61-.78 75.88-1.9 13.63-.61 19.98-7.2 22.24-20.64 2.61-15.54 2.67-31.23.78-46.79-2.71-22.31-12.38-30.56-35.09-30.88-12.16-.17-24.33-.02-36.49-.02z"/></g><path d="m972.96 356.54c-44.24-38.17-95.49-52.36-152.42-41.14-58.07 11.44-100.23 45.01-125.46 98.98-1.36 2.91-2.93 3.86-6.02 3.8-10-.17-20 .04-29.99-.13-3.22-.06-5.01.75-6.43 3.96-4.89 11.11-10.24 22.01-15.37 33.02-2.2 4.73-4.28 9.52-6.84 15.25h50.26v27.52c-6.8 0-13.42.14-20.04-.06-2.93-.09-4.44.9-5.65 3.6-4.54 10.18-9.36 20.23-14.06 30.34-2.71 5.82-5.4 11.65-8.35 18.03h6.25c17.16 0 34.33.05 51.49-.03 2.74-.01 4.4.56 5.8 3.34 31.29 62.21 82 95.39 151.27 99.68 36.76 2.27 70.87-7.22 102.23-26.65 3.05-1.89 4.35-3.8 4.29-7.46-.23-13.66-.1-27.33-.1-40.99v-18.84c-26.81 29.64-59.03 44.96-98.25 43.16-39.17-1.8-69.81-19.62-92.88-50.66.15-.51.31-1.02.46-1.53h5.74c37.83 0 75.66-.07 113.49.12 3.99.02 5.82-1.25 7.32-4.78 3.24-7.65 6.98-15.1 10.48-22.65 3.69-7.94 7.34-15.9 11.36-24.6h-6.17c-52.33-.01-104.65-.01-156.98-.02-1.33 0-2.81.35-3.96-.11-1.27-.51-3.17-1.74-3.2-2.7-.26-8.11-.15-16.24-.15-25h6.08c57.66.01 115.32-.01 172.98.12 3.37.01 5.11-1.11 6.45-4.04 6.76-14.83 13.67-29.6 20.49-44.41.44-.96.63-2.04 1.18-3.84h-189.5c36.64-63.82 137.52-84.35 197.25-11.9 6.46-13.85 12.46-27.18 18.92-40.27 1.97-4.07 1.36-6.24-1.97-9.11z" fill="#ffbe01" stroke="#0f298f" stroke-miterlimit="10" stroke-width="3"/></svg>
