<?xml version="1.0" encoding="UTF-8"?>
<svg shape-rendering="crispEdges" id="Layer_2" data-name="Layer 2" xmlns="http://www.w3.org/2000/svg" viewBox="0 0 2428.88 456.99">
  <defs>
    <style>
      .cls-1 {
        fill: #b43824;
      }
    </style>
  </defs>
  <g id="Layer_1-2" data-name="Layer 1">
    <g>
      <rect class="cls-1" x="2065.94" y="430.11" width="27.92" height="26.88"/>
      <rect class="cls-1" x="418.77" y="430.11" width="27.92" height="26.88"/>
      <rect class="cls-1" x="390.85" y="430.11" width="27.92" height="26.88"/>
      <rect class="cls-1" x="362.94" y="430.11" width="27.92" height="26.88"/>
      <rect class="cls-1" x="335.02" y="430.11" width="27.92" height="26.88"/>
      <rect class="cls-1" x="2400.96" y="107.53" width="27.92" height="26.88"/>
      <rect class="cls-1" x="2373.04" y="80.65" width="27.92" height="26.88"/>
      <rect class="cls-1" x="2289.29" y="430.11" width="27.92" height="26.88"/>
      <rect class="cls-1" x="2261.37" y="430.11" width="27.92" height="26.88"/>
      <rect class="cls-1" x="2233.45" y="430.11" width="27.92" height="26.88"/>
      <rect class="cls-1" x="2205.53" y="430.11" width="27.92" height="26.88"/>
      <rect class="cls-1" x="2177.61" y="430.11" width="27.92" height="26.88"/>
      <rect class="cls-1" x="2149.7" y="430.11" width="27.92" height="26.88"/>
      <rect class="cls-1" x="2121.78" y="430.11" width="27.92" height="26.88"/>
      <rect class="cls-1" x="2093.86" y="430.11" width="27.92" height="26.88"/>
      <rect class="cls-1" x="307.1" y="430.11" width="27.92" height="26.88"/>
      <rect class="cls-1" x="279.18" y="430.11" width="27.92" height="26.88"/>
      <rect class="cls-1" x="251.26" y="430.11" width="27.92" height="26.88"/>
      <rect class="cls-1" x="223.34" y="430.11" width="27.92" height="26.88"/>
      <rect class="cls-1" x="195.43" y="430.11" width="27.92" height="26.88"/>
      <rect class="cls-1" x="167.51" y="430.11" width="27.92" height="26.88"/>
      <rect class="cls-1" x="139.59" y="430.11" width="27.92" height="26.88"/>
      <rect class="cls-1" x="111.67" y="430.11" width="27.92" height="26.88"/>
      <rect class="cls-1" x="2317.2" y="403.23" width="27.92" height="26.88"/>
      <rect class="cls-1" x="83.75" y="403.23" width="27.92" height="26.88"/>
      <rect class="cls-1" x="2345.12" y="376.35" width="27.92" height="26.88"/>
      <rect class="cls-1" x="55.84" y="376.35" width="27.92" height="26.88"/>
      <rect class="cls-1" x="2373.04" y="349.46" width="27.92" height="26.88"/>
      <rect class="cls-1" x="27.92" y="349.46" width="27.92" height="26.88"/>
      <rect class="cls-1" x="2400.96" y="322.58" width="27.92" height="26.88"/>
      <rect class="cls-1" y="322.58" width="27.92" height="26.88"/>
      <rect class="cls-1" x="2400.96" y="295.7" width="27.92" height="26.88"/>
      <rect class="cls-1" y="295.7" width="27.92" height="26.88"/>
      <rect class="cls-1" x="2400.96" y="268.82" width="27.92" height="26.88"/>
      <rect class="cls-1" y="268.82" width="27.92" height="26.88"/>
      <rect class="cls-1" x="2400.96" y="241.94" width="27.92" height="26.88"/>
      <rect class="cls-1" y="241.94" width="27.92" height="26.88"/>
      <rect class="cls-1" x="2400.96" y="215.05" width="27.92" height="26.88"/>
      <rect class="cls-1" y="215.05" width="27.92" height="26.88"/>
      <rect class="cls-1" x="2400.96" y="188.17" width="27.92" height="26.88"/>
      <rect class="cls-1" y="188.17" width="27.92" height="26.88"/>
      <rect class="cls-1" x="2400.96" y="161.29" width="27.92" height="26.88"/>
      <rect class="cls-1" y="161.29" width="27.92" height="26.88"/>
      <rect class="cls-1" x="2400.96" y="134.41" width="27.92" height="26.88"/>
      <rect class="cls-1" y="134.41" width="27.92" height="26.88"/>
      <rect class="cls-1" y="107.53" width="27.92" height="26.88"/>
      <rect class="cls-1" x="27.92" y="80.65" width="27.92" height="26.88"/>
      <rect class="cls-1" x="2345.12" y="53.76" width="27.92" height="26.88"/>
      <rect class="cls-1" x="55.84" y="53.76" width="27.92" height="26.88"/>
      <rect class="cls-1" x="2317.2" y="26.88" width="27.92" height="26.88"/>
      <rect class="cls-1" x="83.75" y="26.88" width="27.92" height="26.88"/>
      <rect class="cls-1" x="2289.29" y="0" width="27.92" height="26.88"/>
      <rect class="cls-1" x="2261.37" y="0" width="27.92" height="26.88"/>
      <rect class="cls-1" x="2233.45" y="0" width="27.92" height="26.88"/>
      <rect class="cls-1" x="2205.53" y="0" width="27.92" height="26.88"/>
      <rect class="cls-1" x="2177.61" y="0" width="27.92" height="26.88"/>
      <rect class="cls-1" x="2149.7" y="0" width="27.92" height="26.88"/>
      <rect class="cls-1" x="2121.78" y="0" width="27.92" height="26.88"/>
      <rect class="cls-1" x="2093.86" y="0" width="27.92" height="26.88"/>
      <rect class="cls-1" x="2065.94" y="0" width="27.92" height="26.88"/>
      <rect class="cls-1" x="418.77" width="27.92" height="26.88"/>
      <rect class="cls-1" x="390.85" width="27.92" height="26.88"/>
      <rect class="cls-1" x="362.94" width="27.92" height="26.88"/>
      <rect class="cls-1" x="335.02" width="27.92" height="26.88"/>
      <rect class="cls-1" x="307.1" width="27.92" height="26.88"/>
      <rect class="cls-1" x="279.18" width="27.92" height="26.88"/>
      <rect class="cls-1" x="251.26" width="27.92" height="26.88"/>
      <rect class="cls-1" x="223.34" width="27.92" height="26.88"/>
      <rect class="cls-1" x="195.43" width="27.92" height="26.88"/>
      <rect class="cls-1" x="167.51" width="27.92" height="26.88"/>
      <rect class="cls-1" x="139.59" width="27.92" height="26.88"/>
      <rect class="cls-1" x="111.67" width="27.92" height="26.88"/>
      <rect class="cls-1" x="586.28" y="430.11" width="27.92" height="26.88"/>
      <rect class="cls-1" x="558.36" y="430.11" width="27.92" height="26.88"/>
      <rect class="cls-1" x="530.44" y="430.11" width="27.92" height="26.88"/>
      <rect class="cls-1" x="502.53" y="430.11" width="27.92" height="26.88"/>
      <rect class="cls-1" x="474.61" y="430.11" width="27.92" height="26.88"/>
      <rect class="cls-1" x="614.2" y="430.11" width="27.92" height="26.88"/>
      <rect class="cls-1" x="446.69" y="430.11" width="27.92" height="26.88"/>
      <rect class="cls-1" x="614.2" y="0" width="27.92" height="26.88"/>
      <rect class="cls-1" x="586.28" y="0" width="27.92" height="26.88"/>
      <rect class="cls-1" x="558.36" y="0" width="27.92" height="26.88"/>
      <rect class="cls-1" x="530.44" y="0" width="27.92" height="26.88"/>
      <rect class="cls-1" x="502.53" y="0" width="27.92" height="26.88"/>
      <rect class="cls-1" x="474.61" y="0" width="27.92" height="26.88"/>
      <rect class="cls-1" x="446.69" y="0" width="27.92" height="26.88"/>
      <rect class="cls-1" x="865.46" y="430.11" width="27.92" height="26.88"/>
      <rect class="cls-1" x="837.54" y="430.11" width="27.92" height="26.88"/>
      <rect class="cls-1" x="809.63" y="430.11" width="27.92" height="26.88"/>
      <rect class="cls-1" x="781.71" y="430.11" width="27.92" height="26.88"/>
      <rect class="cls-1" x="753.79" y="430.11" width="27.92" height="26.88"/>
      <rect class="cls-1" x="725.87" y="430.11" width="27.92" height="26.88"/>
      <rect class="cls-1" x="697.95" y="430.11" width="27.92" height="26.88"/>
      <rect class="cls-1" x="670.03" y="430.11" width="27.92" height="26.88"/>
      <rect class="cls-1" x="642.12" y="430.11" width="27.92" height="26.88"/>
      <rect class="cls-1" x="865.46" width="27.92" height="26.88"/>
      <rect class="cls-1" x="837.54" width="27.92" height="26.88"/>
      <rect class="cls-1" x="809.63" width="27.92" height="26.88"/>
      <rect class="cls-1" x="781.71" width="27.92" height="26.88"/>
      <rect class="cls-1" x="753.79" width="27.92" height="26.88"/>
      <rect class="cls-1" x="725.87" width="27.92" height="26.88"/>
      <rect class="cls-1" x="697.95" width="27.92" height="26.88"/>
      <rect class="cls-1" x="670.03" width="27.92" height="26.88"/>
      <rect class="cls-1" x="642.12" width="27.92" height="26.88"/>
      <rect class="cls-1" x="1032.97" y="430.11" width="27.92" height="26.88"/>
      <rect class="cls-1" x="1005.05" y="430.11" width="27.92" height="26.88"/>
      <rect class="cls-1" x="977.13" y="430.11" width="27.92" height="26.88"/>
      <rect class="cls-1" x="949.22" y="430.11" width="27.92" height="26.88"/>
      <rect class="cls-1" x="921.3" y="430.11" width="27.92" height="26.88"/>
      <rect class="cls-1" x="1060.89" y="430.11" width="27.92" height="26.88"/>
      <rect class="cls-1" x="893.38" y="430.11" width="27.92" height="26.88"/>
      <rect class="cls-1" x="1060.89" y="0" width="27.92" height="26.88"/>
      <rect class="cls-1" x="1032.97" y="0" width="27.92" height="26.88"/>
      <rect class="cls-1" x="1005.05" y="0" width="27.92" height="26.88"/>
      <rect class="cls-1" x="977.13" y="0" width="27.92" height="26.88"/>
      <rect class="cls-1" x="949.22" y="0" width="27.92" height="26.88"/>
      <rect class="cls-1" x="921.3" y="0" width="27.92" height="26.88"/>
      <rect class="cls-1" x="893.38" y="0" width="27.92" height="26.88"/>
      <rect class="cls-1" x="1312.15" y="430.11" width="27.92" height="26.88"/>
      <rect class="cls-1" x="1284.23" y="430.11" width="27.92" height="26.88"/>
      <rect class="cls-1" x="1256.32" y="430.11" width="27.92" height="26.88"/>
      <rect class="cls-1" x="1228.4" y="430.11" width="27.92" height="26.88"/>
      <rect class="cls-1" x="1200.48" y="430.11" width="27.92" height="26.88"/>
      <rect class="cls-1" x="1172.56" y="430.11" width="27.92" height="26.88"/>
      <rect class="cls-1" x="1144.64" y="430.11" width="27.92" height="26.88"/>
      <rect class="cls-1" x="1116.72" y="430.11" width="27.92" height="26.88"/>
      <rect class="cls-1" x="1088.81" y="430.11" width="27.92" height="26.88"/>
      <rect class="cls-1" x="1312.15" y="0" width="27.92" height="26.88"/>
      <rect class="cls-1" x="1284.23" y="0" width="27.92" height="26.88"/>
      <rect class="cls-1" x="1256.32" y="0" width="27.92" height="26.88"/>
      <rect class="cls-1" x="1228.4" y="0" width="27.92" height="26.88"/>
      <rect class="cls-1" x="1200.48" y="0" width="27.92" height="26.88"/>
      <rect class="cls-1" x="1172.56" y="0" width="27.92" height="26.88"/>
      <rect class="cls-1" x="1144.64" y="0" width="27.92" height="26.88"/>
      <rect class="cls-1" x="1116.72" y="0" width="27.92" height="26.88"/>
      <rect class="cls-1" x="1088.81" y="0" width="27.92" height="26.88"/>
      <rect class="cls-1" x="1479.66" y="430.11" width="27.92" height="26.88"/>
      <rect class="cls-1" x="1451.74" y="430.11" width="27.92" height="26.88"/>
      <rect class="cls-1" x="1423.82" y="430.11" width="27.92" height="26.88"/>
      <rect class="cls-1" x="1395.91" y="430.11" width="27.92" height="26.88"/>
      <rect class="cls-1" x="1367.99" y="430.11" width="27.92" height="26.88"/>
      <rect class="cls-1" x="1507.58" y="430.11" width="27.92" height="26.88"/>
      <rect class="cls-1" x="1340.07" y="430.11" width="27.92" height="26.88"/>
      <rect class="cls-1" x="1507.58" y="0" width="27.92" height="26.88"/>
      <rect class="cls-1" x="1479.66" y="0" width="27.92" height="26.88"/>
      <rect class="cls-1" x="1451.74" y="0" width="27.92" height="26.88"/>
      <rect class="cls-1" x="1423.82" y="0" width="27.92" height="26.88"/>
      <rect class="cls-1" x="1395.91" y="0" width="27.92" height="26.88"/>
      <rect class="cls-1" x="1367.99" y="0" width="27.92" height="26.88"/>
      <rect class="cls-1" x="1340.07" y="0" width="27.92" height="26.88"/>
      <rect class="cls-1" x="1563.41" y="430.11" width="27.92" height="26.88"/>
      <rect class="cls-1" x="1535.5" y="430.11" width="27.92" height="26.88"/>
      <rect class="cls-1" x="1591.33" y="430.11" width="27.92" height="26.88"/>
      <rect class="cls-1" x="1591.33" y="0" width="27.92" height="26.88"/>
      <rect class="cls-1" x="1563.41" y="0" width="27.92" height="26.88"/>
      <rect class="cls-1" x="1535.5" y="0" width="27.92" height="26.88"/>
      <rect class="cls-1" x="1842.6" y="430.11" width="27.92" height="26.88"/>
      <rect class="cls-1" x="1814.68" y="430.11" width="27.92" height="26.88"/>
      <rect class="cls-1" x="1786.76" y="430.11" width="27.92" height="26.88"/>
      <rect class="cls-1" x="1758.84" y="430.11" width="27.92" height="26.88"/>
      <rect class="cls-1" x="1730.92" y="430.11" width="27.92" height="26.88"/>
      <rect class="cls-1" x="1703.01" y="430.11" width="27.92" height="26.88"/>
      <rect class="cls-1" x="1675.09" y="430.11" width="27.92" height="26.88"/>
      <rect class="cls-1" x="1647.17" y="430.11" width="27.92" height="26.88"/>
      <rect class="cls-1" x="1619.25" y="430.11" width="27.92" height="26.88"/>
      <rect class="cls-1" x="1842.6" y="0" width="27.92" height="26.88"/>
      <rect class="cls-1" x="1814.68" y="0" width="27.92" height="26.88"/>
      <rect class="cls-1" x="1786.76" y="0" width="27.92" height="26.88"/>
      <rect class="cls-1" x="1758.84" y="0" width="27.92" height="26.88"/>
      <rect class="cls-1" x="1730.92" y="0" width="27.92" height="26.88"/>
      <rect class="cls-1" x="1703.01" y="0" width="27.92" height="26.88"/>
      <rect class="cls-1" x="1675.09" y="0" width="27.92" height="26.88"/>
      <rect class="cls-1" x="1647.17" y="0" width="27.92" height="26.88"/>
      <rect class="cls-1" x="1619.25" y="0" width="27.92" height="26.88"/>
      <rect class="cls-1" x="2010.1" y="430.11" width="27.92" height="26.88"/>
      <rect class="cls-1" x="1982.19" y="430.11" width="27.92" height="26.88"/>
      <rect class="cls-1" x="1954.27" y="430.11" width="27.92" height="26.88"/>
      <rect class="cls-1" x="1926.35" y="430.11" width="27.92" height="26.88"/>
      <rect class="cls-1" x="1898.43" y="430.11" width="27.92" height="26.88"/>
      <rect class="cls-1" x="2038.02" y="430.11" width="27.92" height="26.88"/>
      <rect class="cls-1" x="1870.51" y="430.11" width="27.92" height="26.88"/>
      <rect class="cls-1" x="2038.02" y="0" width="27.92" height="26.88"/>
      <rect class="cls-1" x="2010.1" y="0" width="27.92" height="26.88"/>
      <rect class="cls-1" x="1982.19" y="0" width="27.92" height="26.88"/>
      <rect class="cls-1" x="1954.27" y="0" width="27.92" height="26.88"/>
      <rect class="cls-1" x="1926.35" y="0" width="27.92" height="26.88"/>
      <rect class="cls-1" x="1898.43" y="0" width="27.92" height="26.88"/>
      <rect class="cls-1" x="1870.51" y="0" width="27.92" height="26.88"/>
    </g>
    <g>
      <path class="cls-1" d="M246.87,293.42v-25.97h51.94v25.97h-25.97v25.97h-103.88v-25.97h-25.97v-25.97h-25.97v-77.91h25.97v-25.97h25.97v-25.97h103.88v25.97h25.97v25.97h-51.94v-25.97h-51.94v25.97h-25.97v77.91h25.97v25.97h51.94Z"/>
      <path class="cls-1" d="M476.61,319.39h-129.85v-25.97h-25.97v-129.85h25.97v-25.97h129.85v25.97h25.97v129.85h-25.97v25.97ZM450.64,163.57h-77.91v129.85h77.91v-129.85Z"/>
      <path class="cls-1" d="M524.56,137.6h51.94v25.97h25.97v25.97h25.97v-25.97h25.97v-25.97h51.94v181.79h-51.94v-103.88h-25.97v25.97h-25.97v-25.97h-25.97v103.88h-51.94v-181.79Z"/>
      <path class="cls-1" d="M832.22,163.57v129.85h51.94v25.97h-155.82v-25.97h51.94v-129.85h-51.94v-25.97h155.82v25.97h-51.94Z"/>
      <path class="cls-1" d="M906.14,137.6h51.94v25.97h25.97v25.97h25.97v25.97h25.97v-77.91h51.94v181.79h-51.94v-25.97h-25.97v-25.97h-25.97v-25.97h-25.97v77.91h-51.94v-181.79Z"/>
      <path class="cls-1" d="M1291.7,319.39h-129.85v-25.97h-25.97v-25.97h-25.97v-77.91h25.97v-25.97h25.97v-25.97h129.85v25.97h-103.88v25.97h-25.97v77.91h25.97v25.97h51.94v-51.94h-25.97v-25.97h77.91v103.88Z"/>
      <path class="cls-1" d="M1674.57,189.54h-51.94v-25.97h-51.94v51.94h103.88v25.97h25.97v51.94h-25.97v25.97h-129.85v-25.97h-25.97v-26.36h52.33l-.39,26.36h77.91v-51.94h-103.88v-25.97h-25.97v-51.94h25.97v-25.97h103.88v25.97h25.97v25.97Z"/>
      <path class="cls-1" d="M1878.34,319.39h-129.85v-25.97h-25.97v-129.85h25.97v-25.97h129.85v25.97h25.97v129.85h-25.97v25.97ZM1852.37,163.57h-77.91v129.85h77.91v-129.85Z"/>
      <path class="cls-1" d="M2082.12,319.39h-129.85v-25.97h-25.97v-129.85h25.97v-25.97h129.85v25.97h25.97v129.85h-25.97v25.97ZM2056.15,163.57h-77.91v129.85h77.91v-129.85Z"/>
      <path class="cls-1" d="M2130.07,137.6h51.94v25.97h25.97v25.97h25.97v25.97h25.97v-77.91h51.94v181.79h-51.94v-25.97h-25.97v-25.97h-25.97v-25.97h-25.97v77.91h-51.94v-181.79Z"/>
    </g>
  </g>
</svg>