<?xml version="1.0" encoding="UTF-8"?>
<svg shape-rendering="crispEdges" id="Layer_2" data-name="Layer 2" xmlns="http://www.w3.org/2000/svg" viewBox="0 0 610.78 498.28">
  <defs>
    <style>
      .cls-1 {
        fill: #c9daf8;
      }
    </style>
  </defs>
  <g id="Layer_1-2" data-name="Layer 1">
    <g>
      <g>
        <rect class="cls-1" x="557.66" y="463.31" width="8.85" height="8.74"/>
        <rect class="cls-1" x="548.81" y="463.31" width="8.85" height="8.74"/>
        <rect class="cls-1" x="539.96" y="463.31" width="8.85" height="8.74"/>
        <rect class="cls-1" x="531.11" y="463.31" width="8.85" height="8.74"/>
        <rect class="cls-1" x="566.52" y="454.57" width="8.85" height="8.74"/>
        <rect class="cls-1" x="557.66" y="454.57" width="8.85" height="8.74"/>
        <rect class="cls-1" x="548.81" y="454.57" width="8.85" height="8.74"/>
        <rect class="cls-1" x="566.52" y="445.83" width="8.85" height="8.74"/>
        <rect class="cls-1" x="557.66" y="445.83" width="8.85" height="8.74"/>
        <rect class="cls-1" x="548.81" y="445.83" width="8.85" height="8.74"/>
        <rect class="cls-1" x="566.52" y="437.08" width="8.85" height="8.74"/>
        <rect class="cls-1" x="566.52" y="428.34" width="8.85" height="8.74"/>
      </g>
      <g>
        <rect class="cls-1" x="557.66" y="489.54" width="8.85" height="8.74"/>
        <rect class="cls-1" x="548.81" y="489.54" width="8.85" height="8.74"/>
        <rect class="cls-1" x="539.96" y="489.54" width="8.85" height="8.74"/>
        <rect class="cls-1" x="531.11" y="489.54" width="8.85" height="8.74"/>
        <rect class="cls-1" x="522.26" y="489.54" width="8.85" height="8.74"/>
        <rect class="cls-1" x="513.41" y="489.54" width="8.85" height="8.74"/>
        <rect class="cls-1" x="504.55" y="489.54" width="8.85" height="8.74"/>
        <rect class="cls-1" x="495.7" y="489.54" width="8.85" height="8.74"/>
        <rect class="cls-1" x="486.85" y="489.54" width="8.85" height="8.74"/>
        <rect class="cls-1" x="478" y="489.54" width="8.85" height="8.74"/>
        <rect class="cls-1" x="469.15" y="489.54" width="8.85" height="8.74"/>
        <rect class="cls-1" x="460.29" y="489.54" width="8.85" height="8.74"/>
        <rect class="cls-1" x="451.44" y="489.54" width="8.85" height="8.74"/>
        <rect class="cls-1" x="442.59" y="489.54" width="8.85" height="8.74"/>
        <rect class="cls-1" x="433.74" y="489.54" width="8.85" height="8.74"/>
        <rect class="cls-1" x="424.89" y="489.54" width="8.85" height="8.74"/>
        <rect class="cls-1" x="416.04" y="489.54" width="8.85" height="8.74"/>
        <rect class="cls-1" x="407.18" y="489.54" width="8.85" height="8.74"/>
        <rect class="cls-1" x="398.33" y="489.54" width="8.85" height="8.74"/>
        <rect class="cls-1" x="389.48" y="489.54" width="8.85" height="8.74"/>
        <rect class="cls-1" x="380.63" y="489.54" width="8.85" height="8.74"/>
        <rect class="cls-1" x="371.78" y="489.54" width="8.85" height="8.74"/>
        <rect class="cls-1" x="362.92" y="489.54" width="8.85" height="8.74"/>
        <rect class="cls-1" x="354.07" y="489.54" width="8.85" height="8.74"/>
        <rect class="cls-1" x="345.22" y="489.54" width="8.85" height="8.74"/>
        <rect class="cls-1" x="336.37" y="489.54" width="8.85" height="8.74"/>
        <rect class="cls-1" x="327.52" y="489.54" width="8.85" height="8.74"/>
        <rect class="cls-1" x="318.67" y="489.54" width="8.85" height="8.74"/>
        <rect class="cls-1" x="309.81" y="489.54" width="8.85" height="8.74"/>
        <rect class="cls-1" x="300.96" y="489.54" width="8.85" height="8.74"/>
        <rect class="cls-1" x="292.11" y="489.54" width="8.85" height="8.74"/>
        <rect class="cls-1" x="283.26" y="489.54" width="8.85" height="8.74"/>
        <rect class="cls-1" x="274.41" y="489.54" width="8.85" height="8.74"/>
        <rect class="cls-1" x="265.55" y="489.54" width="8.85" height="8.74"/>
        <rect class="cls-1" x="256.7" y="489.54" width="8.85" height="8.74"/>
        <rect class="cls-1" x="247.85" y="489.54" width="8.85" height="8.74"/>
        <rect class="cls-1" x="239" y="489.54" width="8.85" height="8.74"/>
        <rect class="cls-1" x="230.15" y="489.54" width="8.85" height="8.74"/>
        <rect class="cls-1" x="221.3" y="489.54" width="8.85" height="8.74"/>
        <rect class="cls-1" x="212.44" y="489.54" width="8.85" height="8.74"/>
        <rect class="cls-1" x="203.59" y="489.54" width="8.85" height="8.74"/>
        <rect class="cls-1" x="194.74" y="489.54" width="8.85" height="8.74"/>
        <rect class="cls-1" x="185.89" y="489.54" width="8.85" height="8.74"/>
        <rect class="cls-1" x="177.04" y="489.54" width="8.85" height="8.74"/>
        <rect class="cls-1" x="168.18" y="489.54" width="8.85" height="8.74"/>
        <rect class="cls-1" x="159.33" y="489.54" width="8.85" height="8.74"/>
        <rect class="cls-1" x="150.48" y="489.54" width="8.85" height="8.74"/>
        <rect class="cls-1" x="141.63" y="489.54" width="8.85" height="8.74"/>
        <rect class="cls-1" x="132.78" y="489.54" width="8.85" height="8.74"/>
        <rect class="cls-1" x="123.93" y="489.54" width="8.85" height="8.74"/>
        <rect class="cls-1" x="115.07" y="489.54" width="8.85" height="8.74"/>
        <rect class="cls-1" x="106.22" y="489.54" width="8.85" height="8.74"/>
        <rect class="cls-1" x="97.37" y="489.54" width="8.85" height="8.74"/>
        <rect class="cls-1" x="88.52" y="489.54" width="8.85" height="8.74"/>
        <rect class="cls-1" x="79.67" y="489.54" width="8.85" height="8.74"/>
        <rect class="cls-1" x="70.81" y="489.54" width="8.85" height="8.74"/>
        <rect class="cls-1" x="61.96" y="489.54" width="8.85" height="8.74"/>
        <rect class="cls-1" x="53.11" y="489.54" width="8.85" height="8.74"/>
        <rect class="cls-1" x="44.26" y="489.54" width="8.85" height="8.74"/>
        <rect class="cls-1" x="575.37" y="480.79" width="8.85" height="8.74"/>
        <rect class="cls-1" x="566.52" y="480.79" width="8.85" height="8.74"/>
        <rect class="cls-1" x="35.41" y="480.79" width="8.85" height="8.74"/>
        <rect class="cls-1" x="26.56" y="480.79" width="8.85" height="8.74"/>
        <rect class="cls-1" x="17.7" y="480.79" width="8.85" height="8.74"/>
        <rect class="cls-1" x="593.07" y="472.05" width="8.85" height="8.74"/>
        <rect class="cls-1" x="584.22" y="472.05" width="8.85" height="8.74"/>
        <rect class="cls-1" x="8.85" y="472.05" width="8.85" height="8.74"/>
        <rect class="cls-1" x="593.07" y="463.31" width="8.85" height="8.74"/>
        <rect class="cls-1" x="584.22" y="463.31" width="8.85" height="8.74"/>
        <rect class="cls-1" x="8.85" y="463.31" width="8.85" height="8.74"/>
        <rect class="cls-1" x="601.92" y="454.57" width="8.85" height="8.74"/>
        <rect class="cls-1" x="0" y="454.57" width="8.85" height="8.74"/>
        <rect class="cls-1" x="601.92" y="445.83" width="8.85" height="8.74"/>
        <rect class="cls-1" x="0" y="445.83" width="8.85" height="8.74"/>
        <rect class="cls-1" x="601.92" y="437.08" width="8.85" height="8.74"/>
        <rect class="cls-1" x="0" y="437.08" width="8.85" height="8.74"/>
        <rect class="cls-1" x="601.92" y="428.34" width="8.85" height="8.74"/>
        <rect class="cls-1" x="0" y="428.34" width="8.85" height="8.74"/>
        <rect class="cls-1" x="601.92" y="419.6" width="8.85" height="8.74"/>
        <rect class="cls-1" x="0" y="419.6" width="8.85" height="8.74"/>
        <rect class="cls-1" x="601.92" y="96.16" width="8.85" height="8.74"/>
        <rect class="cls-1" x="0" y="96.16" width="8.85" height="8.74"/>
        <rect class="cls-1" x="601.92" y="87.42" width="8.85" height="8.74"/>
        <rect class="cls-1" x="0" y="87.42" width="8.85" height="8.74"/>
        <rect class="cls-1" x="601.92" y="78.68" width="8.85" height="8.74"/>
        <rect class="cls-1" x="0" y="78.68" width="8.85" height="8.74"/>
        <rect class="cls-1" x="601.92" y="69.93" width="8.85" height="8.74"/>
        <rect class="cls-1" x="0" y="69.93" width="8.85" height="8.74"/>
        <rect class="cls-1" x="601.92" y="61.19" width="8.85" height="8.74"/>
        <rect class="cls-1" x="0" y="61.19" width="8.85" height="8.74"/>
        <rect class="cls-1" x="601.92" y="52.45" width="8.85" height="8.74"/>
        <rect class="cls-1" x="0" y="52.45" width="8.85" height="8.74"/>
        <rect class="cls-1" x="601.92" y="43.71" width="8.85" height="8.74"/>
        <rect class="cls-1" x="0" y="43.71" width="8.85" height="8.74"/>
        <rect class="cls-1" x="593.07" y="34.97" width="8.85" height="8.74"/>
        <rect class="cls-1" x="584.22" y="34.97" width="8.85" height="8.74"/>
        <rect class="cls-1" x="8.85" y="34.97" width="8.85" height="8.74"/>
        <rect class="cls-1" x="593.07" y="26.23" width="8.85" height="8.74"/>
        <rect class="cls-1" x="584.22" y="26.23" width="8.85" height="8.74"/>
        <rect class="cls-1" x="8.85" y="26.23" width="8.85" height="8.74"/>
        <rect class="cls-1" x="575.37" y="17.48" width="8.85" height="8.74"/>
        <rect class="cls-1" x="566.52" y="17.48" width="8.85" height="8.74"/>
        <rect class="cls-1" x="35.41" y="17.48" width="8.85" height="8.74"/>
        <rect class="cls-1" x="26.56" y="17.48" width="8.85" height="8.74"/>
        <rect class="cls-1" x="17.7" y="17.48" width="8.85" height="8.74"/>
        <rect class="cls-1" x="575.37" y="8.74" width="8.85" height="8.74"/>
        <rect class="cls-1" x="566.52" y="8.74" width="8.85" height="8.74"/>
        <rect class="cls-1" x="35.41" y="8.74" width="8.85" height="8.74"/>
        <rect class="cls-1" x="26.56" y="8.74" width="8.85" height="8.74"/>
        <rect class="cls-1" x="17.7" y="8.74" width="8.85" height="8.74"/>
        <rect class="cls-1" x="557.66" width="8.85" height="8.74"/>
        <rect class="cls-1" x="548.81" width="8.85" height="8.74"/>
        <rect class="cls-1" x="539.96" width="8.85" height="8.74"/>
        <rect class="cls-1" x="531.11" width="8.85" height="8.74"/>
        <rect class="cls-1" x="522.26" width="8.85" height="8.74"/>
        <rect class="cls-1" x="513.41" width="8.85" height="8.74"/>
        <rect class="cls-1" x="504.55" width="8.85" height="8.74"/>
        <rect class="cls-1" x="495.7" width="8.85" height="8.74"/>
        <rect class="cls-1" x="486.85" width="8.85" height="8.74"/>
        <rect class="cls-1" x="478" width="8.85" height="8.74"/>
        <rect class="cls-1" x="469.15" width="8.85" height="8.74"/>
        <rect class="cls-1" x="460.29" width="8.85" height="8.74"/>
        <rect class="cls-1" x="451.44" width="8.85" height="8.74"/>
        <rect class="cls-1" x="442.59" width="8.85" height="8.74"/>
        <rect class="cls-1" x="433.74" width="8.85" height="8.74"/>
        <rect class="cls-1" x="424.89" width="8.85" height="8.74"/>
        <rect class="cls-1" x="416.04" width="8.85" height="8.74"/>
        <rect class="cls-1" x="407.18" width="8.85" height="8.74"/>
        <rect class="cls-1" x="398.33" width="8.85" height="8.74"/>
        <rect class="cls-1" x="389.48" width="8.85" height="8.74"/>
        <rect class="cls-1" x="380.63" width="8.85" height="8.74"/>
        <rect class="cls-1" x="371.78" width="8.85" height="8.74"/>
        <rect class="cls-1" x="362.92" width="8.85" height="8.74"/>
        <rect class="cls-1" x="354.07" width="8.85" height="8.74"/>
        <rect class="cls-1" x="345.22" width="8.85" height="8.74"/>
        <rect class="cls-1" x="336.37" width="8.85" height="8.74"/>
        <rect class="cls-1" x="327.52" width="8.85" height="8.74"/>
        <rect class="cls-1" x="318.67" width="8.85" height="8.74"/>
        <rect class="cls-1" x="309.81" width="8.85" height="8.74"/>
        <rect class="cls-1" x="300.96" width="8.85" height="8.74"/>
        <rect class="cls-1" x="292.11" width="8.85" height="8.74"/>
        <rect class="cls-1" x="283.26" width="8.85" height="8.74"/>
        <rect class="cls-1" x="274.41" width="8.85" height="8.74"/>
        <rect class="cls-1" x="265.55" width="8.85" height="8.74"/>
        <rect class="cls-1" x="256.7" width="8.85" height="8.74"/>
        <rect class="cls-1" x="247.85" width="8.85" height="8.74"/>
        <rect class="cls-1" x="239" width="8.85" height="8.74"/>
        <rect class="cls-1" x="230.15" width="8.85" height="8.74"/>
        <rect class="cls-1" x="221.3" width="8.85" height="8.74"/>
        <rect class="cls-1" x="212.44" width="8.85" height="8.74"/>
        <rect class="cls-1" x="203.59" width="8.85" height="8.74"/>
        <rect class="cls-1" x="194.74" width="8.85" height="8.74"/>
        <rect class="cls-1" x="185.89" width="8.85" height="8.74"/>
        <rect class="cls-1" x="177.04" width="8.85" height="8.74"/>
        <rect class="cls-1" x="168.18" width="8.85" height="8.74"/>
        <rect class="cls-1" x="159.33" width="8.85" height="8.74"/>
        <rect class="cls-1" x="150.48" width="8.85" height="8.74"/>
        <rect class="cls-1" x="141.63" width="8.85" height="8.74"/>
        <rect class="cls-1" x="132.78" width="8.85" height="8.74"/>
        <rect class="cls-1" x="123.93" width="8.85" height="8.74"/>
        <rect class="cls-1" x="115.07" width="8.85" height="8.74"/>
        <rect class="cls-1" x="106.22" width="8.85" height="8.74"/>
        <rect class="cls-1" x="97.37" width="8.85" height="8.74"/>
        <rect class="cls-1" x="88.52" width="8.85" height="8.74"/>
        <rect class="cls-1" x="79.67" width="8.85" height="8.74"/>
        <rect class="cls-1" x="70.81" width="8.85" height="8.74"/>
        <rect class="cls-1" x="61.96" width="8.85" height="8.74"/>
        <rect class="cls-1" x="53.11" width="8.85" height="8.74"/>
        <rect class="cls-1" x="44.26" width="8.85" height="8.74"/>
        <rect class="cls-1" x="601.92" y="148.61" width="8.85" height="8.74"/>
        <rect class="cls-1" x="0" y="148.61" width="8.85" height="8.74"/>
        <rect class="cls-1" x="601.92" y="139.87" width="8.85" height="8.74"/>
        <rect class="cls-1" x="0" y="139.87" width="8.85" height="8.74"/>
        <rect class="cls-1" x="601.92" y="131.13" width="8.85" height="8.74"/>
        <rect class="cls-1" x="0" y="131.13" width="8.85" height="8.74"/>
        <rect class="cls-1" x="601.92" y="122.38" width="8.85" height="8.74"/>
        <rect class="cls-1" x="0" y="122.38" width="8.85" height="8.74"/>
        <rect class="cls-1" x="601.92" y="113.64" width="8.85" height="8.74"/>
        <rect class="cls-1" x="0" y="113.64" width="8.85" height="8.74"/>
        <rect class="cls-1" x="601.92" y="104.9" width="8.85" height="8.74"/>
        <rect class="cls-1" x="0" y="104.9" width="8.85" height="8.74"/>
        <rect class="cls-1" x="601.92" y="183.58" width="8.85" height="8.74"/>
        <rect class="cls-1" x="0" y="183.58" width="8.85" height="8.74"/>
        <rect class="cls-1" x="601.92" y="174.83" width="8.85" height="8.74"/>
        <rect class="cls-1" x="0" y="174.83" width="8.85" height="8.74"/>
        <rect class="cls-1" x="601.92" y="166.09" width="8.85" height="8.74"/>
        <rect class="cls-1" x="0" y="166.09" width="8.85" height="8.74"/>
        <rect class="cls-1" x="601.92" y="157.35" width="8.85" height="8.74"/>
        <rect class="cls-1" x="0" y="157.35" width="8.85" height="8.74"/>
        <rect class="cls-1" x="601.92" y="236.03" width="8.85" height="8.74"/>
        <rect class="cls-1" y="236.03" width="8.85" height="8.74"/>
        <rect class="cls-1" x="601.92" y="227.28" width="8.85" height="8.74"/>
        <rect class="cls-1" y="227.28" width="8.85" height="8.74"/>
        <rect class="cls-1" x="601.92" y="218.54" width="8.85" height="8.74"/>
        <rect class="cls-1" y="218.54" width="8.85" height="8.74"/>
        <rect class="cls-1" x="601.92" y="209.8" width="8.85" height="8.74"/>
        <rect class="cls-1" y="209.8" width="8.85" height="8.74"/>
        <rect class="cls-1" x="601.92" y="201.06" width="8.85" height="8.74"/>
        <rect class="cls-1" y="201.06" width="8.85" height="8.74"/>
        <rect class="cls-1" x="601.92" y="192.32" width="8.85" height="8.74"/>
        <rect class="cls-1" y="192.32" width="8.85" height="8.74"/>
        <rect class="cls-1" x="601.92" y="270.99" width="8.85" height="8.74"/>
        <rect class="cls-1" x="0" y="270.99" width="8.85" height="8.74"/>
        <rect class="cls-1" x="601.92" y="262.25" width="8.85" height="8.74"/>
        <rect class="cls-1" x="0" y="262.25" width="8.85" height="8.74"/>
        <rect class="cls-1" x="601.92" y="253.51" width="8.85" height="8.74"/>
        <rect class="cls-1" x="0" y="253.51" width="8.85" height="8.74"/>
        <rect class="cls-1" x="601.92" y="244.77" width="8.85" height="8.74"/>
        <rect class="cls-1" x="0" y="244.77" width="8.85" height="8.74"/>
        <rect class="cls-1" x="601.92" y="323.44" width="8.85" height="8.74"/>
        <rect class="cls-1" x="0" y="323.44" width="8.85" height="8.74"/>
        <rect class="cls-1" x="601.92" y="314.7" width="8.85" height="8.74"/>
        <rect class="cls-1" x="0" y="314.7" width="8.85" height="8.74"/>
        <rect class="cls-1" x="601.92" y="305.96" width="8.85" height="8.74"/>
        <rect class="cls-1" x="0" y="305.96" width="8.85" height="8.74"/>
        <rect class="cls-1" x="601.92" y="297.22" width="8.85" height="8.74"/>
        <rect class="cls-1" x="0" y="297.22" width="8.85" height="8.74"/>
        <rect class="cls-1" x="601.92" y="288.48" width="8.85" height="8.74"/>
        <rect class="cls-1" x="0" y="288.48" width="8.85" height="8.74"/>
        <rect class="cls-1" x="601.92" y="279.73" width="8.85" height="8.74"/>
        <rect class="cls-1" x="0" y="279.73" width="8.85" height="8.74"/>
        <rect class="cls-1" x="601.92" y="358.41" width="8.85" height="8.74"/>
        <rect class="cls-1" x="0" y="358.41" width="8.85" height="8.74"/>
        <rect class="cls-1" x="601.92" y="349.67" width="8.85" height="8.74"/>
        <rect class="cls-1" x="0" y="349.67" width="8.85" height="8.74"/>
        <rect class="cls-1" x="601.92" y="340.93" width="8.85" height="8.74"/>
        <rect class="cls-1" x="0" y="340.93" width="8.85" height="8.74"/>
        <rect class="cls-1" x="601.92" y="332.18" width="8.85" height="8.74"/>
        <rect class="cls-1" x="0" y="332.18" width="8.85" height="8.74"/>
        <rect class="cls-1" x="601.92" y="410.86" width="8.85" height="8.74"/>
        <rect class="cls-1" x="0" y="410.86" width="8.85" height="8.74"/>
        <rect class="cls-1" x="601.92" y="402.12" width="8.85" height="8.74"/>
        <rect class="cls-1" x="0" y="402.12" width="8.85" height="8.74"/>
        <rect class="cls-1" x="601.92" y="393.38" width="8.85" height="8.74"/>
        <rect class="cls-1" x="0" y="393.38" width="8.85" height="8.74"/>
        <rect class="cls-1" x="601.92" y="384.63" width="8.85" height="8.74"/>
        <rect class="cls-1" x="0" y="384.63" width="8.85" height="8.74"/>
        <rect class="cls-1" x="601.92" y="375.89" width="8.85" height="8.74"/>
        <rect class="cls-1" x="0" y="375.89" width="8.85" height="8.74"/>
        <rect class="cls-1" x="601.92" y="367.15" width="8.85" height="8.74"/>
        <rect class="cls-1" x="0" y="367.15" width="8.85" height="8.74"/>
      </g>
    </g>
  </g>
</svg>