<?xml version="1.0" encoding="UTF-8"?>
<svg shape-rendering="crispEdges" id="Layer_2" data-name="Layer 2" xmlns="http://www.w3.org/2000/svg" viewBox="0 0 534.65 192">
  <defs>
    <style>
      .cls-1 {
        fill: #3084b1;
      }

      .cls-2 {
        fill: #666;
      }

      .cls-3 {
        fill: #c9daf8;
      }
    </style>
  </defs>
  <g id="Layer_1-2" data-name="Layer 1">
    <g>
      <rect class="cls-2" x="41.13" y="178.29" width="13.71" height="13.71"/>
      <rect class="cls-2" x="54.84" y="178.29" width="13.71" height="13.71"/>
      <rect class="cls-2" x="68.55" y="178.29" width="13.71" height="13.71"/>
      <rect class="cls-2" x="82.25" y="178.29" width="13.71" height="13.71"/>
      <rect class="cls-2" x="95.96" y="178.29" width="13.71" height="13.71"/>
      <rect class="cls-2" x="109.67" y="178.29" width="13.71" height="13.71"/>
      <rect class="cls-2" x="123.38" y="178.29" width="13.71" height="13.71"/>
      <rect class="cls-2" x="137.09" y="178.29" width="13.71" height="13.71"/>
      <rect class="cls-2" x="150.8" y="178.29" width="13.71" height="13.71"/>
      <rect class="cls-2" x="164.51" y="178.29" width="13.71" height="13.71"/>
      <rect class="cls-2" x="178.22" y="178.29" width="13.71" height="13.71"/>
      <rect class="cls-2" x="191.93" y="178.29" width="13.71" height="13.71"/>
      <rect class="cls-2" x="205.64" y="178.29" width="13.71" height="13.71"/>
      <rect class="cls-2" x="219.35" y="178.29" width="13.71" height="13.71"/>
      <rect class="cls-2" x="233.05" y="178.29" width="13.71" height="13.71"/>
      <rect class="cls-2" x="246.76" y="178.29" width="13.71" height="13.71"/>
      <rect class="cls-2" x="260.47" y="178.29" width="13.71" height="13.71"/>
      <rect class="cls-2" x="274.18" y="178.29" width="13.71" height="13.71"/>
      <rect class="cls-2" x="287.89" y="178.29" width="13.71" height="13.71"/>
      <rect class="cls-2" x="301.6" y="178.29" width="13.71" height="13.71"/>
      <rect class="cls-2" x="315.31" y="178.29" width="13.71" height="13.71"/>
      <rect class="cls-2" x="329.02" y="178.29" width="13.71" height="13.71"/>
      <rect class="cls-2" x="342.73" y="178.29" width="13.71" height="13.71"/>
      <rect class="cls-2" x="356.44" y="178.29" width="13.71" height="13.71"/>
      <rect class="cls-2" x="370.15" y="178.29" width="13.71" height="13.71"/>
      <rect class="cls-2" x="383.85" y="178.29" width="13.71" height="13.71"/>
      <rect class="cls-2" x="397.56" y="178.29" width="13.71" height="13.71"/>
      <rect class="cls-2" x="411.27" y="178.29" width="13.71" height="13.71"/>
      <rect class="cls-2" x="424.98" y="178.29" width="13.71" height="13.71"/>
      <rect class="cls-2" x="438.69" y="178.29" width="13.71" height="13.71"/>
      <rect class="cls-2" x="452.4" y="178.29" width="13.71" height="13.71"/>
      <rect class="cls-2" x="466.11" y="178.29" width="13.71" height="13.71"/>
      <rect class="cls-2" x="479.82" y="178.29" width="13.71" height="13.71"/>
      <rect class="cls-2" x="493.53" y="178.29" width="13.71" height="13.71"/>
      <rect class="cls-2" x="466.11" y="164.57" width="13.71" height="13.71"/>
      <rect class="cls-2" x="479.82" y="164.57" width="13.71" height="13.71"/>
      <rect class="cls-2" x="493.53" y="164.57" width="13.71" height="13.71"/>
      <rect class="cls-2" x="507.24" y="164.57" width="13.71" height="13.71"/>
      <rect class="cls-2" x="493.53" y="150.86" width="13.71" height="13.71"/>
      <rect class="cls-2" x="507.24" y="150.86" width="13.71" height="13.71"/>
      <rect class="cls-2" x="520.95" y="150.86" width="13.71" height="13.71"/>
      <rect class="cls-2" x="507.24" y="137.14" width="13.71" height="13.71"/>
      <rect class="cls-2" x="520.95" y="137.14" width="13.71" height="13.71"/>
      <rect class="cls-2" x="507.24" y="123.43" width="13.71" height="13.71"/>
      <rect class="cls-2" x="520.95" y="123.43" width="13.71" height="13.71"/>
      <rect class="cls-2" x="507.24" y="109.71" width="13.71" height="13.71"/>
      <rect class="cls-2" x="520.95" y="109.71" width="13.71" height="13.71"/>
      <rect class="cls-2" x="507.24" y="96" width="13.71" height="13.71"/>
      <rect class="cls-2" x="520.95" y="96" width="13.71" height="13.71"/>
      <rect class="cls-2" x="507.24" y="82.29" width="13.71" height="13.71"/>
      <rect class="cls-2" x="520.95" y="82.29" width="13.71" height="13.71"/>
      <rect class="cls-2" x="507.24" y="68.57" width="13.71" height="13.71"/>
      <rect class="cls-2" x="520.95" y="68.57" width="13.71" height="13.71"/>
      <rect class="cls-2" x="507.24" y="54.86" width="13.71" height="13.71"/>
      <rect class="cls-2" x="520.95" y="54.86" width="13.71" height="13.71"/>
      <rect class="cls-2" x="507.24" y="41.14" width="13.71" height="13.71"/>
      <rect class="cls-2" x="520.95" y="41.14" width="13.71" height="13.71"/>
      <rect class="cls-2" x="507.24" y="27.43" width="13.71" height="13.71"/>
      <rect class="cls-3" x="41.13" y="150.86" width="13.71" height="13.71"/>
      <rect class="cls-3" x="54.84" y="150.86" width="13.71" height="13.71"/>
      <rect class="cls-3" x="68.55" y="150.86" width="13.71" height="13.71"/>
      <rect class="cls-3" x="27.42" y="137.14" width="13.71" height="13.71"/>
      <rect class="cls-3" x="41.13" y="137.14" width="13.71" height="13.71"/>
      <rect class="cls-3" x="54.84" y="137.14" width="13.71" height="13.71"/>
      <rect class="cls-3" x="27.42" y="123.43" width="13.71" height="13.71"/>
      <rect class="cls-3" x="41.13" y="123.43" width="13.71" height="13.71"/>
      <rect class="cls-3" x="54.84" y="123.43" width="13.71" height="13.71"/>
      <rect class="cls-3" x="27.42" y="109.71" width="13.71" height="13.71"/>
      <rect class="cls-3" x="27.42" y="96" width="13.71" height="13.71"/>
      <rect class="cls-3" x="452.4" y="96" width="13.71" height="13.71"/>
      <rect class="cls-3" x="452.4" y="68.57" width="13.71" height="13.71"/>
      <rect class="cls-3" x="452.4" y="54.86" width="13.71" height="13.71"/>
      <rect class="cls-3" x="438.69" y="41.14" width="13.71" height="13.71"/>
      <rect class="cls-3" x="452.4" y="41.14" width="13.71" height="13.71"/>
      <rect class="cls-3" x="438.69" y="27.43" width="13.71" height="13.71"/>
      <rect class="cls-3" x="452.4" y="27.43" width="13.71" height="13.71"/>
      <rect class="cls-3" x="438.69" y="13.71" width="13.71" height="13.71"/>
      <rect class="cls-1" x="27.42" y="164.57" width="13.71" height="13.71"/>
      <rect class="cls-1" x="41.13" y="164.57" width="13.71" height="13.71"/>
      <rect class="cls-1" x="54.84" y="164.57" width="13.71" height="13.71"/>
      <rect class="cls-1" x="68.55" y="164.57" width="13.71" height="13.71"/>
      <rect class="cls-1" x="82.25" y="164.57" width="13.71" height="13.71"/>
      <rect class="cls-1" x="95.96" y="164.57" width="13.71" height="13.71"/>
      <rect class="cls-1" x="109.67" y="164.57" width="13.71" height="13.71"/>
      <rect class="cls-1" x="123.38" y="164.57" width="13.71" height="13.71"/>
      <rect class="cls-1" x="137.09" y="164.57" width="13.71" height="13.71"/>
      <rect class="cls-1" x="150.8" y="164.57" width="13.71" height="13.71"/>
      <rect class="cls-1" x="164.51" y="164.57" width="13.71" height="13.71"/>
      <rect class="cls-1" x="178.22" y="164.57" width="13.71" height="13.71"/>
      <rect class="cls-1" x="191.93" y="164.57" width="13.71" height="13.71"/>
      <rect class="cls-1" x="205.64" y="164.57" width="13.71" height="13.71"/>
      <rect class="cls-1" x="219.35" y="164.57" width="13.71" height="13.71"/>
      <rect class="cls-1" x="233.05" y="164.57" width="13.71" height="13.71"/>
      <rect class="cls-1" x="246.76" y="164.57" width="13.71" height="13.71"/>
      <rect class="cls-1" x="260.47" y="164.57" width="13.71" height="13.71"/>
      <rect class="cls-1" x="274.18" y="164.57" width="13.71" height="13.71"/>
      <rect class="cls-1" x="287.89" y="164.57" width="13.71" height="13.71"/>
      <rect class="cls-1" x="301.6" y="164.57" width="13.71" height="13.71"/>
      <rect class="cls-1" x="315.31" y="164.57" width="13.71" height="13.71"/>
      <rect class="cls-1" x="329.02" y="164.57" width="13.71" height="13.71"/>
      <rect class="cls-1" x="342.73" y="164.57" width="13.71" height="13.71"/>
      <rect class="cls-1" x="356.44" y="164.57" width="13.71" height="13.71"/>
      <rect class="cls-1" x="370.15" y="164.57" width="13.71" height="13.71"/>
      <rect class="cls-1" x="383.85" y="164.57" width="13.71" height="13.71"/>
      <rect class="cls-1" x="397.56" y="164.57" width="13.71" height="13.71"/>
      <rect class="cls-1" x="411.27" y="164.57" width="13.71" height="13.71"/>
      <rect class="cls-1" x="424.98" y="164.57" width="13.71" height="13.71"/>
      <rect class="cls-1" x="438.69" y="164.57" width="13.71" height="13.71"/>
      <rect class="cls-1" x="452.4" y="164.57" width="13.71" height="13.71"/>
      <rect class="cls-1" x="13.71" y="150.86" width="13.71" height="13.71"/>
      <rect class="cls-1" x="27.42" y="150.86" width="13.71" height="13.71"/>
      <rect class="cls-1" x="82.25" y="150.86" width="13.71" height="13.71"/>
      <rect class="cls-1" x="95.96" y="150.86" width="13.71" height="13.71"/>
      <rect class="cls-1" x="109.67" y="150.86" width="13.71" height="13.71"/>
      <rect class="cls-1" x="123.38" y="150.86" width="13.71" height="13.71"/>
      <rect class="cls-1" x="137.09" y="150.86" width="13.71" height="13.71"/>
      <rect class="cls-1" x="150.8" y="150.86" width="13.71" height="13.71"/>
      <rect class="cls-1" x="164.51" y="150.86" width="13.71" height="13.71"/>
      <rect class="cls-1" x="178.22" y="150.86" width="13.71" height="13.71"/>
      <rect class="cls-1" x="191.93" y="150.86" width="13.71" height="13.71"/>
      <rect class="cls-1" x="205.64" y="150.86" width="13.71" height="13.71"/>
      <rect class="cls-1" x="219.35" y="150.86" width="13.71" height="13.71"/>
      <rect class="cls-1" x="233.05" y="150.86" width="13.71" height="13.71"/>
      <rect class="cls-1" x="246.76" y="150.86" width="13.71" height="13.71"/>
      <rect class="cls-1" x="260.47" y="150.86" width="13.71" height="13.71"/>
      <rect class="cls-1" x="274.18" y="150.86" width="13.71" height="13.71"/>
      <rect class="cls-1" x="287.89" y="150.86" width="13.71" height="13.71"/>
      <rect class="cls-1" x="301.6" y="150.86" width="13.71" height="13.71"/>
      <rect class="cls-1" x="315.31" y="150.86" width="13.71" height="13.71"/>
      <rect class="cls-1" x="329.02" y="150.86" width="13.71" height="13.71"/>
      <rect class="cls-1" x="342.73" y="150.86" width="13.71" height="13.71"/>
      <rect class="cls-1" x="356.44" y="150.86" width="13.71" height="13.71"/>
      <rect class="cls-1" x="370.15" y="150.86" width="13.71" height="13.71"/>
      <rect class="cls-1" x="383.85" y="150.86" width="13.71" height="13.71"/>
      <rect class="cls-1" x="397.56" y="150.86" width="13.71" height="13.71"/>
      <rect class="cls-1" x="411.27" y="150.86" width="13.71" height="13.71"/>
      <rect class="cls-1" x="424.98" y="150.86" width="13.71" height="13.71"/>
      <rect class="cls-1" x="438.69" y="150.86" width="13.71" height="13.71"/>
      <rect class="cls-1" x="452.4" y="150.86" width="13.71" height="13.71"/>
      <rect class="cls-1" x="466.11" y="150.86" width="13.71" height="13.71"/>
      <rect class="cls-1" x="479.82" y="150.86" width="13.71" height="13.71"/>
      <rect class="cls-1" x="0" y="137.14" width="13.71" height="13.71"/>
      <rect class="cls-1" x="13.71" y="137.14" width="13.71" height="13.71"/>
      <rect class="cls-1" x="68.55" y="137.14" width="13.71" height="13.71"/>
      <rect class="cls-1" x="82.25" y="137.14" width="13.71" height="13.71"/>
      <rect class="cls-1" x="95.96" y="137.14" width="13.71" height="13.71"/>
      <rect class="cls-1" x="109.67" y="137.14" width="13.71" height="13.71"/>
      <rect class="cls-1" x="123.38" y="137.14" width="13.71" height="13.71"/>
      <rect class="cls-1" x="137.09" y="137.14" width="13.71" height="13.71"/>
      <rect class="cls-1" x="150.8" y="137.14" width="13.71" height="13.71"/>
      <rect class="cls-1" x="164.51" y="137.14" width="13.71" height="13.71"/>
      <rect class="cls-1" x="178.22" y="137.14" width="13.71" height="13.71"/>
      <rect class="cls-1" x="191.93" y="137.14" width="13.71" height="13.71"/>
      <rect class="cls-1" x="205.64" y="137.14" width="13.71" height="13.71"/>
      <rect class="cls-1" x="219.35" y="137.14" width="13.71" height="13.71"/>
      <rect class="cls-1" x="233.05" y="137.14" width="13.71" height="13.71"/>
      <rect class="cls-1" x="246.76" y="137.14" width="13.71" height="13.71"/>
      <rect class="cls-1" x="260.47" y="137.14" width="13.71" height="13.71"/>
      <rect class="cls-1" x="274.18" y="137.14" width="13.71" height="13.71"/>
      <rect class="cls-1" x="287.89" y="137.14" width="13.71" height="13.71"/>
      <rect class="cls-1" x="301.6" y="137.14" width="13.71" height="13.71"/>
      <rect class="cls-1" x="315.31" y="137.14" width="13.71" height="13.71"/>
      <rect class="cls-1" x="329.02" y="137.14" width="13.71" height="13.71"/>
      <rect class="cls-1" x="342.73" y="137.14" width="13.71" height="13.71"/>
      <rect class="cls-1" x="356.44" y="137.14" width="13.71" height="13.71"/>
      <rect class="cls-1" x="370.15" y="137.14" width="13.71" height="13.71"/>
      <rect class="cls-1" x="383.85" y="137.14" width="13.71" height="13.71"/>
      <rect class="cls-1" x="397.56" y="137.14" width="13.71" height="13.71"/>
      <rect class="cls-1" x="411.27" y="137.14" width="13.71" height="13.71"/>
      <rect class="cls-1" x="424.98" y="137.14" width="13.71" height="13.71"/>
      <rect class="cls-1" x="438.69" y="137.14" width="13.71" height="13.71"/>
      <rect class="cls-1" x="452.4" y="137.14" width="13.71" height="13.71"/>
      <rect class="cls-1" x="466.11" y="137.14" width="13.71" height="13.71"/>
      <rect class="cls-1" x="479.82" y="137.14" width="13.71" height="13.71"/>
      <rect class="cls-1" x="493.53" y="137.14" width="13.71" height="13.71"/>
      <rect class="cls-1" x="0" y="123.43" width="13.71" height="13.71"/>
      <rect class="cls-1" x="13.71" y="123.43" width="13.71" height="13.71"/>
      <rect class="cls-1" x="68.55" y="123.43" width="13.71" height="13.71"/>
      <rect class="cls-1" x="82.25" y="123.43" width="13.71" height="13.71"/>
      <rect class="cls-1" x="95.96" y="123.43" width="13.71" height="13.71"/>
      <rect class="cls-1" x="109.67" y="123.43" width="13.71" height="13.71"/>
      <rect class="cls-1" x="123.38" y="123.43" width="13.71" height="13.71"/>
      <rect class="cls-1" x="137.09" y="123.43" width="13.71" height="13.71"/>
      <rect class="cls-1" x="150.8" y="123.43" width="13.71" height="13.71"/>
      <rect class="cls-1" x="164.51" y="123.43" width="13.71" height="13.71"/>
      <rect class="cls-1" x="178.22" y="123.43" width="13.71" height="13.71"/>
      <rect class="cls-1" x="191.93" y="123.43" width="13.71" height="13.71"/>
      <rect class="cls-1" x="205.64" y="123.43" width="13.71" height="13.71"/>
      <rect class="cls-1" x="219.35" y="123.43" width="13.71" height="13.71"/>
      <rect class="cls-1" x="233.05" y="123.43" width="13.71" height="13.71"/>
      <rect class="cls-1" x="246.76" y="123.43" width="13.71" height="13.71"/>
      <rect class="cls-1" x="260.47" y="123.43" width="13.71" height="13.71"/>
      <rect class="cls-1" x="274.18" y="123.43" width="13.71" height="13.71"/>
      <rect class="cls-1" x="287.89" y="123.43" width="13.71" height="13.71"/>
      <rect class="cls-1" x="301.6" y="123.43" width="13.71" height="13.71"/>
      <rect class="cls-1" x="315.31" y="123.43" width="13.71" height="13.71"/>
      <rect class="cls-1" x="329.02" y="123.43" width="13.71" height="13.71"/>
      <rect class="cls-1" x="342.73" y="123.43" width="13.71" height="13.71"/>
      <rect class="cls-1" x="356.44" y="123.43" width="13.71" height="13.71"/>
      <rect class="cls-1" x="370.15" y="123.43" width="13.71" height="13.71"/>
      <rect class="cls-1" x="383.85" y="123.43" width="13.71" height="13.71"/>
      <rect class="cls-1" x="397.56" y="123.43" width="13.71" height="13.71"/>
      <rect class="cls-1" x="411.27" y="123.43" width="13.71" height="13.71"/>
      <rect class="cls-1" x="424.98" y="123.43" width="13.71" height="13.71"/>
      <rect class="cls-1" x="438.69" y="123.43" width="13.71" height="13.71"/>
      <rect class="cls-1" x="452.4" y="123.43" width="13.71" height="13.71"/>
      <rect class="cls-1" x="466.11" y="123.43" width="13.71" height="13.71"/>
      <rect class="cls-1" x="479.82" y="123.43" width="13.71" height="13.71"/>
      <rect class="cls-1" x="493.53" y="123.43" width="13.71" height="13.71"/>
      <rect class="cls-1" x="0" y="109.71" width="13.71" height="13.71"/>
      <rect class="cls-1" x="13.71" y="109.71" width="13.71" height="13.71"/>
      <rect class="cls-1" x="41.13" y="109.71" width="13.71" height="13.71"/>
      <rect class="cls-1" x="54.84" y="109.71" width="13.71" height="13.71"/>
      <rect class="cls-1" x="68.55" y="109.71" width="13.71" height="13.71"/>
      <rect class="cls-1" x="82.25" y="109.71" width="13.71" height="13.71"/>
      <rect class="cls-1" x="95.96" y="109.71" width="13.71" height="13.71"/>
      <rect class="cls-1" x="109.67" y="109.71" width="13.71" height="13.71"/>
      <rect class="cls-1" x="123.38" y="109.71" width="13.71" height="13.71"/>
      <rect class="cls-1" x="137.09" y="109.71" width="13.71" height="13.71"/>
      <rect class="cls-1" x="150.8" y="109.71" width="13.71" height="13.71"/>
      <rect class="cls-1" x="164.51" y="109.71" width="13.71" height="13.71"/>
      <rect class="cls-1" x="178.22" y="109.71" width="13.71" height="13.71"/>
      <rect class="cls-1" x="191.93" y="109.71" width="13.71" height="13.71"/>
      <rect class="cls-1" x="205.64" y="109.71" width="13.71" height="13.71"/>
      <rect class="cls-1" x="219.35" y="109.71" width="13.71" height="13.71"/>
      <rect class="cls-1" x="233.05" y="109.71" width="13.71" height="13.71"/>
      <rect class="cls-1" x="246.76" y="109.71" width="13.71" height="13.71"/>
      <rect class="cls-1" x="260.47" y="109.71" width="13.71" height="13.71"/>
      <rect class="cls-1" x="274.18" y="109.71" width="13.71" height="13.71"/>
      <rect class="cls-1" x="287.89" y="109.71" width="13.71" height="13.71"/>
      <rect class="cls-1" x="301.6" y="109.71" width="13.71" height="13.71"/>
      <rect class="cls-1" x="315.31" y="109.71" width="13.71" height="13.71"/>
      <rect class="cls-1" x="329.02" y="109.71" width="13.71" height="13.71"/>
      <rect class="cls-1" x="342.73" y="109.71" width="13.71" height="13.71"/>
      <rect class="cls-1" x="356.44" y="109.71" width="13.71" height="13.71"/>
      <rect class="cls-1" x="370.15" y="109.71" width="13.71" height="13.71"/>
      <rect class="cls-1" x="383.85" y="109.71" width="13.71" height="13.71"/>
      <rect class="cls-1" x="397.56" y="109.71" width="13.71" height="13.71"/>
      <rect class="cls-1" x="411.27" y="109.71" width="13.71" height="13.71"/>
      <rect class="cls-1" x="424.98" y="109.71" width="13.71" height="13.71"/>
      <rect class="cls-1" x="438.69" y="109.71" width="13.71" height="13.71"/>
      <rect class="cls-1" x="452.4" y="109.71" width="13.71" height="13.71"/>
      <rect class="cls-1" x="466.11" y="109.71" width="13.71" height="13.71"/>
      <rect class="cls-1" x="479.82" y="109.71" width="13.71" height="13.71"/>
      <rect class="cls-1" x="493.53" y="109.71" width="13.71" height="13.71"/>
      <rect class="cls-1" x="0" y="96" width="13.71" height="13.71"/>
      <rect class="cls-1" x="13.71" y="96" width="13.71" height="13.71"/>
      <rect class="cls-1" x="41.13" y="96" width="13.71" height="13.71"/>
      <rect class="cls-1" x="54.84" y="96" width="13.71" height="13.71"/>
      <rect class="cls-1" x="68.55" y="96" width="13.71" height="13.71"/>
      <rect class="cls-1" x="82.25" y="96" width="13.71" height="13.71"/>
      <rect class="cls-1" x="95.96" y="96" width="13.71" height="13.71"/>
      <rect class="cls-1" x="109.67" y="96" width="13.71" height="13.71"/>
      <rect class="cls-1" x="123.38" y="96" width="13.71" height="13.71"/>
      <rect class="cls-1" x="137.09" y="96" width="13.71" height="13.71"/>
      <rect class="cls-1" x="150.8" y="96" width="13.71" height="13.71"/>
      <rect class="cls-1" x="164.51" y="96" width="13.71" height="13.71"/>
      <rect class="cls-1" x="178.22" y="96" width="13.71" height="13.71"/>
      <rect class="cls-1" x="191.93" y="96" width="13.71" height="13.71"/>
      <rect class="cls-1" x="205.64" y="96" width="13.71" height="13.71"/>
      <rect class="cls-1" x="219.35" y="96" width="13.71" height="13.71"/>
      <rect class="cls-1" x="233.05" y="96" width="13.71" height="13.71"/>
      <rect class="cls-1" x="246.76" y="96" width="13.71" height="13.71"/>
      <rect class="cls-1" x="260.47" y="96" width="13.71" height="13.71"/>
      <rect class="cls-1" x="274.18" y="96" width="13.71" height="13.71"/>
      <rect class="cls-1" x="287.89" y="96" width="13.71" height="13.71"/>
      <rect class="cls-1" x="301.6" y="96" width="13.71" height="13.71"/>
      <rect class="cls-1" x="315.31" y="96" width="13.71" height="13.71"/>
      <rect class="cls-1" x="329.02" y="96" width="13.71" height="13.71"/>
      <rect class="cls-1" x="342.73" y="96" width="13.71" height="13.71"/>
      <rect class="cls-1" x="356.44" y="96" width="13.71" height="13.71"/>
      <rect class="cls-1" x="370.15" y="96" width="13.71" height="13.71"/>
      <rect class="cls-1" x="383.85" y="96" width="13.71" height="13.71"/>
      <rect class="cls-1" x="397.56" y="96" width="13.71" height="13.71"/>
      <rect class="cls-1" x="411.27" y="96" width="13.71" height="13.71"/>
      <rect class="cls-1" x="424.98" y="96" width="13.71" height="13.71"/>
      <rect class="cls-1" x="438.69" y="96" width="13.71" height="13.71"/>
      <rect class="cls-1" x="466.11" y="96" width="13.71" height="13.71"/>
      <rect class="cls-1" x="479.82" y="96" width="13.71" height="13.71"/>
      <rect class="cls-1" x="493.53" y="96" width="13.71" height="13.71"/>
      <rect class="cls-1" x="0" y="82.29" width="13.71" height="13.71"/>
      <rect class="cls-1" x="13.71" y="82.29" width="13.71" height="13.71"/>
      <rect class="cls-1" x="27.42" y="82.29" width="13.71" height="13.71"/>
      <rect class="cls-1" x="41.13" y="82.29" width="13.71" height="13.71"/>
      <rect class="cls-1" x="54.84" y="82.29" width="13.71" height="13.71"/>
      <rect class="cls-1" x="68.55" y="82.29" width="13.71" height="13.71"/>
      <rect class="cls-1" x="82.25" y="82.29" width="13.71" height="13.71"/>
      <rect class="cls-1" x="95.96" y="82.29" width="13.71" height="13.71"/>
      <rect class="cls-1" x="109.67" y="82.29" width="13.71" height="13.71"/>
      <rect class="cls-1" x="123.38" y="82.29" width="13.71" height="13.71"/>
      <rect class="cls-1" x="137.09" y="82.29" width="13.71" height="13.71"/>
      <rect class="cls-1" x="150.8" y="82.29" width="13.71" height="13.71"/>
      <rect class="cls-1" x="164.51" y="82.29" width="13.71" height="13.71"/>
      <rect class="cls-1" x="178.22" y="82.29" width="13.71" height="13.71"/>
      <rect class="cls-1" x="191.93" y="82.29" width="13.71" height="13.71"/>
      <rect class="cls-1" x="205.64" y="82.29" width="13.71" height="13.71"/>
      <rect class="cls-1" x="219.35" y="82.29" width="13.71" height="13.71"/>
      <rect class="cls-1" x="233.05" y="82.29" width="13.71" height="13.71"/>
      <rect class="cls-1" x="246.76" y="82.29" width="13.71" height="13.71"/>
      <rect class="cls-1" x="260.47" y="82.29" width="13.71" height="13.71"/>
      <rect class="cls-1" x="274.18" y="82.29" width="13.71" height="13.71"/>
      <rect class="cls-1" x="287.89" y="82.29" width="13.71" height="13.71"/>
      <rect class="cls-1" x="301.6" y="82.29" width="13.71" height="13.71"/>
      <rect class="cls-1" x="315.31" y="82.29" width="13.71" height="13.71"/>
      <rect class="cls-1" x="329.02" y="82.29" width="13.71" height="13.71"/>
      <rect class="cls-1" x="342.73" y="82.29" width="13.71" height="13.71"/>
      <rect class="cls-1" x="356.44" y="82.29" width="13.71" height="13.71"/>
      <rect class="cls-1" x="370.15" y="82.29" width="13.71" height="13.71"/>
      <rect class="cls-1" x="383.85" y="82.29" width="13.71" height="13.71"/>
      <rect class="cls-1" x="397.56" y="82.29" width="13.71" height="13.71"/>
      <rect class="cls-1" x="411.27" y="82.29" width="13.71" height="13.71"/>
      <rect class="cls-1" x="424.98" y="82.29" width="13.71" height="13.71"/>
      <rect class="cls-1" x="438.69" y="82.29" width="13.71" height="13.71"/>
      <rect class="cls-1" x="452.4" y="82.29" width="13.71" height="13.71"/>
      <rect class="cls-1" x="466.11" y="82.29" width="13.71" height="13.71"/>
      <rect class="cls-1" x="479.82" y="82.29" width="13.71" height="13.71"/>
      <rect class="cls-1" x="493.53" y="82.29" width="13.71" height="13.71"/>
      <rect class="cls-1" x="0" y="68.57" width="13.71" height="13.71"/>
      <rect class="cls-1" x="13.71" y="68.57" width="13.71" height="13.71"/>
      <rect class="cls-1" x="27.42" y="68.57" width="13.71" height="13.71"/>
      <rect class="cls-1" x="41.13" y="68.57" width="13.71" height="13.71"/>
      <rect class="cls-1" x="54.84" y="68.57" width="13.71" height="13.71"/>
      <rect class="cls-1" x="68.55" y="68.57" width="13.71" height="13.71"/>
      <rect class="cls-1" x="82.25" y="68.57" width="13.71" height="13.71"/>
      <rect class="cls-1" x="95.96" y="68.57" width="13.71" height="13.71"/>
      <rect class="cls-1" x="109.67" y="68.57" width="13.71" height="13.71"/>
      <rect class="cls-1" x="123.38" y="68.57" width="13.71" height="13.71"/>
      <rect class="cls-1" x="137.09" y="68.57" width="13.71" height="13.71"/>
      <rect class="cls-1" x="150.8" y="68.57" width="13.71" height="13.71"/>
      <rect class="cls-1" x="164.51" y="68.57" width="13.71" height="13.71"/>
      <rect class="cls-1" x="178.22" y="68.57" width="13.71" height="13.71"/>
      <rect class="cls-1" x="191.93" y="68.57" width="13.71" height="13.71"/>
      <rect class="cls-1" x="205.64" y="68.57" width="13.71" height="13.71"/>
      <rect class="cls-1" x="219.35" y="68.57" width="13.71" height="13.71"/>
      <rect class="cls-1" x="233.05" y="68.57" width="13.71" height="13.71"/>
      <rect class="cls-1" x="246.76" y="68.57" width="13.71" height="13.71"/>
      <rect class="cls-1" x="260.47" y="68.57" width="13.71" height="13.71"/>
      <rect class="cls-1" x="274.18" y="68.57" width="13.71" height="13.71"/>
      <rect class="cls-1" x="287.89" y="68.57" width="13.71" height="13.71"/>
      <rect class="cls-1" x="301.6" y="68.57" width="13.71" height="13.71"/>
      <rect class="cls-1" x="315.31" y="68.57" width="13.71" height="13.71"/>
      <rect class="cls-1" x="329.02" y="68.57" width="13.71" height="13.71"/>
      <rect class="cls-1" x="342.73" y="68.57" width="13.71" height="13.71"/>
      <rect class="cls-1" x="356.44" y="68.57" width="13.71" height="13.71"/>
      <rect class="cls-1" x="370.15" y="68.57" width="13.71" height="13.71"/>
      <rect class="cls-1" x="383.85" y="68.57" width="13.71" height="13.71"/>
      <rect class="cls-1" x="397.56" y="68.57" width="13.71" height="13.71"/>
      <rect class="cls-1" x="411.27" y="68.57" width="13.71" height="13.71"/>
      <rect class="cls-1" x="424.98" y="68.57" width="13.71" height="13.71"/>
      <rect class="cls-1" x="438.69" y="68.57" width="13.71" height="13.71"/>
      <rect class="cls-1" x="466.11" y="68.57" width="13.71" height="13.71"/>
      <rect class="cls-1" x="479.82" y="68.57" width="13.71" height="13.71"/>
      <rect class="cls-1" x="493.53" y="68.57" width="13.71" height="13.71"/>
      <rect class="cls-1" x="0" y="54.86" width="13.71" height="13.71"/>
      <rect class="cls-1" x="13.71" y="54.86" width="13.71" height="13.71"/>
      <rect class="cls-1" x="27.42" y="54.86" width="13.71" height="13.71"/>
      <rect class="cls-1" x="41.13" y="54.86" width="13.71" height="13.71"/>
      <rect class="cls-1" x="54.84" y="54.86" width="13.71" height="13.71"/>
      <rect class="cls-1" x="68.55" y="54.86" width="13.71" height="13.71"/>
      <rect class="cls-1" x="82.25" y="54.86" width="13.71" height="13.71"/>
      <rect class="cls-1" x="95.96" y="54.86" width="13.71" height="13.71"/>
      <rect class="cls-1" x="109.67" y="54.86" width="13.71" height="13.71"/>
      <rect class="cls-1" x="123.38" y="54.86" width="13.71" height="13.71"/>
      <rect class="cls-1" x="137.09" y="54.86" width="13.71" height="13.71"/>
      <rect class="cls-1" x="150.8" y="54.86" width="13.71" height="13.71"/>
      <rect class="cls-1" x="164.51" y="54.86" width="13.71" height="13.71"/>
      <rect class="cls-1" x="178.22" y="54.86" width="13.71" height="13.71"/>
      <rect class="cls-1" x="191.93" y="54.86" width="13.71" height="13.71"/>
      <rect class="cls-1" x="205.64" y="54.86" width="13.71" height="13.71"/>
      <rect class="cls-1" x="219.35" y="54.86" width="13.71" height="13.71"/>
      <rect class="cls-1" x="233.05" y="54.86" width="13.71" height="13.71"/>
      <rect class="cls-1" x="246.76" y="54.86" width="13.71" height="13.71"/>
      <rect class="cls-1" x="260.47" y="54.86" width="13.71" height="13.71"/>
      <rect class="cls-1" x="274.18" y="54.86" width="13.71" height="13.71"/>
      <rect class="cls-1" x="287.89" y="54.86" width="13.71" height="13.71"/>
      <rect class="cls-1" x="301.6" y="54.86" width="13.71" height="13.71"/>
      <rect class="cls-1" x="315.31" y="54.86" width="13.71" height="13.71"/>
      <rect class="cls-1" x="329.02" y="54.86" width="13.71" height="13.71"/>
      <rect class="cls-1" x="342.73" y="54.86" width="13.71" height="13.71"/>
      <rect class="cls-1" x="356.44" y="54.86" width="13.71" height="13.71"/>
      <rect class="cls-1" x="370.15" y="54.86" width="13.71" height="13.71"/>
      <rect class="cls-1" x="383.85" y="54.86" width="13.71" height="13.71"/>
      <rect class="cls-1" x="397.56" y="54.86" width="13.71" height="13.71"/>
      <rect class="cls-1" x="411.27" y="54.86" width="13.71" height="13.71"/>
      <rect class="cls-1" x="424.98" y="54.86" width="13.71" height="13.71"/>
      <rect class="cls-1" x="438.69" y="54.86" width="13.71" height="13.71"/>
      <rect class="cls-1" x="466.11" y="54.86" width="13.71" height="13.71"/>
      <rect class="cls-1" x="479.82" y="54.86" width="13.71" height="13.71"/>
      <rect class="cls-1" x="493.53" y="54.86" width="13.71" height="13.71"/>
      <rect class="cls-1" x="0" y="41.14" width="13.71" height="13.71"/>
      <rect class="cls-1" x="13.71" y="41.14" width="13.71" height="13.71"/>
      <rect class="cls-1" x="27.42" y="41.14" width="13.71" height="13.71"/>
      <rect class="cls-1" x="41.13" y="41.14" width="13.71" height="13.71"/>
      <rect class="cls-1" x="54.84" y="41.14" width="13.71" height="13.71"/>
      <rect class="cls-1" x="68.55" y="41.14" width="13.71" height="13.71"/>
      <rect class="cls-1" x="82.25" y="41.14" width="13.71" height="13.71"/>
      <rect class="cls-1" x="95.96" y="41.14" width="13.71" height="13.71"/>
      <rect class="cls-1" x="109.67" y="41.14" width="13.71" height="13.71"/>
      <rect class="cls-1" x="123.38" y="41.14" width="13.71" height="13.71"/>
      <rect class="cls-1" x="137.09" y="41.14" width="13.71" height="13.71"/>
      <rect class="cls-1" x="150.8" y="41.14" width="13.71" height="13.71"/>
      <rect class="cls-1" x="164.51" y="41.14" width="13.71" height="13.71"/>
      <rect class="cls-1" x="178.22" y="41.14" width="13.71" height="13.71"/>
      <rect class="cls-1" x="191.93" y="41.14" width="13.71" height="13.71"/>
      <rect class="cls-1" x="205.64" y="41.14" width="13.71" height="13.71"/>
      <rect class="cls-1" x="219.35" y="41.14" width="13.71" height="13.71"/>
      <rect class="cls-1" x="233.05" y="41.14" width="13.71" height="13.71"/>
      <rect class="cls-1" x="246.76" y="41.14" width="13.71" height="13.71"/>
      <rect class="cls-1" x="260.47" y="41.14" width="13.71" height="13.71"/>
      <rect class="cls-1" x="274.18" y="41.14" width="13.71" height="13.71"/>
      <rect class="cls-1" x="287.89" y="41.14" width="13.71" height="13.71"/>
      <rect class="cls-1" x="301.6" y="41.14" width="13.71" height="13.71"/>
      <rect class="cls-1" x="315.31" y="41.14" width="13.71" height="13.71"/>
      <rect class="cls-1" x="329.02" y="41.14" width="13.71" height="13.71"/>
      <rect class="cls-1" x="342.73" y="41.14" width="13.71" height="13.71"/>
      <rect class="cls-1" x="356.44" y="41.14" width="13.71" height="13.71"/>
      <rect class="cls-1" x="370.15" y="41.14" width="13.71" height="13.71"/>
      <rect class="cls-1" x="383.85" y="41.14" width="13.71" height="13.71"/>
      <rect class="cls-1" x="397.56" y="41.14" width="13.71" height="13.71"/>
      <rect class="cls-1" x="411.27" y="41.14" width="13.71" height="13.71"/>
      <rect class="cls-1" x="424.98" y="41.14" width="13.71" height="13.71"/>
      <rect class="cls-1" x="466.11" y="41.14" width="13.71" height="13.71"/>
      <rect class="cls-1" x="479.82" y="41.14" width="13.71" height="13.71"/>
      <rect class="cls-1" x="493.53" y="41.14" width="13.71" height="13.71"/>
      <rect class="cls-1" x="0" y="27.43" width="13.71" height="13.71"/>
      <rect class="cls-1" x="13.71" y="27.43" width="13.71" height="13.71"/>
      <rect class="cls-1" x="27.42" y="27.43" width="13.71" height="13.71"/>
      <rect class="cls-1" x="41.13" y="27.43" width="13.71" height="13.71"/>
      <rect class="cls-1" x="54.84" y="27.43" width="13.71" height="13.71"/>
      <rect class="cls-1" x="68.55" y="27.43" width="13.71" height="13.71"/>
      <rect class="cls-1" x="82.25" y="27.43" width="13.71" height="13.71"/>
      <rect class="cls-1" x="95.96" y="27.43" width="13.71" height="13.71"/>
      <rect class="cls-1" x="109.67" y="27.43" width="13.71" height="13.71"/>
      <rect class="cls-1" x="123.38" y="27.43" width="13.71" height="13.71"/>
      <rect class="cls-1" x="137.09" y="27.43" width="13.71" height="13.71"/>
      <rect class="cls-1" x="150.8" y="27.43" width="13.71" height="13.71"/>
      <rect class="cls-1" x="164.51" y="27.43" width="13.71" height="13.71"/>
      <rect class="cls-1" x="178.22" y="27.43" width="13.71" height="13.71"/>
      <rect class="cls-1" x="191.93" y="27.43" width="13.71" height="13.71"/>
      <rect class="cls-1" x="205.64" y="27.43" width="13.71" height="13.71"/>
      <rect class="cls-1" x="219.35" y="27.43" width="13.71" height="13.71"/>
      <rect class="cls-1" x="233.05" y="27.43" width="13.71" height="13.71"/>
      <rect class="cls-1" x="246.76" y="27.43" width="13.71" height="13.71"/>
      <rect class="cls-1" x="260.47" y="27.43" width="13.71" height="13.71"/>
      <rect class="cls-1" x="274.18" y="27.43" width="13.71" height="13.71"/>
      <rect class="cls-1" x="287.89" y="27.43" width="13.71" height="13.71"/>
      <rect class="cls-1" x="301.6" y="27.43" width="13.71" height="13.71"/>
      <rect class="cls-1" x="315.31" y="27.43" width="13.71" height="13.71"/>
      <rect class="cls-1" x="329.02" y="27.43" width="13.71" height="13.71"/>
      <rect class="cls-1" x="342.73" y="27.43" width="13.71" height="13.71"/>
      <rect class="cls-1" x="356.44" y="27.43" width="13.71" height="13.71"/>
      <rect class="cls-1" x="370.15" y="27.43" width="13.71" height="13.71"/>
      <rect class="cls-1" x="383.85" y="27.43" width="13.71" height="13.71"/>
      <rect class="cls-1" x="397.56" y="27.43" width="13.71" height="13.71"/>
      <rect class="cls-1" x="411.27" y="27.43" width="13.71" height="13.71"/>
      <rect class="cls-1" x="424.98" y="27.43" width="13.71" height="13.71"/>
      <rect class="cls-1" x="466.11" y="27.43" width="13.71" height="13.71"/>
      <rect class="cls-1" x="479.82" y="27.43" width="13.71" height="13.71"/>
      <rect class="cls-1" x="493.53" y="27.43" width="13.71" height="13.71"/>
      <rect class="cls-1" x="13.71" y="13.71" width="13.71" height="13.71"/>
      <rect class="cls-1" x="27.42" y="13.71" width="13.71" height="13.71"/>
      <rect class="cls-1" x="41.13" y="13.71" width="13.71" height="13.71"/>
      <rect class="cls-1" x="54.84" y="13.71" width="13.71" height="13.71"/>
      <rect class="cls-1" x="68.55" y="13.71" width="13.71" height="13.71"/>
      <rect class="cls-1" x="82.25" y="13.71" width="13.71" height="13.71"/>
      <rect class="cls-1" x="95.96" y="13.71" width="13.71" height="13.71"/>
      <rect class="cls-1" x="109.67" y="13.71" width="13.71" height="13.71"/>
      <rect class="cls-1" x="123.38" y="13.71" width="13.71" height="13.71"/>
      <rect class="cls-1" x="137.09" y="13.71" width="13.71" height="13.71"/>
      <rect class="cls-1" x="150.8" y="13.71" width="13.71" height="13.71"/>
      <rect class="cls-1" x="164.51" y="13.71" width="13.71" height="13.71"/>
      <rect class="cls-1" x="178.22" y="13.71" width="13.71" height="13.71"/>
      <rect class="cls-1" x="191.93" y="13.71" width="13.71" height="13.71"/>
      <rect class="cls-1" x="205.64" y="13.71" width="13.71" height="13.71"/>
      <rect class="cls-1" x="219.35" y="13.71" width="13.71" height="13.71"/>
      <rect class="cls-1" x="233.05" y="13.71" width="13.71" height="13.71"/>
      <rect class="cls-1" x="246.76" y="13.71" width="13.71" height="13.71"/>
      <rect class="cls-1" x="260.47" y="13.71" width="13.71" height="13.71"/>
      <rect class="cls-1" x="274.18" y="13.71" width="13.71" height="13.71"/>
      <rect class="cls-1" x="287.89" y="13.71" width="13.71" height="13.71"/>
      <rect class="cls-1" x="301.6" y="13.71" width="13.71" height="13.71"/>
      <rect class="cls-1" x="315.31" y="13.71" width="13.71" height="13.71"/>
      <rect class="cls-1" x="329.02" y="13.71" width="13.71" height="13.71"/>
      <rect class="cls-1" x="342.73" y="13.71" width="13.71" height="13.71"/>
      <rect class="cls-1" x="356.44" y="13.71" width="13.71" height="13.71"/>
      <rect class="cls-1" x="370.15" y="13.71" width="13.71" height="13.71"/>
      <rect class="cls-1" x="383.85" y="13.71" width="13.71" height="13.71"/>
      <rect class="cls-1" x="397.56" y="13.71" width="13.71" height="13.71"/>
      <rect class="cls-1" x="411.27" y="13.71" width="13.71" height="13.71"/>
      <rect class="cls-1" x="424.98" y="13.71" width="13.71" height="13.71"/>
      <rect class="cls-1" x="452.4" y="13.71" width="13.71" height="13.71"/>
      <rect class="cls-1" x="466.11" y="13.71" width="13.71" height="13.71"/>
      <rect class="cls-1" x="479.82" y="13.71" width="13.71" height="13.71"/>
      <rect class="cls-1" x="27.42" y="0" width="13.71" height="13.71"/>
      <rect class="cls-1" x="41.13" y="0" width="13.71" height="13.71"/>
      <rect class="cls-1" x="54.84" y="0" width="13.71" height="13.71"/>
      <rect class="cls-1" x="68.55" y="0" width="13.71" height="13.71"/>
      <rect class="cls-1" x="82.25" y="0" width="13.71" height="13.71"/>
      <rect class="cls-1" x="95.96" y="0" width="13.71" height="13.71"/>
      <rect class="cls-1" x="109.67" y="0" width="13.71" height="13.71"/>
      <rect class="cls-1" x="123.38" y="0" width="13.71" height="13.71"/>
      <rect class="cls-1" x="137.09" y="0" width="13.71" height="13.71"/>
      <rect class="cls-1" x="150.8" y="0" width="13.71" height="13.71"/>
      <rect class="cls-1" x="164.51" y="0" width="13.71" height="13.71"/>
      <rect class="cls-1" x="178.22" y="0" width="13.71" height="13.71"/>
      <rect class="cls-1" x="191.93" y="0" width="13.71" height="13.71"/>
      <rect class="cls-1" x="205.64" y="0" width="13.71" height="13.71"/>
      <rect class="cls-1" x="219.35" y="0" width="13.71" height="13.71"/>
      <rect class="cls-1" x="233.05" y="0" width="13.71" height="13.71"/>
      <rect class="cls-1" x="246.76" y="0" width="13.71" height="13.71"/>
      <rect class="cls-1" x="260.47" y="0" width="13.71" height="13.71"/>
      <rect class="cls-1" x="274.18" y="0" width="13.71" height="13.71"/>
      <rect class="cls-1" x="287.89" y="0" width="13.71" height="13.71"/>
      <rect class="cls-1" x="301.6" y="0" width="13.71" height="13.71"/>
      <rect class="cls-1" x="315.31" y="0" width="13.71" height="13.71"/>
      <rect class="cls-1" x="329.02" y="0" width="13.71" height="13.71"/>
      <rect class="cls-1" x="342.73" y="0" width="13.71" height="13.71"/>
      <rect class="cls-1" x="356.44" y="0" width="13.71" height="13.71"/>
      <rect class="cls-1" x="370.15" y="0" width="13.71" height="13.71"/>
      <rect class="cls-1" x="383.85" y="0" width="13.71" height="13.71"/>
      <rect class="cls-1" x="397.56" y="0" width="13.71" height="13.71"/>
      <rect class="cls-1" x="411.27" y="0" width="13.71" height="13.71"/>
      <rect class="cls-1" x="424.98" y="0" width="13.71" height="13.71"/>
      <rect class="cls-1" x="438.69" y="0" width="13.71" height="13.71"/>
      <rect class="cls-1" x="452.4" y="0" width="13.71" height="13.71"/>
      <rect class="cls-1" x="466.11" y="0" width="13.71" height="13.71"/>
    </g>
  </g>
</svg>