<?xml version="1.0" encoding="UTF-8"?>
<svg shape-rendering="crispEdges" id="Layer_2" data-name="Layer 2" xmlns="http://www.w3.org/2000/svg" viewBox="0 0 555.75 161.75">
  <defs>
    <style>
      .cls-1 {
        fill: #c9daf8;
      }
    </style>
  </defs>
  <g id="Layer_1-2" data-name="Layer 1">
    <g>
      <rect class="cls-1" x="544.18" y="150.2" width="11.58" height="11.55"/>
      <rect class="cls-1" y="150.2" width="11.58" height="11.55"/>
      <rect class="cls-1" x="544.18" y="138.65" width="11.58" height="11.55"/>
      <rect class="cls-1" y="138.65" width="11.58" height="11.55"/>
      <rect class="cls-1" x="544.18" y="127.09" width="11.58" height="11.55"/>
      <rect class="cls-1" y="127.09" width="11.58" height="11.55"/>
      <rect class="cls-1" x="544.18" y="115.54" width="11.58" height="11.55"/>
      <rect class="cls-1" y="115.54" width="11.58" height="11.55"/>
      <rect class="cls-1" x="544.18" y="103.98" width="11.58" height="11.55"/>
      <rect class="cls-1" y="103.98" width="11.58" height="11.55"/>
      <rect class="cls-1" x="544.18" y="92.43" width="11.58" height="11.55"/>
      <rect class="cls-1" y="92.43" width="11.58" height="11.55"/>
      <rect class="cls-1" x="544.18" y="80.88" width="11.58" height="11.55"/>
      <rect class="cls-1" y="80.88" width="11.58" height="11.55"/>
      <rect class="cls-1" x="544.18" y="69.32" width="11.58" height="11.55"/>
      <rect class="cls-1" y="69.32" width="11.58" height="11.55"/>
      <rect class="cls-1" x="544.18" y="57.77" width="11.58" height="11.55"/>
      <rect class="cls-1" y="57.77" width="11.58" height="11.55"/>
      <rect class="cls-1" x="544.18" y="46.22" width="11.58" height="11.55"/>
      <rect class="cls-1" y="46.22" width="11.58" height="11.55"/>
      <rect class="cls-1" x="544.18" y="34.66" width="11.58" height="11.55"/>
      <rect class="cls-1" y="34.66" width="11.58" height="11.55"/>
      <rect class="cls-1" x="544.18" y="23.11" width="11.58" height="11.55"/>
      <rect class="cls-1" y="23.11" width="11.58" height="11.55"/>
      <rect class="cls-1" x="532.6" y="11.55" width="11.58" height="11.55"/>
      <rect class="cls-1" x="11.58" y="11.55" width="11.58" height="11.55"/>
      <rect class="cls-1" x="521.02" width="11.58" height="11.55"/>
      <rect class="cls-1" x="509.44" width="11.58" height="11.55"/>
      <rect class="cls-1" x="497.86" width="11.58" height="11.55"/>
      <rect class="cls-1" x="486.29" width="11.58" height="11.55"/>
      <rect class="cls-1" x="474.71" width="11.58" height="11.55"/>
      <rect class="cls-1" x="463.13" width="11.58" height="11.55"/>
      <rect class="cls-1" x="451.55" width="11.58" height="11.55"/>
      <rect class="cls-1" x="439.97" width="11.58" height="11.55"/>
      <rect class="cls-1" x="428.39" width="11.58" height="11.55"/>
      <rect class="cls-1" x="416.82" width="11.58" height="11.55"/>
      <rect class="cls-1" x="405.24" width="11.58" height="11.55"/>
      <rect class="cls-1" x="393.66" width="11.58" height="11.55"/>
      <rect class="cls-1" x="382.08" width="11.58" height="11.55"/>
      <rect class="cls-1" x="370.5" width="11.58" height="11.55"/>
      <rect class="cls-1" x="358.92" width="11.58" height="11.55"/>
      <rect class="cls-1" x="347.35" width="11.58" height="11.55"/>
      <rect class="cls-1" x="335.77" width="11.58" height="11.55"/>
      <rect class="cls-1" x="324.19" width="11.58" height="11.55"/>
      <rect class="cls-1" x="312.61" width="11.58" height="11.55"/>
      <rect class="cls-1" x="301.03" width="11.58" height="11.55"/>
      <rect class="cls-1" x="289.46" width="11.58" height="11.55"/>
      <rect class="cls-1" x="277.88" width="11.58" height="11.55"/>
      <rect class="cls-1" x="266.3" width="11.58" height="11.55"/>
      <rect class="cls-1" x="254.72" width="11.58" height="11.55"/>
      <rect class="cls-1" x="243.14" width="11.58" height="11.55"/>
      <rect class="cls-1" x="231.56" width="11.58" height="11.55"/>
      <rect class="cls-1" x="219.99" width="11.58" height="11.55"/>
      <rect class="cls-1" x="208.41" width="11.58" height="11.55"/>
      <rect class="cls-1" x="196.83" width="11.58" height="11.55"/>
      <rect class="cls-1" x="185.25" width="11.58" height="11.55"/>
      <rect class="cls-1" x="173.67" width="11.58" height="11.55"/>
      <rect class="cls-1" x="162.1" width="11.58" height="11.55"/>
      <rect class="cls-1" x="150.52" width="11.58" height="11.55"/>
      <rect class="cls-1" x="138.94" width="11.58" height="11.55"/>
      <rect class="cls-1" x="127.36" width="11.58" height="11.55"/>
      <rect class="cls-1" x="115.78" width="11.58" height="11.55"/>
      <rect class="cls-1" x="104.2" width="11.58" height="11.55"/>
      <rect class="cls-1" x="92.63" width="11.58" height="11.55"/>
      <rect class="cls-1" x="81.05" width="11.58" height="11.55"/>
      <rect class="cls-1" x="69.47" width="11.58" height="11.55"/>
      <rect class="cls-1" x="57.89" width="11.58" height="11.55"/>
      <rect class="cls-1" x="46.31" width="11.58" height="11.55"/>
      <rect class="cls-1" x="34.73" width="11.58" height="11.55"/>
      <rect class="cls-1" x="23.16" width="11.58" height="11.55"/>
    </g>
  </g>
</svg>