<?xml version="1.0" encoding="UTF-8"?>
<svg shape-rendering="crispEdges" id="Layer_2" data-name="Layer 2" xmlns="http://www.w3.org/2000/svg" viewBox="0 0 1301.22 174.83">
  <defs>
    <style>
      .cls-1 {
        fill: #c9daf8;
      }
    </style>
  </defs>
  <g id="Layer_1-2" data-name="Layer 1">
    <g>
      <rect class="cls-1" x="1248.11" y="166.09" width="8.85" height="8.74"/>
      <rect class="cls-1" x="1239.26" y="166.09" width="8.85" height="8.74"/>
      <rect class="cls-1" x="1230.4" y="166.09" width="8.85" height="8.74"/>
      <rect class="cls-1" x="1221.55" y="166.09" width="8.85" height="8.74"/>
      <rect class="cls-1" x="1212.7" y="166.09" width="8.85" height="8.74"/>
      <rect class="cls-1" x="1203.85" y="166.09" width="8.85" height="8.74"/>
      <rect class="cls-1" x="1195" y="166.09" width="8.85" height="8.74"/>
      <rect class="cls-1" x="1186.14" y="166.09" width="8.85" height="8.74"/>
      <rect class="cls-1" x="1177.29" y="166.09" width="8.85" height="8.74"/>
      <rect class="cls-1" x="1168.44" y="166.09" width="8.85" height="8.74"/>
      <rect class="cls-1" x="1159.59" y="166.09" width="8.85" height="8.74"/>
      <rect class="cls-1" x="1150.74" y="166.09" width="8.85" height="8.74"/>
      <rect class="cls-1" x="1141.89" y="166.09" width="8.85" height="8.74"/>
      <rect class="cls-1" x="1133.03" y="166.09" width="8.85" height="8.74"/>
      <rect class="cls-1" x="1124.18" y="166.09" width="8.85" height="8.74"/>
      <rect class="cls-1" x="1115.33" y="166.09" width="8.85" height="8.74"/>
      <rect class="cls-1" x="1106.48" y="166.09" width="8.85" height="8.74"/>
      <rect class="cls-1" x="1097.63" y="166.09" width="8.85" height="8.74"/>
      <rect class="cls-1" x="1088.77" y="166.09" width="8.85" height="8.74"/>
      <rect class="cls-1" x="1079.92" y="166.09" width="8.85" height="8.74"/>
      <rect class="cls-1" x="1071.07" y="166.09" width="8.85" height="8.74"/>
      <rect class="cls-1" x="1062.22" y="166.09" width="8.85" height="8.74"/>
      <rect class="cls-1" x="1053.37" y="166.09" width="8.85" height="8.74"/>
      <rect class="cls-1" x="1044.52" y="166.09" width="8.85" height="8.74"/>
      <rect class="cls-1" x="1035.66" y="166.09" width="8.85" height="8.74"/>
      <rect class="cls-1" x="1026.81" y="166.09" width="8.85" height="8.74"/>
      <rect class="cls-1" x="327.52" y="166.09" width="8.85" height="8.74"/>
      <rect class="cls-1" x="318.67" y="166.09" width="8.85" height="8.74"/>
      <rect class="cls-1" x="309.81" y="166.09" width="8.85" height="8.74"/>
      <rect class="cls-1" x="300.96" y="166.09" width="8.85" height="8.74"/>
      <rect class="cls-1" x="292.11" y="166.09" width="8.85" height="8.74"/>
      <rect class="cls-1" x="283.26" y="166.09" width="8.85" height="8.74"/>
      <rect class="cls-1" x="274.41" y="166.09" width="8.85" height="8.74"/>
      <rect class="cls-1" x="265.55" y="166.09" width="8.85" height="8.74"/>
      <rect class="cls-1" x="256.7" y="166.09" width="8.85" height="8.74"/>
      <rect class="cls-1" x="247.85" y="166.09" width="8.85" height="8.74"/>
      <rect class="cls-1" x="239" y="166.09" width="8.85" height="8.74"/>
      <rect class="cls-1" x="230.15" y="166.09" width="8.85" height="8.74"/>
      <rect class="cls-1" x="221.3" y="166.09" width="8.85" height="8.74"/>
      <rect class="cls-1" x="212.44" y="166.09" width="8.85" height="8.74"/>
      <rect class="cls-1" x="203.59" y="166.09" width="8.85" height="8.74"/>
      <rect class="cls-1" x="194.74" y="166.09" width="8.85" height="8.74"/>
      <rect class="cls-1" x="185.89" y="166.09" width="8.85" height="8.74"/>
      <rect class="cls-1" x="177.04" y="166.09" width="8.85" height="8.74"/>
      <rect class="cls-1" x="168.18" y="166.09" width="8.85" height="8.74"/>
      <rect class="cls-1" x="159.33" y="166.09" width="8.85" height="8.74"/>
      <rect class="cls-1" x="150.48" y="166.09" width="8.85" height="8.74"/>
      <rect class="cls-1" x="141.63" y="166.09" width="8.85" height="8.74"/>
      <rect class="cls-1" x="132.78" y="166.09" width="8.85" height="8.74"/>
      <rect class="cls-1" x="123.93" y="166.09" width="8.85" height="8.74"/>
      <rect class="cls-1" x="115.07" y="166.09" width="8.85" height="8.74"/>
      <rect class="cls-1" x="106.22" y="166.09" width="8.85" height="8.74"/>
      <rect class="cls-1" x="97.37" y="166.09" width="8.85" height="8.74"/>
      <rect class="cls-1" x="88.52" y="166.09" width="8.85" height="8.74"/>
      <rect class="cls-1" x="79.67" y="166.09" width="8.85" height="8.74"/>
      <rect class="cls-1" x="70.81" y="166.09" width="8.85" height="8.74"/>
      <rect class="cls-1" x="61.96" y="166.09" width="8.85" height="8.74"/>
      <rect class="cls-1" x="53.11" y="166.09" width="8.85" height="8.74"/>
      <rect class="cls-1" x="44.26" y="166.09" width="8.85" height="8.74"/>
      <rect class="cls-1" x="1265.81" y="157.35" width="8.85" height="8.74"/>
      <rect class="cls-1" x="1256.96" y="157.35" width="8.85" height="8.74"/>
      <rect class="cls-1" x="35.41" y="157.35" width="8.85" height="8.74"/>
      <rect class="cls-1" x="26.56" y="157.35" width="8.85" height="8.74"/>
      <rect class="cls-1" x="17.7" y="157.35" width="8.85" height="8.74"/>
      <rect class="cls-1" x="1283.51" y="148.61" width="8.85" height="8.74"/>
      <rect class="cls-1" x="1274.66" y="148.61" width="8.85" height="8.74"/>
      <rect class="cls-1" x="8.85" y="148.61" width="8.85" height="8.74"/>
      <rect class="cls-1" x="1283.51" y="139.87" width="8.85" height="8.74"/>
      <rect class="cls-1" x="1274.66" y="139.87" width="8.85" height="8.74"/>
      <rect class="cls-1" x="8.85" y="139.87" width="8.85" height="8.74"/>
      <rect class="cls-1" x="1292.37" y="131.13" width="8.85" height="8.74"/>
      <rect class="cls-1" x="0" y="131.13" width="8.85" height="8.74"/>
      <rect class="cls-1" x="1292.37" y="122.38" width="8.85" height="8.74"/>
      <rect class="cls-1" x="0" y="122.38" width="8.85" height="8.74"/>
      <rect class="cls-1" x="1292.37" y="113.64" width="8.85" height="8.74"/>
      <rect class="cls-1" x="0" y="113.64" width="8.85" height="8.74"/>
      <rect class="cls-1" x="1292.37" y="104.9" width="8.85" height="8.74"/>
      <rect class="cls-1" x="0" y="104.9" width="8.85" height="8.74"/>
      <rect class="cls-1" x="1292.37" y="96.16" width="8.85" height="8.74"/>
      <rect class="cls-1" x="0" y="96.16" width="8.85" height="8.74"/>
      <rect class="cls-1" x="1292.37" y="78.68" width="8.85" height="8.74"/>
      <rect class="cls-1" y="78.68" width="8.85" height="8.74"/>
      <rect class="cls-1" x="1292.37" y="69.93" width="8.85" height="8.74"/>
      <rect class="cls-1" y="69.93" width="8.85" height="8.74"/>
      <rect class="cls-1" x="1292.37" y="61.19" width="8.85" height="8.74"/>
      <rect class="cls-1" y="61.19" width="8.85" height="8.74"/>
      <rect class="cls-1" x="1292.37" y="52.45" width="8.85" height="8.74"/>
      <rect class="cls-1" y="52.45" width="8.85" height="8.74"/>
      <rect class="cls-1" x="1292.37" y="43.71" width="8.85" height="8.74"/>
      <rect class="cls-1" y="43.71" width="8.85" height="8.74"/>
      <rect class="cls-1" x="1283.51" y="34.97" width="8.85" height="8.74"/>
      <rect class="cls-1" x="1274.66" y="34.97" width="8.85" height="8.74"/>
      <rect class="cls-1" x="8.85" y="34.97" width="8.85" height="8.74"/>
      <rect class="cls-1" x="1283.51" y="26.23" width="8.85" height="8.74"/>
      <rect class="cls-1" x="1274.66" y="26.23" width="8.85" height="8.74"/>
      <rect class="cls-1" x="8.85" y="26.23" width="8.85" height="8.74"/>
      <rect class="cls-1" x="1265.81" y="17.48" width="8.85" height="8.74"/>
      <rect class="cls-1" x="1256.96" y="17.48" width="8.85" height="8.74"/>
      <rect class="cls-1" x="35.41" y="17.48" width="8.85" height="8.74"/>
      <rect class="cls-1" x="26.56" y="17.48" width="8.85" height="8.74"/>
      <rect class="cls-1" x="17.7" y="17.48" width="8.85" height="8.74"/>
      <rect class="cls-1" x="1265.81" y="8.74" width="8.85" height="8.74"/>
      <rect class="cls-1" x="1256.96" y="8.74" width="8.85" height="8.74"/>
      <rect class="cls-1" x="35.41" y="8.74" width="8.85" height="8.74"/>
      <rect class="cls-1" x="26.56" y="8.74" width="8.85" height="8.74"/>
      <rect class="cls-1" x="17.7" y="8.74" width="8.85" height="8.74"/>
      <rect class="cls-1" x="1248.11" width="8.85" height="8.74"/>
      <rect class="cls-1" x="1239.26" width="8.85" height="8.74"/>
      <rect class="cls-1" x="1230.4" width="8.85" height="8.74"/>
      <rect class="cls-1" x="1221.55" width="8.85" height="8.74"/>
      <rect class="cls-1" x="1212.7" width="8.85" height="8.74"/>
      <rect class="cls-1" x="1203.85" width="8.85" height="8.74"/>
      <rect class="cls-1" x="1195" width="8.85" height="8.74"/>
      <rect class="cls-1" x="1186.14" width="8.85" height="8.74"/>
      <rect class="cls-1" x="1177.29" width="8.85" height="8.74"/>
      <rect class="cls-1" x="1168.44" width="8.85" height="8.74"/>
      <rect class="cls-1" x="1159.59" width="8.85" height="8.74"/>
      <rect class="cls-1" x="1150.74" width="8.85" height="8.74"/>
      <rect class="cls-1" x="1141.89" width="8.85" height="8.74"/>
      <rect class="cls-1" x="1133.03" width="8.85" height="8.74"/>
      <rect class="cls-1" x="1124.18" width="8.85" height="8.74"/>
      <rect class="cls-1" x="1115.33" width="8.85" height="8.74"/>
      <rect class="cls-1" x="1106.48" width="8.85" height="8.74"/>
      <rect class="cls-1" x="1097.63" width="8.85" height="8.74"/>
      <rect class="cls-1" x="1088.77" width="8.85" height="8.74"/>
      <rect class="cls-1" x="1079.92" width="8.85" height="8.74"/>
      <rect class="cls-1" x="1071.07" width="8.85" height="8.74"/>
      <rect class="cls-1" x="1062.22" width="8.85" height="8.74"/>
      <rect class="cls-1" x="1053.37" width="8.85" height="8.74"/>
      <rect class="cls-1" x="1044.52" width="8.85" height="8.74"/>
      <rect class="cls-1" x="1035.66" width="8.85" height="8.74"/>
      <rect class="cls-1" x="1026.81" width="8.85" height="8.74"/>
      <rect class="cls-1" x="327.52" width="8.85" height="8.74"/>
      <rect class="cls-1" x="318.67" width="8.85" height="8.74"/>
      <rect class="cls-1" x="309.81" width="8.85" height="8.74"/>
      <rect class="cls-1" x="300.96" width="8.85" height="8.74"/>
      <rect class="cls-1" x="292.11" width="8.85" height="8.74"/>
      <rect class="cls-1" x="283.26" width="8.85" height="8.74"/>
      <rect class="cls-1" x="274.41" width="8.85" height="8.74"/>
      <rect class="cls-1" x="265.55" width="8.85" height="8.74"/>
      <rect class="cls-1" x="256.7" width="8.85" height="8.74"/>
      <rect class="cls-1" x="247.85" width="8.85" height="8.74"/>
      <rect class="cls-1" x="239" width="8.85" height="8.74"/>
      <rect class="cls-1" x="230.15" width="8.85" height="8.74"/>
      <rect class="cls-1" x="221.3" width="8.85" height="8.74"/>
      <rect class="cls-1" x="212.44" width="8.85" height="8.74"/>
      <rect class="cls-1" x="203.59" width="8.85" height="8.74"/>
      <rect class="cls-1" x="194.74" width="8.85" height="8.74"/>
      <rect class="cls-1" x="185.89" width="8.85" height="8.74"/>
      <rect class="cls-1" x="177.04" width="8.85" height="8.74"/>
      <rect class="cls-1" x="168.18" width="8.85" height="8.74"/>
      <rect class="cls-1" x="159.33" width="8.85" height="8.74"/>
      <rect class="cls-1" x="150.48" width="8.85" height="8.74"/>
      <rect class="cls-1" x="141.63" width="8.85" height="8.74"/>
      <rect class="cls-1" x="132.78" width="8.85" height="8.74"/>
      <rect class="cls-1" x="123.93" width="8.85" height="8.74"/>
      <rect class="cls-1" x="115.07" width="8.85" height="8.74"/>
      <rect class="cls-1" x="106.22" width="8.85" height="8.74"/>
      <rect class="cls-1" x="97.37" width="8.85" height="8.74"/>
      <rect class="cls-1" x="88.52" width="8.85" height="8.74"/>
      <rect class="cls-1" x="79.67" width="8.85" height="8.74"/>
      <rect class="cls-1" x="70.81" width="8.85" height="8.74"/>
      <rect class="cls-1" x="61.96" width="8.85" height="8.74"/>
      <rect class="cls-1" x="53.11" width="8.85" height="8.74"/>
      <rect class="cls-1" x="44.26" width="8.85" height="8.74"/>
      <rect class="cls-1" x="1292.37" y="87.42" width="8.85" height="8.74"/>
      <rect class="cls-1" y="87.42" width="8.85" height="8.74"/>
      <rect class="cls-1" x="1017.96" y="166.09" width="8.85" height="8.74"/>
      <rect class="cls-1" x="1009.11" y="166.09" width="8.85" height="8.74"/>
      <rect class="cls-1" x="1000.26" y="166.09" width="8.85" height="8.74"/>
      <rect class="cls-1" x="991.4" y="166.09" width="8.85" height="8.74"/>
      <rect class="cls-1" x="982.55" y="166.09" width="8.85" height="8.74"/>
      <rect class="cls-1" x="973.7" y="166.09" width="8.85" height="8.74"/>
      <rect class="cls-1" x="964.85" y="166.09" width="8.85" height="8.74"/>
      <rect class="cls-1" x="956" y="166.09" width="8.85" height="8.74"/>
      <rect class="cls-1" x="947.14" y="166.09" width="8.85" height="8.74"/>
      <rect class="cls-1" x="938.29" y="166.09" width="8.85" height="8.74"/>
      <rect class="cls-1" x="929.44" y="166.09" width="8.85" height="8.74"/>
      <rect class="cls-1" x="920.59" y="166.09" width="8.85" height="8.74"/>
      <rect class="cls-1" x="911.74" y="166.09" width="8.85" height="8.74"/>
      <rect class="cls-1" x="902.89" y="166.09" width="8.85" height="8.74"/>
      <rect class="cls-1" x="416.04" y="166.09" width="8.85" height="8.74"/>
      <rect class="cls-1" x="407.18" y="166.09" width="8.85" height="8.74"/>
      <rect class="cls-1" x="398.33" y="166.09" width="8.85" height="8.74"/>
      <rect class="cls-1" x="389.48" y="166.09" width="8.85" height="8.74"/>
      <rect class="cls-1" x="380.63" y="166.09" width="8.85" height="8.74"/>
      <rect class="cls-1" x="371.78" y="166.09" width="8.85" height="8.74"/>
      <rect class="cls-1" x="362.92" y="166.09" width="8.85" height="8.74"/>
      <rect class="cls-1" x="354.07" y="166.09" width="8.85" height="8.74"/>
      <rect class="cls-1" x="345.22" y="166.09" width="8.85" height="8.74"/>
      <rect class="cls-1" x="336.37" y="166.09" width="8.85" height="8.74"/>
      <rect class="cls-1" x="1017.96" width="8.85" height="8.74"/>
      <rect class="cls-1" x="1009.11" width="8.85" height="8.74"/>
      <rect class="cls-1" x="1000.26" width="8.85" height="8.74"/>
      <rect class="cls-1" x="991.4" width="8.85" height="8.74"/>
      <rect class="cls-1" x="982.55" width="8.85" height="8.74"/>
      <rect class="cls-1" x="973.7" width="8.85" height="8.74"/>
      <rect class="cls-1" x="964.85" width="8.85" height="8.74"/>
      <rect class="cls-1" x="956" width="8.85" height="8.74"/>
      <rect class="cls-1" x="947.14" width="8.85" height="8.74"/>
      <rect class="cls-1" x="938.29" width="8.85" height="8.74"/>
      <rect class="cls-1" x="929.44" width="8.85" height="8.74"/>
      <rect class="cls-1" x="920.59" width="8.85" height="8.74"/>
      <rect class="cls-1" x="911.74" width="8.85" height="8.74"/>
      <rect class="cls-1" x="902.89" width="8.85" height="8.74"/>
      <rect class="cls-1" x="416.04" width="8.85" height="8.74"/>
      <rect class="cls-1" x="407.18" width="8.85" height="8.74"/>
      <rect class="cls-1" x="398.33" width="8.85" height="8.74"/>
      <rect class="cls-1" x="389.48" width="8.85" height="8.74"/>
      <rect class="cls-1" x="380.63" width="8.85" height="8.74"/>
      <rect class="cls-1" x="371.78" width="8.85" height="8.74"/>
      <rect class="cls-1" x="362.92" width="8.85" height="8.74"/>
      <rect class="cls-1" x="354.07" width="8.85" height="8.74"/>
      <rect class="cls-1" x="345.22" width="8.85" height="8.74"/>
      <rect class="cls-1" x="336.37" width="8.85" height="8.74"/>
      <rect class="cls-1" x="894.03" y="166.09" width="8.85" height="8.74"/>
      <rect class="cls-1" x="610.78" y="166.09" width="8.85" height="8.74"/>
      <rect class="cls-1" x="601.92" y="166.09" width="8.85" height="8.74"/>
      <rect class="cls-1" x="593.07" y="166.09" width="8.85" height="8.74"/>
      <rect class="cls-1" x="584.22" y="166.09" width="8.85" height="8.74"/>
      <rect class="cls-1" x="575.37" y="166.09" width="8.85" height="8.74"/>
      <rect class="cls-1" x="566.52" y="166.09" width="8.85" height="8.74"/>
      <rect class="cls-1" x="557.66" y="166.09" width="8.85" height="8.74"/>
      <rect class="cls-1" x="548.81" y="166.09" width="8.85" height="8.74"/>
      <rect class="cls-1" x="539.96" y="166.09" width="8.85" height="8.74"/>
      <rect class="cls-1" x="531.11" y="166.09" width="8.85" height="8.74"/>
      <rect class="cls-1" x="522.26" y="166.09" width="8.85" height="8.74"/>
      <rect class="cls-1" x="513.41" y="166.09" width="8.85" height="8.74"/>
      <rect class="cls-1" x="504.55" y="166.09" width="8.85" height="8.74"/>
      <rect class="cls-1" x="495.7" y="166.09" width="8.85" height="8.74"/>
      <rect class="cls-1" x="486.85" y="166.09" width="8.85" height="8.74"/>
      <rect class="cls-1" x="478" y="166.09" width="8.85" height="8.74"/>
      <rect class="cls-1" x="469.15" y="166.09" width="8.85" height="8.74"/>
      <rect class="cls-1" x="460.29" y="166.09" width="8.85" height="8.74"/>
      <rect class="cls-1" x="451.44" y="166.09" width="8.85" height="8.74"/>
      <rect class="cls-1" x="442.59" y="166.09" width="8.85" height="8.74"/>
      <rect class="cls-1" x="433.74" y="166.09" width="8.85" height="8.74"/>
      <rect class="cls-1" x="424.89" y="166.09" width="8.85" height="8.74"/>
      <rect class="cls-1" x="894.03" width="8.85" height="8.74"/>
      <rect class="cls-1" x="610.78" width="8.85" height="8.74"/>
      <rect class="cls-1" x="601.92" width="8.85" height="8.74"/>
      <rect class="cls-1" x="593.07" width="8.85" height="8.74"/>
      <rect class="cls-1" x="584.22" width="8.85" height="8.74"/>
      <rect class="cls-1" x="575.37" width="8.85" height="8.74"/>
      <rect class="cls-1" x="566.52" width="8.85" height="8.74"/>
      <rect class="cls-1" x="557.66" width="8.85" height="8.74"/>
      <rect class="cls-1" x="548.81" width="8.85" height="8.74"/>
      <rect class="cls-1" x="539.96" width="8.85" height="8.74"/>
      <rect class="cls-1" x="531.11" width="8.85" height="8.74"/>
      <rect class="cls-1" x="522.26" width="8.85" height="8.74"/>
      <rect class="cls-1" x="513.41" width="8.85" height="8.74"/>
      <rect class="cls-1" x="504.55" width="8.85" height="8.74"/>
      <rect class="cls-1" x="495.7" width="8.85" height="8.74"/>
      <rect class="cls-1" x="486.85" width="8.85" height="8.74"/>
      <rect class="cls-1" x="478" width="8.85" height="8.74"/>
      <rect class="cls-1" x="469.15" width="8.85" height="8.74"/>
      <rect class="cls-1" x="460.29" width="8.85" height="8.74"/>
      <rect class="cls-1" x="451.44" width="8.85" height="8.74"/>
      <rect class="cls-1" x="442.59" width="8.85" height="8.74"/>
      <rect class="cls-1" x="433.74" width="8.85" height="8.74"/>
      <rect class="cls-1" x="424.89" width="8.85" height="8.74"/>
      <rect class="cls-1" x="690.44" y="166.09" width="8.85" height="8.74"/>
      <rect class="cls-1" x="681.59" y="166.09" width="8.85" height="8.74"/>
      <rect class="cls-1" x="672.74" y="166.09" width="8.85" height="8.74"/>
      <rect class="cls-1" x="663.89" y="166.09" width="8.85" height="8.74"/>
      <rect class="cls-1" x="655.03" y="166.09" width="8.85" height="8.74"/>
      <rect class="cls-1" x="646.18" y="166.09" width="8.85" height="8.74"/>
      <rect class="cls-1" x="637.33" y="166.09" width="8.85" height="8.74"/>
      <rect class="cls-1" x="628.48" y="166.09" width="8.85" height="8.74"/>
      <rect class="cls-1" x="619.63" y="166.09" width="8.85" height="8.74"/>
      <rect class="cls-1" x="690.44" width="8.85" height="8.74"/>
      <rect class="cls-1" x="681.59" width="8.85" height="8.74"/>
      <rect class="cls-1" x="672.74" width="8.85" height="8.74"/>
      <rect class="cls-1" x="663.89" width="8.85" height="8.74"/>
      <rect class="cls-1" x="655.03" width="8.85" height="8.74"/>
      <rect class="cls-1" x="646.18" width="8.85" height="8.74"/>
      <rect class="cls-1" x="637.33" width="8.85" height="8.74"/>
      <rect class="cls-1" x="628.48" width="8.85" height="8.74"/>
      <rect class="cls-1" x="619.63" width="8.85" height="8.74"/>
      <rect class="cls-1" x="885.18" y="166.09" width="8.85" height="8.74"/>
      <rect class="cls-1" x="876.33" y="166.09" width="8.85" height="8.74"/>
      <rect class="cls-1" x="867.48" y="166.09" width="8.85" height="8.74"/>
      <rect class="cls-1" x="858.63" y="166.09" width="8.85" height="8.74"/>
      <rect class="cls-1" x="849.77" y="166.09" width="8.85" height="8.74"/>
      <rect class="cls-1" x="840.92" y="166.09" width="8.85" height="8.74"/>
      <rect class="cls-1" x="832.07" y="166.09" width="8.85" height="8.74"/>
      <rect class="cls-1" x="823.22" y="166.09" width="8.85" height="8.74"/>
      <rect class="cls-1" x="814.37" y="166.09" width="8.85" height="8.74"/>
      <rect class="cls-1" x="805.52" y="166.09" width="8.85" height="8.74"/>
      <rect class="cls-1" x="796.66" y="166.09" width="8.85" height="8.74"/>
      <rect class="cls-1" x="787.81" y="166.09" width="8.85" height="8.74"/>
      <rect class="cls-1" x="778.96" y="166.09" width="8.85" height="8.74"/>
      <rect class="cls-1" x="770.11" y="166.09" width="8.85" height="8.74"/>
      <rect class="cls-1" x="761.26" y="166.09" width="8.85" height="8.74"/>
      <rect class="cls-1" x="752.4" y="166.09" width="8.85" height="8.74"/>
      <rect class="cls-1" x="743.55" y="166.09" width="8.85" height="8.74"/>
      <rect class="cls-1" x="734.7" y="166.09" width="8.85" height="8.74"/>
      <rect class="cls-1" x="725.85" y="166.09" width="8.85" height="8.74"/>
      <rect class="cls-1" x="717" y="166.09" width="8.85" height="8.74"/>
      <rect class="cls-1" x="708.15" y="166.09" width="8.85" height="8.74"/>
      <rect class="cls-1" x="699.29" y="166.09" width="8.85" height="8.74"/>
      <rect class="cls-1" x="885.18" width="8.85" height="8.74"/>
      <rect class="cls-1" x="876.33" width="8.85" height="8.74"/>
      <rect class="cls-1" x="867.48" width="8.85" height="8.74"/>
      <rect class="cls-1" x="858.63" width="8.85" height="8.74"/>
      <rect class="cls-1" x="849.77" width="8.85" height="8.74"/>
      <rect class="cls-1" x="840.92" width="8.85" height="8.74"/>
      <rect class="cls-1" x="832.07" width="8.85" height="8.74"/>
      <rect class="cls-1" x="823.22" width="8.85" height="8.74"/>
      <rect class="cls-1" x="814.37" width="8.85" height="8.74"/>
      <rect class="cls-1" x="805.52" width="8.85" height="8.74"/>
      <rect class="cls-1" x="796.66" width="8.85" height="8.74"/>
      <rect class="cls-1" x="787.81" width="8.85" height="8.74"/>
      <rect class="cls-1" x="778.96" width="8.85" height="8.74"/>
      <rect class="cls-1" x="770.11" width="8.85" height="8.74"/>
      <rect class="cls-1" x="761.26" width="8.85" height="8.74"/>
      <rect class="cls-1" x="752.4" width="8.85" height="8.74"/>
      <rect class="cls-1" x="743.55" width="8.85" height="8.74"/>
      <rect class="cls-1" x="734.7" width="8.85" height="8.74"/>
      <rect class="cls-1" x="725.85" width="8.85" height="8.74"/>
      <rect class="cls-1" x="717" width="8.85" height="8.74"/>
      <rect class="cls-1" x="708.15" width="8.85" height="8.74"/>
      <rect class="cls-1" x="699.29" width="8.85" height="8.74"/>
    </g>
  </g>
</svg>