<?xml version="1.0" encoding="UTF-8"?>
<svg shape-rendering="crispEdges" id="Layer_2" data-name="Layer 2" xmlns="http://www.w3.org/2000/svg" viewBox="0 0 1021.13 1021.43">
  <defs>
    <style>
      .cls-1 {
        fill: #3084b1;
      }
    </style>
  </defs>
  <g id="Layer_1-2" data-name="Layer 1">
    <g>
      <path class="cls-1" d="M.04,0l1021.08.04-.04,1021.39-1021.08-.04L.04,0ZM839.06,157.91l122.64-123.45H59.27s122.82,123.45,122.82,123.45h656.98ZM157.91,838.89l-.03-656.79L34.43,59.19l.02,902.71,123.46-123.01ZM863.19,839.16l123.43,122.63V59.16s-123.45,122.85-123.45,122.85l.02,657.15ZM486.01,398.91l-206.68-206.65-86.86.21-.19,86.91,206.69,206.72,87.06-87.2ZM414.24,192.3l-85.31.46,84.96,85,.35-85.46ZM572.47,312.42l-.21-120.13-123.23.11-.07,120.54,61.58,61.64,61.93-62.16ZM691.79,192.71l-85.08-.52.45,85.48,84.63-84.97ZM280.18,828.07L828.8,279.4l-.14-87.1-87.49.37L192.32,741.56l.15,87.29,87.71-.78ZM256.59,628.56l-.05-236.2-64.08-63.38.06,363.09,64.08-63.52ZM764.55,628.77l64.07,63.29-.03-363.08-64.11,63.74.07,236.06ZM374.54,510.43l-83.3-82.96-.02,165.88,83.33-82.91ZM729.77,592.96l.08-165.62-83.45,83.2,83.37,82.42ZM828.69,828.84l.04-87.2-206.69-206.66-87.05,87.15,206.82,206.85,86.88-.14ZM572.36,828.94l-.02-120.62-61.96-61.71-61.41,61.53.06,120.89,123.34-.09ZM414.41,829l-.22-85.99-85.36,85.5,85.58.48ZM691.79,828.13l-84.62-84.73-.46,85.55,85.08-.82ZM961.76,986.63l-122.74-123.41H181.92s-122.8,123.42-122.8,123.42h902.64Z"/>
      <circle class="cls-1" cx="254.06" cy="767.12" r="21.46"/>
      <circle class="cls-1" cx="767.09" cy="254.09" r="21.46"/>
      <circle class="cls-1" cx="211.7" cy="96.22" r="21.46"/>
      <circle class="cls-1" cx="809.37" cy="96.21" r="21.46"/>
      <circle class="cls-1" cx="924.94" cy="211.68" r="21.42"/>
      <circle class="cls-1" cx="924.96" cy="809.36" r="21.43"/>
      <circle class="cls-1" cx="96.2" cy="211.74" r="21.45"/>
      <circle class="cls-1" cx="96.18" cy="809.36" r="21.46"/>
      <circle class="cls-1" cx="211.69" cy="924.99" r="21.43"/>
      <circle class="cls-1" cx="809.34" cy="925.01" r="21.42"/>
      <circle class="cls-1" cx="767.11" cy="767.12" r="21.44"/>
      <circle class="cls-1" cx="254.02" cy="254.07" r="21.47"/>
    </g>
  </g>
</svg>