<?xml version="1.0" encoding="UTF-8"?>
<svg shape-rendering="crispEdges" id="Layer_2" data-name="Layer 2" xmlns="http://www.w3.org/2000/svg" viewBox="0 0 932.54 942.85">
  <defs>
    <style>
      .cls-1 {
        fill: #3084b1;
      }
    </style>
  </defs>
  <g id="Layer_1-2" data-name="Layer 1">
    <g>
      <path class="cls-1" d="M871.82,600.86c30.83-6.07,53.27,10.37,59.15,33.74,6.58,26.16-8.02,53.52-36.34,59.09l-549,107.96c26.12,54.28,1.14,113.69-49.17,134.04-54.93,22.22-114.99-9.43-128.94-65.36-14.12-56.58,22.87-111.52,83.69-120.22L149.13,227.01,14.97,103.83C-5.08,85.41-3.8,55.05,11.77,37.61c17.44-19.54,47.7-22.04,67.86-3.61l146.96,134.35c3.54,4.93,11.14,16.06,12.31,22.06l100.51,515.31,532.41-104.86Z"/>
      <path class="cls-1" d="M780.05,601.71l-179.77-46.98-297.7-78.16L424.14,0l478.5,123.29-116.62,455.67-5.97,22.74ZM661.66,265.82l-25.36-6.57-68.83-17.43-23.96,93.24,93.31,23.05,24.84-92.29Z"/>
    </g>
  </g>
</svg>