<?xml version="1.0" encoding="UTF-8"?>
<svg shape-rendering="crispEdges" id="Layer_2" data-name="Layer 2" xmlns="http://www.w3.org/2000/svg" viewBox="0 0 979.02 976.96">
  <defs>
    <style>
      .cls-1 {
        fill: #3084b1;
      }
    </style>
  </defs>
  <g id="Layer_1-2" data-name="Layer 1">
    <g>
      <path class="cls-1" d="M0,964.01v-276.72c2.61-7.97-1.01-21.37,4.72-32.56,2.42-4.73,10.02-6.02,15.48-6.25,54.69-2.31,108.72-2.03,163.49-.41,10.83.32,19.11,6.14,20.44,17.12,1.46,12.07-.92,17.13,1.74,26.2l59.91-4.83c48.9-3.95,138.15-4.12,185.12,9.37l210.86,60.54c27.19,7.81,33.65,9.5,55.56,27.7l90.44-41.34,80.49-35.27c11.44-5.01,24.78-2.76,36.55.01,35.81,8.44,58.89,42.41,53.42,78.74-3.76,24.95-19.34,45.3-42.24,55.71l-168.83,76.76c-28.97,13.17-57.09,25.98-86.8,37.07-32.26,12.03-112.19,11.07-147.95,8.1-72.36-6.01-142.45-23.09-209.49-50.07l-36.34-14.63c-27.91-.04-54.61,4.89-81.32,13.19-.34,16.25-.6,31.94-1.82,47.93-.57,7.55-4.88,12.99-12.38,14.11-8.68,1.12-17.34,1.4-26.2,1.54l-31.61.52-119.3.43-13.95-12.95ZM163.84,936.02v-246.67s-123.34.06-123.34.06v246.65s123.34-.04,123.34-.04ZM731.61,841.05c-1.47,15.49-8.78,28.43-19.46,38.9-8.09,7.93-16.63,14.88-27.5,18.61-13.88,4.76-28.52,4.89-42.77.92l-76.5-21.35-162.3-49.26c-10.61-3.22-17.28-12.13-14.02-23.59,2.04-7.17,9.78-15.8,18.25-15.7l144.25,41.27,90.3,25.82c8.58,2.45,16.83,3.94,25.51,5.17,17.75,2.5,25.02-23.11,24.34-35.68s-8.06-19.97-19.36-23.26l-237.2-69.14c-11.52-3.36-21.71-4.55-33.69-5.41-46.09-1.06-91.5-2.63-137.59-.75-20.14.82-38.73,3.85-59.51,6.17l-.02,135.34,44.65-8.67c11.46-2.23,23.08-.93,34.68-.72,11.66.03,21.91,2.09,32.72,6.79,66.92,29.13,137.19,48.35,209.95,56.58,39.5,4.47,97.43,6.26,135.04-4.07,11.77-3.23,22.3-8.31,33.64-13.42l196.6-88.56c12.93-5.82,24.76-11.68,37.01-18.17,9.17-4.86,12.93-15.06,10.55-24.7-2.33-9.46-6.09-18.02-13.57-24.35-5.16-4.36-13.23-7.95-19.97-5l-75.62,33.19-96.6,43.93-1.81,19.12Z"/>
      <path class="cls-1" d="M512.48,0c5.46,1.98,11.47.39,17.85,1.2,31.17,3.98,61.75,12.76,87.52,31.44,18.15,13.16,34.61,28.52,47.84,46.91,20.55,28.56,32.8,63.23,34.81,98.4,1.89,33-7.17,64.46-20.07,94.26l19.02,7.37c71.52,27.71,124.96,101.54,120.61,179.87-4.46,80.46-60.45,149.47-137.84,170.95-36.97,10.26-75.46,8.45-111.21-5.9-57.39-23.03-100.9-72.45-115.84-132.56-3.26-13.13-3.22-26.02-3.77-39.43-.92-22.45,3.45-43.58,11.74-64.31l8.35-20.87c.57-1.43-2.87-4.06-4.36-4.5-61.29-18.07-111.25-68.86-129.49-130.05-4.25-14.27-5.02-28.14-5.69-42.99-1.31-28.95,4.15-56.41,17.29-82.49,18.87-37.48,49.15-68.5,86.6-87.74,20.58-10.57,42.73-16.14,65.46-18.77,3.37-.39,6.89.85,9.15-.82h2ZM506.12,322.61c15.72-14.87,32.25-27.96,51.72-37.28,21.82-10.44,45.41-16.28,69.42-18.01,5.42-.39,9.21-.45,12.04-5.79,22.91-43.21,18.61-52.82,18.21-102.71-4.75-30.02-18.95-55.66-40.49-76.57-18.39-17.85-39.62-31.52-65.26-36.52-21.17-4.13-42.74-5.01-64.19-1.62-20.41,3.23-38.88,11.72-55.77,23.09-21.41,14.42-36.4,34.48-47.08,57.71-7.87,17.1-11.73,34.01-11.63,52.99.07,14.77.11,28.8,2.89,43.41,12.21,39.78,24.47,54.04,55.14,80.98,18.38,11.48,38.01,20.35,59.31,24.35,5.85,1.1,11.15.29,15.69-4.01ZM776.94,483.86c-.05-21.2,2.64-41.74-.75-62.74-3.85-23.84-16.02-45.68-31.46-63.97-19.82-23.48-46.65-39.26-76.79-44.96-30.37-5.74-54.47-4.88-83.58,5.27-80.96,28.25-114.02,122.87-78.53,197.98,16.57,35.07,47.3,62.36,84.4,73.86,33.59,10.41,69.34,7.95,101.89-4.07,43.14-15.94,74.25-57.73,84.83-101.38Z"/>
      <path class="cls-1" d="M655.23,562.91c-.09,11.5-8.67,19.35-18.54,20.49-10.29,1.19-20.3-5.84-21.77-16.56-.35-2.58.02-8.02-2.59-9.22-14.98-6.86-29.29-13.15-42.88-22.21-6.02-4.02-10.74-9.84-12.07-16.94-1.72-9.21,3.55-16.72,10.82-20.79,7.69-4.3,16.58-2.42,23.67,3.43,16.12,13.32,35.78,19.74,56.47,15.41,8.34-1.75,13.51-7.63,15.2-15.95,6.19-30.39-50.96-21.73-85.32-57.74-14.89-15.6-18.28-37.18-9.29-56.92,7.73-16.95,21.8-29.29,38.82-36.97,14.31-6.46-.54-17.36,17.18-27.4,6.17-3.5,13.53-3.07,19.71.66,14.59,8.81,5.66,21.12,16.96,26.18,12.7,5.69,23.52,13.75,32.01,24.73,6.03,7.8,6.1,18.31.08,25.62-5.66,6.87-17.25,10.17-25.09,4.7-9.43-6.58-13.36-18.04-29.37-18.55-14.23-.46-32.68,1.33-34.03,19.64-2.01,27.24,41.6,19.81,76.86,48.22,7.63,6.14,14.64,13.1,18.68,22.2,8.68,19.53,3.68,41.83-10.35,57.35-8.86,9.8-18.39,17.39-30.52,22.73-2.72,1.2-4.64,4.32-4.67,7.86Z"/>
      <path class="cls-1" d="M524.1,300.58c-10.52,3.85-22.65-3.65-25.88-13.33-1.03-3.08-1.18-6.3-1.84-9.31-14.79-5.42-29.19-12.57-40.68-22.97-9.24-8.36-8.41-21.2-.47-29.41,19.93-20.63,39.74,22.26,72.97,13.03,7-1.94,11.21-6.53,11.47-13.85.18-5-1.65-9.31-6.61-11.57-21.42-9.76-37.16-11.5-57.18-25.65-24.86-17.58-28.31-51.83-7.6-73.96,22.11-23.63,26.78-12.7,29.37-27.72,1.27-7.39,8.32-13.86,15.35-16.28,6.1-2.1,12.53.11,17.36,3.68,4.97,3.67,6.45,9.57,8.02,16.25,1.46,6.21,20.79,9.28,32.78,26.73,3.72,5.41,5.29,11.43,3.61,18.2-1.31,5.26-5.72,10.21-11.53,13.09-16.41,8.14-24.65-8.9-31.37-13.17-8.25-5.25-20.14-4.64-28.72-1.03-5.34,2.25-7.53,7.39-7.81,12.05-1.07,18.01,36.06,16.61,64.39,38.16,12.22,9.3,20.86,22.57,21.61,38.23.42,8.87-2.74,17.38-6.94,24.96-6.96,12.57-17.85,22.13-30.73,28.02-5.32,2.43-5.42,5.45-6.63,11.23-1.09,5.21-7.01,12.45-12.94,14.62Z"/>
    </g>
  </g>
</svg>