<?xml version="1.0" encoding="UTF-8"?>
<svg shape-rendering="crispEdges" id="Layer_2" data-name="Layer 2" xmlns="http://www.w3.org/2000/svg" viewBox="0 0 1578.68 1269.88">
  <defs>
    <style>
      .cls-1 {
        fill: #3084b1;
      }
    </style>
  </defs>
  <g id="Layer_1-2" data-name="Layer 1">
    <path class="cls-1" d="M107.67,1062.2c-10.77-21.97-1.69-48.5,20.28-59.27.44-.21.87-.42,1.32-.62l313.59-164.23c-16.78-37,11.99-43.4,11.99-43.4l-11.56-62.85c-12.39-44.49,33.22-76.84,33.22-76.84l267.61-131.4c36.2-16.83,79.19-1.13,96.02,35.08.36.78.71,1.57,1.05,2.36l52.44-18.14c-7.67-20.37,2.63-43.09,23-50.76.19-.07.38-.14.58-.21l288.61-154.39,16.63-91.99c12.03-49.74,34.73-24.1,34.73-24.1l69.25,98.13s210.64-121.81,225.56-130.99c14.92-9.18,22.84,12.69,22.84,12.69,0,0,8.42,14.5.39,20.78s-204.44,128.73-204.44,128.73l-2.58,41.79-18.29,14.09-21.91-31.58-53.61,35.32c1.83,23.68-8.69,46.63-27.82,60.7l-235.46,172.01c-41.57,23.69-54.98-1.38-54.98-1.38l-47.9,35.8c-21.39,22.09,41.49,98.91,41.49,98.91l-9.97,16.98c47.68,69.79,106.83,131,174.94,181.03l-113.3,119.53c-64.16-41.75-118.98-96.32-161.02-160.29l-83.32,28.57c-76.43,37.82-70.03,72.67-70.03,72.67l-3.92,93.46c41.64,29.35.89,42.41.89,42.41l-76.13,19.37c-51.85,21-44.06-15.97-44.06-15.97l26.51-180.23c-16.69-69.57-64.7-45.39-64.7-45.39-58.48,35.33-112.48,77.58-160.83,125.85l-42.56,154.41c-40.62,71.91-80.62,27.4-80.62,27.4l-94.54-136.95-39.38-57.11Z"/>
    <path class="cls-1" d="M947.4,60.78c8.98,25.33-4.15,64.16-23.99,84.98l-283.04,297.07,24.67,26.03c5.36,5.66,6.56,23.7,2.21,30.31-3.56,5.41-20.24,6.07-25.56,2.23l-27.45-19.85-312.87,305.81-204.29,133.27c-34.86,22.74-59.71,53.15-90.52,86.63-20.22-87.51,7.17-181.21,70.94-247.49l396.72-412.32-18.8-22.5c-4.66-5.57-5.1-22.39-.74-28.24,4.35-5.85,23.06-5.58,28.57-.92l26.83,22.69c53.46,19.86,63.89-39.54,90.29-55.37,31.54-18.9,52.31-38.72,73.42-68.15,13.82-19.28,68.06-21.03,56.88-71.11,98.05-12.2,51.5-103.88,93.23-118.07,51.31-17.45,106.07,5.84,123.51,55.02ZM885.22,58.86c-13.22-4.29-27.42,2.95-31.71,16.17-4.29,13.22,2.95,27.42,16.17,31.71,13.22,4.29,27.42-2.95,31.71-16.17,4.29-13.22-2.95-27.42-16.17-31.71Z"/>
  </g>
</svg>