<?xml version="1.0" encoding="UTF-8"?>
<svg shape-rendering="crispEdges" id="Layer_2" data-name="Layer 2" xmlns="http://www.w3.org/2000/svg" viewBox="0 0 1863.35 277.76">
  <defs>
    <style>
      .cls-1 {
        fill: #3084b1;
      }

      .cls-2 {
        fill: #e1ad2d;
      }
    </style>
  </defs>
  <g id="Layer_2-2" data-name="Layer 2">
    <g>
      <path class="cls-1" d="M24.5,85.76v-36.75h-12.25v-12.25H0V0h24.5v36.75h24.5V0h24.5v36.75h-12.25v12.25h-12.25v36.75h-24.5Z"/>
      <path class="cls-1" d="M159.26,85.76h-61.25v-12.25h-12.25V12.25h12.25V0h61.25v12.25h12.25v61.25h-12.25v12.25ZM147.01,12.25h-36.75v61.25h36.75V12.25Z"/>
      <path class="cls-1" d="M208.26,0v73.5h36.75V0h24.5v73.5h-12.25v12.25h-61.25v-12.25h-12.25V0h24.5Z"/>
      <path class="cls-1" d="M306.27,61.25v24.5h-24.5V0h73.5v12.25h12.25v36.75h-24.5v12.25h12.25v12.25l12.8-.12v12.37h-37.3v-12.25h-12.25v-12.25h-12.25ZM306.27,12.25v36.75h24.5v-12.25h12.25V12.25h-36.75Z"/>
      <path class="cls-1" d="M527.4,12.25v61.25h24.5v12.25h-73.5v-12.25h24.5V12.25h-24.5V0h73.5v12.25h-24.5Z"/>
      <path class="cls-1" d="M588.71,85.76l-.06-73.5h-24.5V0h73.5v12.25h-24.5v73.5h-24.44Z"/>
      <path class="cls-1" d="M723.41,49h-49v24.5h49v12.25h-73.51V0h73.51v12.25h-49v24.5h49v12.25Z"/>
      <path class="cls-1" d="M735.66,0h24.5v12.25h12.25v12.25h12.25v-12.25h12.25V0h24.5v85.76h-24.5v-49h-12.25v12.25h-12.25v-12.25h-12.25v49h-24.5V0Z"/>
      <path class="cls-1" d="M907.17,24.5h-24.5v-12.25h-24.5v24.5h49v12.25h12.25v24.5h-12.25v12.25h-61.25v-12.25h-12.25v-12.43h24.69l-.18,12.43h36.75v-24.5h-49v-12.25h-12.25V12.25h12.25V0h49v12.25h12.25v12.25Z"/>
      <path class="cls-1" d="M943.92,73.5v24.5h-12.25v-24.5h12.25Z"/>
      <path class="cls-1" d="M1140.55,61.25h-12.25v12.25h-12.25v12.25h-61.25V0h61.25v12.25h12.25v12.25h12.25v36.75ZM1116.05,61.25V24.5h-12.25v-12.25h-24.5v61.25h24.5v-12.25h12.25Z"/>
      <path class="cls-1" d="M1226.3,49h-49v24.5h49v12.25h-73.5V0h73.5v12.25h-49v24.5h49v12.25Z"/>
      <path class="cls-1" d="M1263.06,73.5h49v12.25h-73.5V0h24.5v73.5Z"/>
      <path class="cls-1" d="M1373.31,12.25v61.25h24.5v12.25h-73.51v-12.25h24.5V12.25h-24.5V0h73.51v12.25h-24.5Z"/>
      <path class="cls-1" d="M1410.07,0h24.5v36.75h12.25v12.25h12.25v-12.25h12.25V0h24.5v49h-12.25v12.25h-12.25v12.25h-12.25v12.25h-12.07l-.19-12.25h-12.25v-12.25h-12.25v-12.25l-12.25-.18V0Z"/>
      <path class="cls-1" d="M1581.58,49h-49v24.5h49v12.25h-73.5V0h73.5v12.25h-49v24.5h49v12.25Z"/>
      <path class="cls-1" d="M1618.33,61.25v24.5h-24.5V0h73.51v12.25h12.25v36.75h-24.5v12.25h12.25v12.25l12.8-.12v12.37h-37.3v-12.25h-12.25v-12.25h-12.25ZM1618.33,12.25v36.75h24.5v-12.25h12.25V12.25h-36.75Z"/>
      <path class="cls-1" d="M1765.34,49h-49v24.5h49v12.25h-73.5V0h73.5v12.25h-49v24.5h49v12.25Z"/>
      <path class="cls-1" d="M1863.35,61.25h-12.25v12.25h-12.25v12.25h-61.25V0h61.25v12.25h12.25v12.25h12.25v36.75ZM1838.85,61.25V24.5h-12.25v-12.25h-24.5v61.25h24.5v-12.25h12.25Z"/>
      <path class="cls-2" d="M337.51,216.5h12.25v-12.25h12.25v-12.25h36.75v12.25h12.25v12.25h12.25v61.25h-24.5v-24.5h-36.75v24.5h-24.5v-61.25ZM374.26,204.25v12.25h-12.25v24.5h36.75v-24.5h-12.25v-12.25h-12.25Z"/>
      <path class="cls-2" d="M460.02,192v73.5h36.75v-73.5h24.5v73.5h-12.25v12.25h-61.25v-12.25h-12.25v-73.5h24.5Z"/>
      <path class="cls-2" d="M558.09,277.76l-.06-73.5h-24.5v-12.25h73.5v12.25h-24.5v73.5h-24.44Z"/>
      <path class="cls-2" d="M692.78,277.76h-61.25v-12.25h-12.25v-61.25h12.25v-12.25h61.25v12.25h12.25v61.25h-12.25v12.25ZM680.53,204.25h-36.75v61.25h36.75v-61.25Z"/>
      <path class="cls-2" d="M717.29,192h24.5v12.25h12.25v12.25h12.25v-12.25h12.25v-12.25h24.5v85.76h-24.5v-49h-12.25v12.25h-12.25v-12.25h-12.25v49h-24.5v-85.76Z"/>
      <path class="cls-2" d="M815.29,216.5h12.25v-12.25h12.25v-12.25h36.75v12.25h12.25v12.25h12.25v61.25h-24.5v-24.5h-36.75v24.5h-24.5v-61.25ZM852.04,204.25v12.25h-12.25v24.5h36.75v-24.5h-12.25v-12.25h-12.25Z"/>
      <path class="cls-2" d="M937.86,277.76l-.06-73.5h-24.5v-12.25h73.51v12.25h-24.5v73.5h-24.44Z"/>
      <path class="cls-2" d="M1048.06,204.25v61.25h24.5v12.25h-73.51v-12.25h24.5v-61.25h-24.5v-12.25h73.51v12.25h-24.5Z"/>
      <path class="cls-2" d="M1146.06,265.5v-12.25h24.5v12.25h-12.25v12.25h-49v-12.25h-12.25v-12.25h-12.25v-36.75h12.25v-12.25h12.25v-12.25h49v12.25h12.25v12.25h-24.5v-12.25h-24.5v12.25h-12.25v36.75h12.25v12.25h24.5Z"/>
      <path class="cls-2" d="M1182.81,216.5h12.25v-12.25h12.25v-12.25h36.75v12.25h12.25v12.25h12.25v61.25h-24.5v-24.5h-36.75v24.5h-24.5v-61.25ZM1219.57,204.25v12.25h-12.25v24.5h36.75v-24.5h-12.25v-12.25h-12.25Z"/>
      <path class="cls-2" d="M1305.32,265.5h49v12.25h-73.5v-85.76h24.5v73.5Z"/>
      <path class="cls-2" d="M1391.08,265.5h49v12.25h-73.51v-85.76h24.5v73.5Z"/>
      <path class="cls-2" d="M1476.83,277.76v-36.75h-12.25v-12.25h-12.25v-36.75h24.5v36.75h24.5v-36.75h24.5v36.75h-12.25v12.25h-12.25v36.75h-24.5Z"/>
    </g>
  </g>
</svg>