<?xml version="1.0" encoding="UTF-8"?>
<svg shape-rendering="crispEdges" id="Layer_2" data-name="Layer 2" xmlns="http://www.w3.org/2000/svg" viewBox="0 0 343.16 20.48">
  <defs>
    <style>
      .cls-1 {
        fill: #e1ad2d;
      }
    </style>
  </defs>
  <g id="Layer_1-2" data-name="Layer 1">
    <g>
      <g>
        <polygon class="cls-1" points="5.83 20.35 5.83 17.5 2.98 17.5 2.98 14.65 .13 14.65 .13 5.83 2.98 5.83 2.98 2.98 5.83 2.98 5.83 .13 17.5 .13 17.5 2.98 20.35 2.98 20.35 6.08 14.4 6.08 14.4 3.23 8.94 3.23 8.94 6.08 6.08 6.08 6.08 14.4 8.94 14.4 8.94 17.25 14.4 17.25 14.4 14.4 20.35 14.4 20.35 17.5 17.5 17.5 17.5 20.35 5.83 20.35"/>
        <path class="cls-1" d="M17.38.25v2.85h2.85v2.85h-5.71v-2.85h-5.71v2.85h-2.85v8.56h2.85v2.85h5.71v-2.85h5.71v2.85h-2.85v2.85H5.96v-2.85h-2.85v-2.85H.25V5.96h2.85v-2.85h2.85V.25h11.42M17.63,0H5.71v2.85h-2.85v2.85H0v9.06h2.85v2.85h2.85v2.85h11.92v-2.85h2.85v-3.35h-6.21v2.85h-5.21v-2.85h-2.85V6.21h2.85v-2.85h5.21v2.85h6.21v-3.35h-2.85V0h0Z"/>
      </g>
      <g>
        <path class="cls-1" d="M25.81,20.35v-2.85h-2.85V2.98h2.85V.13h14.52v2.85h2.85v14.52h-2.85v2.85h-14.52ZM37.23,17.25V3.23h-8.31v14.02h8.31Z"/>
        <path class="cls-1" d="M40.21.25v2.85h2.85v14.27h-2.85v2.85h-14.27v-2.85h-2.85V3.1h2.85V.25h14.27M28.79,17.38h8.56V3.1h-8.56v14.27M40.46,0h-14.77v2.85h-2.85v14.77h2.85v2.85h14.77v-2.85h2.85V2.85h-2.85V0h0ZM29.04,3.35h8.06v13.77h-8.06V3.35h0Z"/>
      </g>
      <g>
        <polygon class="cls-1" points="60.07 20.35 60.07 8.94 57.46 8.94 57.46 11.79 54.36 11.79 54.36 8.94 51.75 8.94 51.75 20.35 45.79 20.35 45.79 .13 51.75 .13 51.75 2.98 54.61 2.98 54.61 5.83 57.21 5.83 57.21 2.98 60.07 2.98 60.07 .13 66.02 .13 66.02 20.35 60.07 20.35"/>
        <path class="cls-1" d="M65.9.25v19.98h-5.71v-11.42h-2.85v2.85h-2.85v-2.85h-2.85v11.42h-5.71V.25h5.71v2.85h2.85v2.85h2.85v-2.85h2.85V.25h5.71M66.15,0h-6.21v2.85h-2.85v2.85h-2.35v-2.85h-2.85V0h-6.21v20.48h6.21v-11.42h2.35v2.85h3.35v-2.85h2.35v11.42h6.21V0h0Z"/>
      </g>
      <g>
        <path class="cls-1" d="M68.63,20.35V.13h17.38v2.85h2.85v8.81h-2.85v2.85h-11.42v5.71h-5.96ZM82.9,11.54V3.23h-8.31v8.31h8.31Z"/>
        <path class="cls-1" d="M85.88.25v2.85h2.85v8.56h-2.85v2.85h-11.42v5.71h-5.71V.25h17.13M74.46,11.67h8.56V3.1h-8.56v8.56M86.13,0h-17.63v20.48h6.21v-5.71h11.42v-2.85h2.85V2.85h-2.85V0h0ZM74.71,3.35h8.06v8.06h-8.06V3.35h0Z"/>
      </g>
      <g>
        <polygon class="cls-1" points="91.46 20.35 91.46 .13 97.42 .13 97.42 17.25 108.84 17.25 108.84 20.35 91.46 20.35"/>
        <path class="cls-1" d="M97.3.25v17.13h11.42v2.85h-17.13V.25h5.71M97.55,0h-6.21v20.48h17.63v-3.35h-11.42V0h0Z"/>
      </g>
      <g>
        <polygon class="cls-1" points="111.44 20.35 111.44 .13 128.82 .13 128.82 3.23 117.4 3.23 117.4 8.69 128.82 8.69 128.82 11.79 117.4 11.79 117.4 17.25 128.82 17.25 128.82 20.35 111.44 20.35"/>
        <path class="cls-1" d="M128.69.25v2.85h-11.42v5.71h11.42v2.85h-11.42v5.71h11.42v2.85h-17.13V.25h17.13M128.94,0h-17.63v20.48h17.63v-3.35h-11.42v-5.21h11.42v-3.35h-11.42V3.35h11.42V0h0Z"/>
      </g>
      <g>
        <polygon class="cls-1" points="137.15 20.35 137.13 3.23 131.42 3.23 131.42 .13 148.8 .13 148.8 3.23 143.09 3.23 143.09 20.35 137.15 20.35"/>
        <path class="cls-1" d="M148.67.25v2.85h-5.71v17.13h-5.69V3.1h-5.72V.25h17.13M148.92,0h-17.63v3.35h5.71v16.88s.01.25.01.25h6.19V3.35h5.71V0h0Z"/>
      </g>
      <g>
        <polygon class="cls-1" points="151.4 20.35 151.4 .13 168.78 .13 168.78 3.23 157.36 3.23 157.36 8.69 168.78 8.69 168.78 11.79 157.36 11.79 157.36 17.25 168.78 17.25 168.78 20.35 151.4 20.35"/>
        <path class="cls-1" d="M168.66.25v2.85h-11.42v5.71h11.42v2.85h-11.42v5.71h11.42v2.85h-17.13V.25h17.13M168.91,0h-17.63v20.48h17.63v-3.35h-11.42v-5.21h11.42v-3.35h-11.42V3.35h11.42V0h0Z"/>
      </g>
      <g>
        <path class="cls-1" d="M194.36,20.35V.13h17.38v2.85h2.85v8.81h-2.85v2.85h-11.42v5.71h-5.96ZM208.63,11.54V3.23h-8.31v8.31h8.31Z"/>
        <path class="cls-1" d="M211.61.25v2.85h2.85v8.56h-2.85v2.85h-11.42v5.71h-5.71V.25h17.13M200.2,11.67h8.56V3.1h-8.56v8.56M211.86,0h-17.63v20.48h6.21v-5.71h11.42v-2.85h2.85V2.85h-2.85V0h0ZM200.45,3.35h8.06v8.06h-8.06V3.35h0Z"/>
      </g>
      <g>
        <path class="cls-1" d="M231.47,20.35v-5.71h-8.31v5.71h-5.96V5.83h2.85v-2.85h2.85V.13h8.81v2.85h2.85v2.85h2.85v14.52h-5.96ZM231.47,11.54v-5.46h-2.85v-2.85h-2.6v2.85h-2.85v5.46h8.31Z"/>
        <path class="cls-1" d="M231.59.25v2.85h2.85v2.85h2.85v14.27h-5.71v-5.71h-8.56v5.71h-5.71V5.96h2.85v-2.85h2.85V.25h8.56M223.03,11.67h8.56v-5.71h-2.85v-2.85h-2.85v2.85h-2.85v5.71M231.84,0h-9.06v2.85h-2.85v2.85h-2.85v14.77h6.21v-5.71h8.06v5.71h6.21V5.71h-2.85v-2.85h-2.85V0h0ZM226.13,3.35h2.35v2.85h2.85v5.21h-8.06v-5.21h2.85v-2.85h0Z"/>
      </g>
      <g>
        <polygon class="cls-1" points="245.74 20.35 245.74 11.79 242.89 11.79 242.89 8.94 240.03 8.94 240.03 .13 245.99 .13 245.99 8.69 251.45 8.69 251.45 .13 257.41 .13 257.41 8.94 254.55 8.94 254.55 11.79 251.7 11.79 251.7 20.35 245.74 20.35"/>
        <path class="cls-1" d="M257.28.25v8.56h-2.85v2.85h-2.85v8.56h-5.71v-8.56h-2.85v-2.85h-2.85V.25h5.71v8.56h5.71V.25h5.71M257.53,0h-6.21v8.56h-5.21V0h-6.21v9.06h2.85v2.85h2.85v8.56h6.21v-8.56h2.85v-2.85h2.85V0h0Z"/>
      </g>
      <g>
        <polygon class="cls-1" points="274.28 20.35 274.28 8.94 271.68 8.94 271.68 11.79 268.57 11.79 268.57 8.94 265.97 8.94 265.97 20.35 260.01 20.35 260.01 .13 265.97 .13 265.97 2.98 268.82 2.98 268.82 5.83 271.43 5.83 271.43 2.98 274.28 2.98 274.28 .13 280.24 .13 280.24 20.35 274.28 20.35"/>
        <path class="cls-1" d="M280.12.25v19.98h-5.71v-11.42h-2.85v2.85h-2.85v-2.85h-2.85v11.42h-5.71V.25h5.71v2.85h2.85v2.85h2.85v-2.85h2.85V.25h5.71M280.37,0h-6.21v2.85h-2.85v2.85h-2.35v-2.85h-2.85V0h-6.21v20.48h6.21v-11.42h2.35v2.85h3.35v-2.85h2.35v11.42h6.21V0h0Z"/>
      </g>
      <g>
        <polygon class="cls-1" points="282.85 20.35 282.85 .13 300.22 .13 300.22 3.23 288.8 3.23 288.8 8.69 300.22 8.69 300.22 11.79 288.8 11.79 288.8 17.25 300.22 17.25 300.22 20.35 282.85 20.35"/>
        <path class="cls-1" d="M300.1.25v2.85h-11.42v5.71h11.42v2.85h-11.42v5.71h11.42v2.85h-17.13V.25h17.13M300.35,0h-17.63v20.48h17.63v-3.35h-11.42v-5.21h11.42v-3.35h-11.42V3.35h11.42V0h0Z"/>
      </g>
      <g>
        <polygon class="cls-1" points="317.1 20.35 317.1 17.5 314.24 17.5 314.24 14.65 311.39 14.65 311.39 11.79 308.78 11.79 308.78 20.35 302.83 20.35 302.83 .13 308.78 .13 308.78 2.98 311.64 2.98 311.64 5.83 314.49 5.83 314.49 8.69 317.1 8.69 317.1 .13 323.06 .13 323.06 20.35 317.1 20.35"/>
        <path class="cls-1" d="M322.93.25v19.98h-5.71v-2.85h-2.85v-2.85h-2.85v-2.85h-2.85v8.56h-5.71V.25h5.71v2.85h2.85v2.85h2.85v2.85h2.85V.25h5.71M323.18,0h-6.21v8.56h-2.35v-2.85h-2.85v-2.85h-2.85V0h-6.21v20.48h6.21v-8.56h2.35v2.85h2.85v2.85h2.85v2.85h6.21V0h0Z"/>
      </g>
      <g>
        <polygon class="cls-1" points="331.38 20.35 331.37 3.23 325.66 3.23 325.66 .13 343.04 .13 343.04 3.23 337.33 3.23 337.33 20.35 331.38 20.35"/>
        <path class="cls-1" d="M342.91.25v2.85h-5.71v17.13h-5.69V3.1h-5.72V.25h17.13M343.16,0h-17.63v3.35h5.71v16.88s.01.25.01.25h6.19V3.35h5.71V0h0Z"/>
      </g>
    </g>
  </g>
</svg>