<?xml version="1.0" encoding="UTF-8"?>
<svg shape-rendering="crispEdges" id="Layer_2" data-name="Layer 2" xmlns="http://www.w3.org/2000/svg" viewBox="0 0 364.02 21.34">
  <defs>
    <style>
      .cls-1 {
        fill: #e1ad2d;
      }
    </style>
  </defs>
  <g id="Layer_1-2" data-name="Layer 1">
    <g>
      <g>
        <path class="cls-1" d="M15.01,21.22v-5.96H6.33v5.96H.13V6.08h2.98v-2.98h2.98V.13h9.18v2.98h2.98v2.98h2.98v15.14h-6.21ZM15.01,12.03v-5.71h-2.98v-2.98h-2.73v2.98h-2.98v5.71h8.68Z"/>
        <path class="cls-1" d="M15.14.25v2.98h2.98v2.98h2.98v14.89h-5.95v-5.95H6.2v5.95H.25V6.2h2.98v-2.98h2.98V.25h8.93M6.2,12.16h8.93v-5.95h-2.98v-2.98h-2.98v2.98h-2.98v5.95M15.39,0H5.95v2.98h-2.98v2.98H0v15.39h6.45v-5.95h8.43v5.95h6.45V5.95h-2.98v-2.98h-2.98V0h0ZM9.43,3.48h2.48v2.98h2.98v5.45H6.45v-5.45h2.98v-2.98h0Z"/>
      </g>
      <g>
        <polygon class="cls-1" points="29.9 21.22 29.9 18.24 26.92 18.24 26.92 15.26 23.94 15.26 23.94 6.08 26.92 6.08 26.92 3.1 29.9 3.1 29.9 .13 42.06 .13 42.06 3.1 45.03 3.1 45.03 6.33 38.83 6.33 38.83 3.35 33.13 3.35 33.13 6.33 30.15 6.33 30.15 15.01 33.13 15.01 33.13 17.99 38.83 17.99 38.83 15.01 45.03 15.01 45.03 18.24 42.06 18.24 42.06 21.22 29.9 21.22"/>
        <path class="cls-1" d="M41.93.25v2.98h2.98v2.98h-5.95v-2.98h-5.95v2.98h-2.98v8.93h2.98v2.98h5.95v-2.98h5.95v2.98h-2.98v2.98h-11.91v-2.98h-2.98v-2.98h-2.98V6.2h2.98v-2.98h2.98V.25h11.91M42.18,0h-12.41v2.98h-2.98v2.98h-2.98v9.43h2.98v2.98h2.98v2.98h12.41v-2.98h2.98v-3.48h-6.45v2.98h-5.45v-2.98h-2.98V6.45h2.98v-2.98h5.45v2.98h6.45v-3.48h-2.98V0h0Z"/>
      </g>
      <g>
        <polygon class="cls-1" points="53.72 21.22 53.72 18.24 50.74 18.24 50.74 15.26 47.76 15.26 47.76 6.08 50.74 6.08 50.74 3.1 53.72 3.1 53.72 .13 65.87 .13 65.87 3.1 68.85 3.1 68.85 6.33 62.65 6.33 62.65 3.35 56.94 3.35 56.94 6.33 53.97 6.33 53.97 15.01 56.94 15.01 56.94 17.99 62.65 17.99 62.65 15.01 68.85 15.01 68.85 18.24 65.87 18.24 65.87 21.22 53.72 21.22"/>
        <path class="cls-1" d="M65.75.25v2.98h2.98v2.98h-5.95v-2.98h-5.95v2.98h-2.98v8.93h2.98v2.98h5.95v-2.98h5.95v2.98h-2.98v2.98h-11.91v-2.98h-2.98v-2.98h-2.98V6.2h2.98v-2.98h2.98V.25h11.91M66,0h-12.41v2.98h-2.98v2.98h-2.98v9.43h2.98v2.98h2.98v2.98h12.41v-2.98h2.98v-3.48h-6.45v2.98h-5.45v-2.98h-2.98V6.45h2.98v-2.98h5.45v2.98h6.45v-3.48h-2.98V0h0Z"/>
      </g>
      <g>
        <polygon class="cls-1" points="71.58 21.22 71.58 .13 89.69 .13 89.69 3.35 77.78 3.35 77.78 9.06 89.69 9.06 89.69 12.28 77.78 12.28 77.78 17.99 89.69 17.99 89.69 21.22 71.58 21.22"/>
        <path class="cls-1" d="M89.57.25v2.98h-11.91v5.95h11.91v2.98h-11.91v5.95h11.91v2.98h-17.86V.25h17.86M89.82,0h-18.36v21.34h18.36v-3.48h-11.91v-5.45h11.91v-3.48h-11.91V3.48h11.91V0h0Z"/>
      </g>
      <g>
        <path class="cls-1" d="M92.42,21.22V.13h18.11v2.98h2.98v9.18h-2.98v2.98h-11.91v5.96h-6.21ZM107.31,12.03V3.35h-8.68v8.68h8.68Z"/>
        <path class="cls-1" d="M110.41.25v2.98h2.98v8.93h-2.98v2.98h-11.91v5.95h-5.95V.25h17.86M98.5,12.16h8.93V3.23h-8.93v8.93M110.66,0h-18.36v21.34h6.45v-5.95h11.91v-2.98h2.98V2.98h-2.98V0h0ZM98.75,3.48h8.43v8.43h-8.43V3.48h0Z"/>
      </g>
      <g>
        <polygon class="cls-1" points="122.21 21.22 122.19 3.35 116.24 3.35 116.24 .13 134.35 .13 134.35 3.35 128.4 3.35 128.4 21.22 122.21 21.22"/>
        <path class="cls-1" d="M134.23.25v2.98h-5.95v17.86h-5.94V3.23h-5.97V.25h17.86M134.48,0h-18.36v3.48h5.95v17.61s.01.25.01.25h6.44V3.48h5.95V0h0Z"/>
      </g>
      <g>
        <path class="cls-1" d="M161.05,21.22V.13h18.11v2.98h2.98v6.2h-2.98v2.73h2.98v6.2h-2.98v2.98h-18.11ZM175.93,17.99v-5.7h-8.68v5.7h8.68ZM175.93,9.06V3.35h-8.68v5.7h8.68Z"/>
        <path class="cls-1" d="M179.03.25v2.98h2.98v5.95h-2.98v2.98h2.98v5.95h-2.98v2.98h-17.86V.25h17.86M167.12,9.18h8.93V3.23h-8.93v5.95M167.12,18.11h8.93v-5.95h-8.93v5.95M179.28,0h-18.36v21.34h18.36v-2.98h2.98v-6.45h-2.98v-2.48h2.98V2.98h-2.98V0h0ZM167.37,3.48h8.43v5.45h-8.43V3.48h0ZM167.37,12.41h8.43v5.45h-8.43v-5.45h0Z"/>
      </g>
      <g>
        <path class="cls-1" d="M187.84,21.22v-2.98h-2.98V3.1h2.98V.13h15.14v2.98h2.98v15.14h-2.98v2.98h-15.14ZM199.75,17.99V3.35h-8.68v14.64h8.68Z"/>
        <path class="cls-1" d="M202.85.25v2.98h2.98v14.89h-2.98v2.98h-14.89v-2.98h-2.98V3.23h2.98V.25h14.89M190.94,18.11h8.93V3.23h-8.93v14.89M203.1,0h-15.39v2.98h-2.98v15.39h2.98v2.98h15.39v-2.98h2.98V2.98h-2.98V0h0ZM191.19,3.48h8.43v14.39h-8.43V3.48h0Z"/>
      </g>
      <g>
        <polygon class="cls-1" points="214.65 21.22 214.64 3.35 208.68 3.35 208.68 .13 226.79 .13 226.79 3.35 220.84 3.35 220.84 21.22 214.65 21.22"/>
        <path class="cls-1" d="M226.67.25v2.98h-5.95v17.86h-5.94V3.23h-5.97V.25h17.86M226.92,0h-18.36v3.48h5.95v17.61s.01.25.01.25h6.44V3.48h5.95V0h0Z"/>
      </g>
      <g>
        <polygon class="cls-1" points="259.46 21.22 259.44 3.35 253.49 3.35 253.49 .13 271.6 .13 271.6 3.35 265.65 3.35 265.65 21.22 259.46 21.22"/>
        <path class="cls-1" d="M271.48.25v2.98h-5.95v17.86h-5.94V3.23h-5.97V.25h17.86M271.73,0h-18.36v3.48h5.95v17.61s.01.25.01.25h6.44V3.48h5.95V0h0Z"/>
      </g>
      <g>
        <path class="cls-1" d="M286.24,21.22v-2.98h-2.98v-2.98h-2.73v5.96h-6.2V.13h18.11v2.98h2.98v9.18h-5.96v2.73h2.98v2.98l3.11-.03v3.26h-9.32ZM286.24,12.03v-2.98h2.98V3.35h-8.68v8.68h5.71Z"/>
        <path class="cls-1" d="M292.32.25v2.98h2.98v8.93h-5.95v2.98h2.98v2.98l3.11-.03v3.01h-9.07v-2.98h-2.98v-2.98h-2.98v5.95h-5.95V.25h17.86M280.41,12.16h5.95v-2.98h2.98V3.23h-8.93v8.93M292.57,0h-18.36v21.34h6.45v-5.95h2.48v2.98h2.98v2.98h9.57v-3.51h-.25s-2.86.03-2.86.03v-2.97h-2.98v-2.48h5.95V2.98h-2.98V0h0ZM280.66,3.48h8.43v5.45h-2.98v2.98h-5.45V3.48h0Z"/>
      </g>
      <g>
        <path class="cls-1" d="M313.03,21.22v-5.96h-8.68v5.96h-6.21V6.08h2.98v-2.98h2.98V.13h9.18v2.98h2.98v2.98h2.98v15.14h-6.2ZM313.03,12.03v-5.71h-2.98v-2.98h-2.73v2.98h-2.98v5.71h8.68Z"/>
        <path class="cls-1" d="M313.16.25v2.98h2.98v2.98h2.98v14.89h-5.95v-5.95h-8.93v5.95h-5.95V6.2h2.98v-2.98h2.98V.25h8.93M304.23,12.16h8.93v-5.95h-2.98v-2.98h-2.98v2.98h-2.98v5.95M313.41,0h-9.43v2.98h-2.98v2.98h-2.98v15.39h6.45v-5.95h8.43v5.95h6.45V5.95h-2.98v-2.98h-2.98V0h0ZM307.45,3.48h2.48v2.98h2.98v5.45h-8.43v-5.45h2.98v-2.98h0Z"/>
      </g>
      <g>
        <path class="cls-1" d="M321.97,21.22V.13h15.14v2.98h2.98v2.98h2.98v9.18h-2.98v2.98h-2.98v2.98h-15.14ZM333.87,17.99v-2.98h2.98V6.33h-2.98v-2.98h-5.71v14.64h5.71Z"/>
        <path class="cls-1" d="M336.98.25v2.98h2.98v2.98h2.98v8.93h-2.98v2.98h-2.98v2.98h-14.89V.25h14.89M328.04,18.11h5.95v-2.98h2.98V6.2h-2.98v-2.98h-5.95v14.89M337.23,0h-15.39v21.34h15.39v-2.98h2.98v-2.98h2.98V5.95h-2.98v-2.98h-2.98V0h0ZM328.29,3.48h5.45v2.98h2.98v8.43h-2.98v2.98h-5.45V3.48h0Z"/>
      </g>
      <g>
        <polygon class="cls-1" points="345.78 21.22 345.78 .13 363.9 .13 363.9 3.35 351.99 3.35 351.99 9.06 363.9 9.06 363.9 12.28 351.99 12.28 351.99 17.99 363.9 17.99 363.9 21.22 345.78 21.22"/>
        <path class="cls-1" d="M363.77.25v2.98h-11.91v5.95h11.91v2.98h-11.91v5.95h11.91v2.98h-17.86V.25h17.86M364.02,0h-18.36v21.34h18.36v-3.48h-11.91v-5.45h11.91v-3.48h-11.91V3.48h11.91V0h0Z"/>
      </g>
    </g>
  </g>
</svg>