<?xml version="1.0" encoding="UTF-8"?>
<svg shape-rendering="crispEdges" id="Layer_2" data-name="Layer 2" xmlns="http://www.w3.org/2000/svg" viewBox="0 0 408.34 16.8">
  <defs>
    <style>
      .cls-1 {
        fill: #e1ad2d;
      }
    </style>
  </defs>
  <g id="Layer_1-2" data-name="Layer 1">
    <g>
      <g>
        <path class="cls-1" d="M.12,16.68V.13h14.22v2.33h2.33v4.91h-2.33v2.08h2.33v4.91h-2.33v2.33H.12ZM11.77,14.1v-4.41h-6.74v4.41h6.74ZM11.77,7.11V2.7h-6.74v4.41h6.74Z"/>
        <path class="cls-1" d="M14.22.25v2.33h2.33v4.66h-2.33v2.33h2.33v4.66h-2.33v2.33H.25V.25h13.97M4.91,7.24h6.99V2.58h-6.99v4.66M4.91,14.22h6.99v-4.66h-6.99v4.66M14.47,0H0v16.8h14.47v-2.33h2.33v-5.16h-2.33v-1.83h2.33V2.33h-2.33V0h0ZM5.16,2.83h6.49v4.16h-6.49V2.83h0ZM5.16,9.81h6.49v4.16h-6.49v-4.16h0Z"/>
      </g>
      <g>
        <path class="cls-1" d="M28.07,16.68v-2.33h-2.33v-2.33h-2.08v4.66h-4.91V.13h14.22v2.33h2.33v7.24h-4.66v2.08h2.33v2.33l2.43-.02v2.6h-7.34ZM28.07,9.44v-2.33h2.33V2.7h-6.74v6.74h4.41Z"/>
        <path class="cls-1" d="M32.85.25v2.33h2.33v6.99h-4.66v2.33h2.33v2.33l2.43-.02v2.35h-7.09v-2.33h-2.33v-2.33h-2.33v4.66h-4.66V.25h13.97M23.54,9.56h4.66v-2.33h2.33V2.58h-6.99v6.99M33.1,0h-14.47v16.8h5.16v-4.66h1.83v2.33h2.33v2.33h7.59v-2.85h-.25s-2.18.02-2.18.02v-2.33h-2.33v-1.83h4.66V2.33h-2.33V0h0ZM23.79,2.83h6.49v4.16h-2.33v2.33h-4.16V2.83h0Z"/>
      </g>
      <g>
        <path class="cls-1" d="M39.71,16.68v-2.33h-2.33V2.45h2.33V.13h11.89v2.33h2.33v11.89h-2.33v2.33h-11.89ZM49.02,14.1V2.7h-6.74v11.39h6.74Z"/>
        <path class="cls-1" d="M51.48.25v2.33h2.33v11.64h-2.33v2.33h-11.64v-2.33h-2.33V2.58h2.33V.25h11.64M42.16,14.22h6.99V2.58h-6.99v11.64M51.73,0h-12.14v2.33h-2.33v12.14h2.33v2.33h12.14v-2.33h2.33V2.33h-2.33V0h0ZM42.41,2.83h6.49v11.14h-6.49V2.83h0Z"/>
      </g>
      <g>
        <polygon class="cls-1" points="67.65 16.68 67.65 14.35 65.32 14.35 65.32 12.02 63.25 12.02 63.25 14.35 60.92 14.35 60.92 16.68 56.01 16.68 56.01 .13 60.92 .13 60.92 9.44 63 9.44 63.03 7.06 65.62 7.06 65.62 9.41 67.65 9.44 67.65 .13 72.56 .13 72.56 16.68 67.65 16.68"/>
        <path class="cls-1" d="M72.43.25v16.3h-4.66v-2.33h-2.33v-2.33h-2.33v2.33h-2.33v2.33h-4.66V.25h4.66v9.31h2.33l.03-2.38h2.34v2.34l2.28.03V.25h4.66M72.68,0h-5.16v9.31l-1.78-.03v-2.34h-2.84v.25s-.03,2.13-.03,2.13h-1.83V0h-5.16v16.8h5.16v-2.33h2.33v-2.33h1.83v2.33h2.33v2.33h5.16V0h0Z"/>
      </g>
      <g>
        <polygon class="cls-1" points="76.97 16.68 76.97 14.35 74.64 14.35 74.64 11.73 79.58 11.73 79.55 14.1 86.28 14.1 86.28 9.69 76.97 9.69 76.97 7.36 74.64 7.36 74.64 2.45 76.97 2.45 76.97 .13 86.53 .13 86.53 2.45 88.86 2.45 88.86 5.03 83.95 5.03 83.95 2.7 79.55 2.7 79.55 7.11 88.86 7.11 88.86 9.44 91.19 9.44 91.19 14.35 88.86 14.35 88.86 16.68 76.97 16.68"/>
        <path class="cls-1" d="M86.41.25v2.33h2.33v2.33h-4.66v-2.33h-4.66v4.66h9.31v2.33h2.33v4.66h-2.33v2.33h-11.64v-2.33h-2.33v-2.36h4.69l-.03,2.36h6.99v-4.66h-9.31v-2.33h-2.33V2.58h2.33V.25h9.31M79.46,11.86h0M86.66,0h-9.81v2.33h-2.33v5.16h2.33v2.33h9.31v4.16h-6.48l.03-2.11v-.25s-.25,0-.25,0h-4.95v2.86h2.33v2.33h12.14v-2.33h2.33v-5.16h-2.33v-2.33h-9.31V2.83h4.16v2.33h5.16v-2.83h-2.33V0h0Z"/>
      </g>
      <g>
        <polygon class="cls-1" points="93.27 16.68 93.27 .13 107.49 .13 107.49 2.7 98.17 2.7 98.17 7.11 107.49 7.11 107.49 9.69 98.17 9.69 98.17 14.1 107.49 14.1 107.49 16.68 93.27 16.68"/>
        <path class="cls-1" d="M107.36.25v2.33h-9.31v4.66h9.31v2.33h-9.31v4.66h9.31v2.33h-13.97V.25h13.97M107.61,0h-14.47v16.8h14.47v-2.83h-9.31v-4.16h9.31v-2.83h-9.31V2.83h9.31V0h0Z"/>
      </g>
      <g>
        <path class="cls-1" d="M139.95,16.68v-4.66h-6.74v4.66h-4.91V4.78h2.33v-2.33h2.33V.13h7.24v2.33h2.33v2.33h2.33v11.89h-4.91ZM139.95,9.44v-4.41h-2.33v-2.33h-2.08v2.33h-2.33v4.41h6.74Z"/>
        <path class="cls-1" d="M140.08.25v2.33h2.33v2.33h2.33v11.64h-4.66v-4.66h-6.99v4.66h-4.66V4.91h2.33v-2.33h2.33V.25h6.99M133.09,9.56h6.99v-4.66h-2.33v-2.33h-2.33v2.33h-2.33v4.66M140.33,0h-7.49v2.33h-2.33v2.33h-2.33v12.14h5.16v-4.66h6.49v4.66h5.16V4.66h-2.33v-2.33h-2.33V0h0ZM135.67,2.83h1.83v2.33h2.33v4.16h-6.49v-4.16h2.33v-2.33h0Z"/>
      </g>
      <g>
        <polygon class="cls-1" points="158.58 16.68 158.58 14.35 156.25 14.35 156.25 12.02 153.93 12.02 153.93 9.69 151.85 9.69 151.85 16.68 146.94 16.68 146.94 .13 151.85 .13 151.85 2.45 154.18 2.45 154.18 4.78 156.5 4.78 156.5 7.11 158.58 7.11 158.58 .13 163.49 .13 163.49 16.68 158.58 16.68"/>
        <path class="cls-1" d="M163.36.25v16.3h-4.66v-2.33h-2.33v-2.33h-2.33v-2.33h-2.33v6.99h-4.66V.25h4.66v2.33h2.33v2.33h2.33v2.33h2.33V.25h4.66M163.61,0h-5.16v6.99h-1.83v-2.33h-2.33v-2.33h-2.33V0h-5.16v16.8h5.16v-6.99h1.83v2.33h2.33v2.33h2.33v2.33h5.16V0h0Z"/>
      </g>
      <g>
        <path class="cls-1" d="M165.57,16.68V.13h11.89v2.33h2.33v2.33h2.33v7.24h-2.33v2.33h-2.33v2.33h-11.89ZM174.88,14.1v-2.33h2.33v-6.74h-2.33v-2.33h-4.41v11.39h4.41Z"/>
        <path class="cls-1" d="M177.34.25v2.33h2.33v2.33h2.33v6.99h-2.33v2.33h-2.33v2.33h-11.64V.25h11.64M170.35,14.22h4.66v-2.33h2.33v-6.99h-2.33v-2.33h-4.66v11.64M177.59,0h-12.14v16.8h12.14v-2.33h2.33v-2.33h2.33v-7.49h-2.33v-2.33h-2.33V0h0ZM170.6,2.83h4.16v2.33h2.33v6.49h-2.33v2.33h-4.16V2.83h0Z"/>
      </g>
      <g>
        <polygon class="cls-1" points="205.27 16.68 205.27 14.35 202.94 14.35 202.94 11.73 207.89 11.73 207.85 14.1 214.58 14.1 214.58 9.69 205.27 9.69 205.27 7.36 202.94 7.36 202.94 2.45 205.27 2.45 205.27 .13 214.83 .13 214.83 2.45 217.16 2.45 217.16 5.03 212.26 5.03 212.26 2.7 207.85 2.7 207.85 7.11 217.16 7.11 217.16 9.44 219.49 9.44 219.49 14.35 217.16 14.35 217.16 16.68 205.27 16.68"/>
        <path class="cls-1" d="M214.71.25v2.33h2.33v2.33h-4.66v-2.33h-4.66v4.66h9.31v2.33h2.33v4.66h-2.33v2.33h-11.64v-2.33h-2.33v-2.36h4.69l-.03,2.36h6.99v-4.66h-9.31v-2.33h-2.33V2.58h2.33V.25h9.31M207.76,11.86h0M214.96,0h-9.81v2.33h-2.33v5.16h2.33v2.33h9.31v4.16h-6.48l.03-2.11v-.25s-.25,0-.25,0h-4.95v2.86h2.33v2.33h12.14v-2.33h2.33v-5.16h-2.33v-2.33h-9.31V2.83h4.16v2.33h5.16v-2.83h-2.33V0h0Z"/>
      </g>
      <g>
        <polygon class="cls-1" points="221.57 16.68 221.57 .13 235.79 .13 235.79 2.7 226.48 2.7 226.48 7.11 235.79 7.11 235.79 9.69 226.48 9.69 226.48 14.1 235.79 14.1 235.79 16.68 221.57 16.68"/>
        <path class="cls-1" d="M235.67.25v2.33h-9.31v4.66h9.31v2.33h-9.31v4.66h9.31v2.33h-13.97V.25h13.97M235.92,0h-14.47v16.8h14.47v-2.83h-9.31v-4.16h9.31v-2.83h-9.31V2.83h9.31V0h0Z"/>
      </g>
      <g>
        <polygon class="cls-1" points="237.87 16.68 237.87 .13 242.78 .13 242.78 14.1 252.09 14.1 252.09 16.68 237.87 16.68"/>
        <path class="cls-1" d="M242.65.25v13.97h9.31v2.33h-13.97V.25h4.66M242.9,0h-5.16v16.8h14.47v-2.83h-9.31V0h0Z"/>
      </g>
      <g>
        <polygon class="cls-1" points="254.17 16.68 254.17 .13 268.39 .13 268.39 2.7 259.08 2.7 259.08 7.11 268.39 7.11 268.39 9.69 259.08 9.69 259.08 14.1 268.39 14.1 268.39 16.68 254.17 16.68"/>
        <path class="cls-1" d="M268.27.25v2.33h-9.31v4.66h9.31v2.33h-9.31v4.66h9.31v2.33h-13.97V.25h13.97M268.52,0h-14.47v16.8h14.47v-2.83h-9.31v-4.16h9.31v-2.83h-9.31V2.83h9.31V0h0Z"/>
      </g>
      <g>
        <polygon class="cls-1" points="275.13 16.68 275.13 14.35 272.8 14.35 272.8 12.02 270.47 12.02 270.47 4.78 272.8 4.78 272.8 2.45 275.13 2.45 275.13 .13 284.69 .13 284.69 2.45 287.02 2.45 287.02 5.03 282.11 5.03 282.11 2.7 277.7 2.7 277.7 5.03 275.38 5.03 275.38 11.77 277.7 11.77 277.7 14.1 282.11 14.1 282.11 11.77 287.02 11.77 287.02 14.35 284.69 14.35 284.69 16.68 275.13 16.68"/>
        <path class="cls-1" d="M284.57.25v2.33h2.33v2.33h-4.66v-2.33h-4.66v2.33h-2.33v6.99h2.33v2.33h4.66v-2.33h4.66v2.33h-2.33v2.33h-9.31v-2.33h-2.33v-2.33h-2.33v-6.99h2.33v-2.33h2.33V.25h9.31M284.82,0h-9.81v2.33h-2.33v2.33h-2.33v7.49h2.33v2.33h2.33v2.33h9.81v-2.33h2.33v-2.83h-5.16v2.33h-4.16v-2.33h-2.33v-6.49h2.33v-2.33h4.16v2.33h5.16v-2.83h-2.33V0h0Z"/>
      </g>
      <g>
        <polygon class="cls-1" points="293.77 16.68 293.75 2.7 289.1 2.7 289.1 .13 303.32 .13 303.32 2.7 298.66 2.7 298.66 16.68 293.77 16.68"/>
        <path class="cls-1" d="M303.19.25v2.33h-4.66v13.97h-4.65V2.58h-4.67V.25h13.97M303.44,0h-14.47v2.83h4.66v13.72s.01.25.01.25h5.15V2.83h4.66V0h0Z"/>
      </g>
      <g>
        <polygon class="cls-1" points="324.14 16.68 324.14 14.1 328.8 14.1 328.8 2.7 324.14 2.7 324.14 .13 338.36 .13 338.36 2.7 333.71 2.7 333.71 14.1 338.36 14.1 338.36 16.68 324.14 16.68"/>
        <path class="cls-1" d="M338.24.25v2.33h-4.66v11.64h4.66v2.33h-13.97v-2.33h4.66V2.58h-4.66V.25h13.97M338.49,0h-14.47v2.83h4.66v11.14h-4.66v2.83h14.47v-2.83h-4.66V2.83h4.66V0h0Z"/>
      </g>
      <g>
        <polygon class="cls-1" points="345.11 16.68 345.1 2.7 340.44 2.7 340.44 .13 354.66 .13 354.66 2.7 350.01 2.7 350.01 16.68 345.11 16.68"/>
        <path class="cls-1" d="M354.54.25v2.33h-4.66v13.97h-4.65V2.58h-4.67V.25h13.97M354.79,0h-14.47v2.83h4.66v13.72s.01.25.01.25h5.15V2.83h4.66V0h0Z"/>
      </g>
      <g>
        <polygon class="cls-1" points="356.74 16.68 356.74 .13 370.96 .13 370.96 2.7 361.65 2.7 361.65 7.11 370.96 7.11 370.96 9.69 361.65 9.69 361.65 14.1 370.96 14.1 370.96 16.68 356.74 16.68"/>
        <path class="cls-1" d="M370.84.25v2.33h-9.31v4.66h9.31v2.33h-9.31v4.66h9.31v2.33h-13.97V.25h13.97M371.09,0h-14.47v16.8h14.47v-2.83h-9.31v-4.16h9.31v-2.83h-9.31V2.83h9.31V0h0Z"/>
      </g>
      <g>
        <polygon class="cls-1" points="384.68 16.68 384.68 7.36 382.61 7.36 382.61 9.69 380.03 9.69 380.03 7.36 377.95 7.36 377.95 16.68 373.04 16.68 373.04 .13 377.95 .13 377.95 2.45 380.28 2.45 380.28 4.78 382.36 4.78 382.36 2.45 384.68 2.45 384.68 .13 389.59 .13 389.59 16.68 384.68 16.68"/>
        <path class="cls-1" d="M389.47.25v16.3h-4.66V7.24h-2.33v2.33h-2.33v-2.33h-2.33v9.31h-4.66V.25h4.66v2.33h2.33v2.33h2.33v-2.33h2.33V.25h4.66M389.72,0h-5.16v2.33h-2.33v2.33h-1.83v-2.33h-2.33V0h-5.16v16.8h5.16V7.49h1.83v2.33h2.83v-2.33h1.83v9.31h5.16V0h0Z"/>
      </g>
      <g>
        <polygon class="cls-1" points="394 16.68 394 14.35 391.67 14.35 391.67 11.73 396.61 11.73 396.58 14.1 403.31 14.1 403.31 9.69 394 9.69 394 7.36 391.67 7.36 391.67 2.45 394 2.45 394 .13 403.56 .13 403.56 2.45 405.89 2.45 405.89 5.03 400.98 5.03 400.98 2.7 396.58 2.7 396.58 7.11 405.89 7.11 405.89 9.44 408.22 9.44 408.22 14.35 405.89 14.35 405.89 16.68 394 16.68"/>
        <path class="cls-1" d="M403.44.25v2.33h2.33v2.33h-4.66v-2.33h-4.66v4.66h9.31v2.33h2.33v4.66h-2.33v2.33h-11.64v-2.33h-2.33v-2.36h4.69l-.03,2.36h6.99v-4.66h-9.31v-2.33h-2.33V2.58h2.33V.25h9.31M396.49,11.86h0M403.69,0h-9.81v2.33h-2.33v5.16h2.33v2.33h9.31v4.16h-6.48l.03-2.11v-.25s-.25,0-.25,0h-4.95v2.86h2.33v2.33h12.14v-2.33h2.33v-5.16h-2.33v-2.33h-9.31V2.83h4.16v2.33h5.16v-2.83h-2.33V0h0Z"/>
      </g>
    </g>
  </g>
</svg>