<?xml version="1.0" encoding="UTF-8"?>
<svg shape-rendering="crispEdges" id="Layer_2" data-name="Layer 2" xmlns="http://www.w3.org/2000/svg" viewBox="0 0 347.54 19.17">
  <defs>
    <style>
      .cls-1 {
        fill: #e1ad2d;
      }
    </style>
  </defs>
  <g id="Layer_1-2" data-name="Layer 1">
    <g>
      <g>
        <polygon class="cls-1" points=".12 19.05 .12 .13 5.71 .13 5.71 16.13 16.38 16.13 16.38 19.05 .12 19.05"/>
        <path class="cls-1" d="M5.58.25v16h10.67v2.67H.25V.25h5.33M5.83,0H0v19.17h16.5v-3.17H5.83V0h0Z"/>
      </g>
      <g>
        <path class="cls-1" d="M21.47,19.05v-2.67h-2.67V2.79h2.67V.13h13.59v2.67h2.67v13.59h-2.67v2.67h-13.59ZM32.14,16.13V3.04h-7.75v13.09h7.75Z"/>
        <path class="cls-1" d="M34.93.25v2.67h2.67v13.34h-2.67v2.67h-13.34v-2.67h-2.67V2.92h2.67V.25h13.34M24.26,16.25h8V2.92h-8v13.34M35.18,0h-13.84v2.67h-2.67v13.84h2.67v2.67h13.84v-2.67h2.67V2.67h-2.67V0h0ZM24.51,3.17h7.5v12.84h-7.5V3.17h0Z"/>
      </g>
      <g>
        <polygon class="cls-1" points="45.47 19.05 45.47 16.38 42.81 16.38 42.81 13.71 40.14 13.71 40.14 5.46 42.81 5.46 42.81 2.79 45.47 2.79 45.47 .13 59.06 .13 59.06 3.04 48.39 3.04 48.39 5.71 45.72 5.71 45.72 13.46 48.39 13.46 48.39 16.13 53.48 16.13 53.48 11.05 50.81 11.05 50.81 8.13 59.06 8.13 59.06 19.05 45.47 19.05"/>
        <path class="cls-1" d="M58.93.25v2.67h-10.67v2.67h-2.67v8h2.67v2.67h5.33v-5.33h-2.67v-2.67h8v10.67h-13.34v-2.67h-2.67v-2.67h-2.67V5.58h2.67v-2.67h2.67V.25h13.34M59.18,0h-13.84v2.67h-2.67v2.67h-2.67v8.5h2.67v2.67h2.67v2.67h13.84v-11.17h-8.5v3.17h2.67v4.83h-4.83v-2.67h-2.67v-7.5h2.67v-2.67h10.67V0h0Z"/>
      </g>
      <g>
        <polygon class="cls-1" points="61.48 19.05 61.48 16.13 66.81 16.13 66.81 3.04 61.48 3.04 61.48 .13 77.73 .13 77.73 3.04 72.4 3.04 72.4 16.13 77.73 16.13 77.73 19.05 61.48 19.05"/>
        <path class="cls-1" d="M77.61.25v2.67h-5.33v13.34h5.33v2.67h-16v-2.67h5.33V2.92h-5.33V.25h16M77.86,0h-16.5v3.17h5.33v12.84h-5.33v3.17h16.5v-3.17h-5.33V3.17h5.33V0h0Z"/>
      </g>
      <g>
        <polygon class="cls-1" points="93.49 19.05 93.49 16.38 90.82 16.38 90.82 13.71 88.15 13.71 88.15 11.05 85.73 11.05 85.73 19.05 80.15 19.05 80.15 .13 85.73 .13 85.73 2.79 88.4 2.79 88.4 5.46 91.07 5.46 91.07 8.13 93.49 8.13 93.49 .13 99.07 .13 99.07 19.05 93.49 19.05"/>
        <path class="cls-1" d="M98.95.25v18.67h-5.33v-2.67h-2.67v-2.67h-2.67v-2.67h-2.67v8h-5.33V.25h5.33v2.67h2.67v2.67h2.67v2.67h2.67V.25h5.33M99.2,0h-5.83v8h-2.17v-2.67h-2.67v-2.67h-2.67V0h-5.83v19.17h5.83v-8h2.17v2.67h2.67v2.67h2.67v2.67h5.83V0h0Z"/>
      </g>
      <g>
        <polygon class="cls-1" points="136.3 19.05 136.3 16.38 133.63 16.38 133.63 13.71 131.22 13.71 131.22 16.38 128.55 16.38 128.55 19.05 122.96 19.05 122.96 .13 128.55 .13 128.55 10.8 130.97 10.8 131.01 8.07 133.94 8.07 133.94 10.76 136.3 10.79 136.3 .13 141.89 .13 141.89 19.05 136.3 19.05"/>
        <path class="cls-1" d="M141.76.25v18.67h-5.33v-2.67h-2.67v-2.67h-2.67v2.67h-2.67v2.67h-5.33V.25h5.33v10.67h2.67l.04-2.72h2.68v2.68l2.61.04V.25h5.33M142.01,0h-5.83v10.67l-2.11-.03v-2.68h-3.18v.25s-.04,2.47-.04,2.47h-2.17V0h-5.83v19.17h5.83v-2.67h2.67v-2.67h2.17v2.67h2.67v2.67h5.83V0h0Z"/>
      </g>
      <g>
        <polygon class="cls-1" points="144.3 19.05 144.3 16.13 149.64 16.13 149.64 3.04 144.3 3.04 144.3 .13 160.56 .13 160.56 3.04 155.22 3.04 155.22 16.13 160.56 16.13 160.56 19.05 144.3 19.05"/>
        <path class="cls-1" d="M160.43.25v2.67h-5.33v13.34h5.33v2.67h-16v-2.67h5.33V2.92h-5.33V.25h16M160.68,0h-16.5v3.17h5.33v12.84h-5.33v3.17h16.5v-3.17h-5.33V3.17h5.33V0h0Z"/>
      </g>
      <g>
        <polygon class="cls-1" points="168.32 19.05 168.31 3.04 162.98 3.04 162.98 .13 179.23 .13 179.23 3.04 173.9 3.04 173.9 19.05 168.32 19.05"/>
        <path class="cls-1" d="M179.1.25v2.67h-5.33v16h-5.32V2.92h-5.35V.25h16M179.35,0h-16.5v3.17h5.34v15.76s.01.25.01.25h5.82V3.17h5.33V0h0Z"/>
      </g>
      <g>
        <polygon class="cls-1" points="194.98 19.05 194.98 11.05 187.23 11.05 187.23 19.05 181.65 19.05 181.65 .13 187.23 .13 187.23 8.13 194.98 8.13 194.98 .13 200.57 .13 200.57 19.05 194.98 19.05"/>
        <path class="cls-1" d="M200.44.25v18.67h-5.33v-8h-8v8h-5.33V.25h5.33v8h8V.25h5.33M200.69,0h-5.83v8h-7.5V0h-5.83v19.17h5.83v-8h7.5v8h5.83V0h0Z"/>
      </g>
      <g>
        <path class="cls-1" d="M235.13,19.05v-2.67h-2.67v-2.67h-2.42v5.33h-5.58V.13h16.25v2.67h2.67v8.25h-5.33v2.42h2.67v2.67l2.79-.03v2.95h-8.37ZM235.13,10.8v-2.67h2.67V3.04h-7.75v7.75h5.08Z"/>
        <path class="cls-1" d="M240.59.25v2.67h2.67v8h-5.33v2.67h2.67v2.67l2.79-.03v2.69h-8.12v-2.67h-2.67v-2.67h-2.67v5.33h-5.33V.25h16M229.92,10.92h5.33v-2.67h2.67V2.92h-8v8M240.84,0h-16.5v19.17h5.83v-5.33h2.17v2.67h2.67v2.67h8.62v-3.2h-.25s-2.54.03-2.54.03v-2.67h-2.67v-2.17h5.33V2.67h-2.67V0h0ZM230.17,3.17h7.5v4.83h-2.67v2.67h-4.83V3.17h0Z"/>
      </g>
      <g>
        <path class="cls-1" d="M248.47,19.05v-2.67h-2.67V2.79h2.67V.13h13.59v2.67h2.67v13.59h-2.67v2.67h-13.59ZM259.14,16.13V3.04h-7.75v13.09h7.75Z"/>
        <path class="cls-1" d="M261.93.25v2.67h2.67v13.34h-2.67v2.67h-13.34v-2.67h-2.67V2.92h2.67V.25h13.34M251.26,16.25h8V2.92h-8v13.34M262.18,0h-13.84v2.67h-2.67v13.84h2.67v2.67h13.84v-2.67h2.67V2.67h-2.67V0h0ZM251.51,3.17h7.5v12.84h-7.5V3.17h0Z"/>
      </g>
      <g>
        <path class="cls-1" d="M267.14,19.05V.13h16.25v2.67h2.67v5.58h-2.67v2.42h2.67v5.58h-2.67v2.67h-16.25ZM280.48,16.13v-5.08h-7.75v5.08h7.75ZM280.48,8.13V3.04h-7.75v5.08h7.75Z"/>
        <path class="cls-1" d="M283.27.25v2.67h2.67v5.33h-2.67v2.67h2.67v5.33h-2.67v2.67h-16V.25h16M272.6,8.25h8V2.92h-8v5.33M272.6,16.25h8v-5.33h-8v5.33M283.52,0h-16.5v19.17h16.5v-2.67h2.67v-5.83h-2.67v-2.17h2.67V2.67h-2.67V0h0ZM272.85,3.17h7.5v4.83h-7.5V3.17h0ZM272.85,11.17h7.5v4.83h-7.5v-4.83h0Z"/>
      </g>
      <g>
        <polygon class="cls-1" points="288.48 19.05 288.48 .13 294.06 .13 294.06 16.13 304.73 16.13 304.73 19.05 288.48 19.05"/>
        <path class="cls-1" d="M293.94.25v16h10.67v2.67h-16V.25h5.33M294.19,0h-5.83v19.17h16.5v-3.17h-10.67V0h0Z"/>
      </g>
      <g>
        <path class="cls-1" d="M309.82,19.05v-2.67h-2.67V2.79h2.67V.13h13.59v2.67h2.67v13.59h-2.67v2.67h-13.59ZM320.49,16.13V3.04h-7.75v13.09h7.75Z"/>
        <path class="cls-1" d="M323.28.25v2.67h2.67v13.34h-2.67v2.67h-13.34v-2.67h-2.67V2.92h2.67V.25h13.34M312.61,16.25h8V2.92h-8v13.34M323.53,0h-13.84v2.67h-2.67v13.84h2.67v2.67h13.84v-2.67h2.67V2.67h-2.67V0h0ZM312.86,3.17h7.5v12.84h-7.5V3.17h0Z"/>
      </g>
      <g>
        <polygon class="cls-1" points="341.83 19.05 341.83 16.38 339.16 16.38 339.16 13.71 336.74 13.71 336.74 16.38 334.08 16.38 334.08 19.05 328.49 19.05 328.49 13.46 331.16 13.46 331.16 10.8 333.83 10.8 333.83 8.38 331.16 8.38 331.16 5.71 328.49 5.71 328.49 .13 334.08 .13 334.08 2.79 336.74 2.79 336.74 5.46 339.16 5.46 339.16 2.79 341.83 2.79 341.83 .13 347.41 .13 347.41 5.71 344.75 5.71 344.75 8.38 342.08 8.38 342.08 10.8 344.75 10.8 344.75 13.46 347.41 13.46 347.41 19.05 341.83 19.05"/>
        <path class="cls-1" d="M347.29.25v5.33h-2.67v2.67h-2.67v2.67h2.67v2.67h2.67v5.33h-5.33v-2.67h-2.67v-2.67h-2.67v2.67h-2.67v2.67h-5.33v-5.33h2.67v-2.67h2.67v-2.67h-2.67v-2.67h-2.67V.25h5.33v2.67h2.67v2.67h2.67v-2.67h2.67V.25h5.33M347.54,0h-5.83v2.67h-2.67v2.67h-2.17v-2.67h-2.67V0h-5.83v5.83h2.67v2.67h2.67v2.17h-2.67v2.67h-2.67v5.83h5.83v-2.67h2.67v-2.67h2.17v2.67h2.67v2.67h5.83v-5.83h-2.67v-2.67h-2.67v-2.17h2.67v-2.67h2.67V0h0Z"/>
      </g>
    </g>
  </g>
</svg>