<?xml version="1.0" encoding="UTF-8"?>
<svg shape-rendering="crispEdges" id="Layer_2" data-name="Layer 2" xmlns="http://www.w3.org/2000/svg" viewBox="0 0 1193.33 1037.69">
  <defs>
    <style>
      .cls-1 {
        fill: #3084b1;
      }
    </style>
  </defs>
  <g id="Layer_1-2" data-name="Layer 1">
    <g>
      <path class="cls-1" d="M247.14,691.33c-2.86-6.7-11.78-14.55-18.27-14.53l-46.59.15c43.38,151.28,168.3,277.65,315.74,330.29,115.33,41.17,242.41,40.65,357.29-1.97,175.37-65.06,304.65-222.32,332.39-407.64,28.53-190.59-53.06-383.28-206.71-497.93C894.76,35.35,791.92,1.69,684.57.06c-167.6-2.55-323.65,73.22-424.58,206.86-34.5,45.68-62.07,96.64-76.87,153.07l35.11,1.47c13.23.55,26.35-7.22,32.23-20.69C358.23,94.03,644.94-15.4,886.11,109.97c185.52,96.44,282.47,302.6,238.03,507.69-20.69,95.52-69.42,182.22-144.87,246.65-90.9,77.63-207.51,118.98-327.71,114.15-180.28-7.24-334.67-123.86-404.42-287.13ZM823.05,394.21c0-81.95-66.44-148.39-148.39-148.39s-148.39,66.44-148.39,148.39,66.44,148.39,148.39,148.39,148.39-66.44,148.39-148.39ZM302.96,628.44c-12.15,12.37-9.16,30.04,1.06,39.6,10.77,10.08,27.62,11.4,39.69.71,18.26-16.17,34.56-33.43,51.44-51.53l93.35-100.12-34.28-38.04-110.19-110.42c-12.06-12.08-30.49-9.04-41.02,1.92-10.4,10.82-10.85,28.23,1.35,40.61l66.57,67.54c-.47,2.07-4.43,4.46-6.54,4.46l-364.21.05-.16,58.13,388.29.26-85.34,86.84ZM936.4,719.56c1.57-19.04,1.46-34.81.3-52.09-1.68-24.95-18.56-46.29-42.32-54.31l-130.85-44.18c-7.58-2.56-18.35-3.59-25.82-1.07-78.36,26.48-119.45-7.07-143.82.88l-143.16,46.7c-19.34,6.31-32.78,20.27-36.36,41.16-4.18,24.37-4.49,50.33.47,74.75,8.55,42.12,44.4,61.07,85.8,60.99l360.06-.73c41.62-.08,72.36-31.64,75.7-72.09Z"/>
      <path class="cls-1" d="M247.14,691.33c69.75,163.28,224.14,279.9,404.42,287.13,120.2,4.82,236.81-36.52,327.71-114.15,75.45-64.43,124.17-151.13,144.87-246.65,44.44-205.09-52.51-411.25-238.03-507.69-241.17-125.37-527.88-15.94-635.63,230.8-5.88,13.47-19.01,21.24-32.23,20.69l-35.11-1.47c14.8-56.42,42.37-107.38,76.87-153.07C360.92,73.28,516.97-2.48,684.57.06c107.35,1.63,210.19,35.29,296.43,99.64,153.65,114.65,235.24,307.35,206.71,497.93-27.74,185.32-157.01,342.58-332.39,407.64-114.89,42.62-241.96,43.14-357.29,1.97-147.45-52.64-272.36-179.01-315.74-330.29l46.59-.15c6.49-.02,15.41,7.83,18.27,14.53Z"/>
      <path class="cls-1" d="M936.4,719.56c-3.34,40.45-34.08,72-75.7,72.09l-360.06.73c-41.4.08-77.25-18.86-85.8-60.99-4.96-24.43-4.65-50.39-.47-74.75,3.58-20.89,17.02-34.85,36.36-41.16l143.16-46.7c24.36-7.95,65.46,25.6,143.82-.88,7.47-2.52,18.23-1.49,25.82,1.07l130.85,44.18c23.76,8.02,40.64,29.36,42.32,54.31,1.17,17.28,1.27,33.06-.3,52.09Z"/>
      <circle class="cls-1" cx="674.66" cy="394.21" r="148.39"/>
      <path class="cls-1" d="M302.96,628.44l85.34-86.84-388.29-.26.16-58.13,364.21-.05c2.11,0,6.07-2.39,6.54-4.46l-66.57-67.54c-12.2-12.38-11.75-29.79-1.35-40.61,10.53-10.96,28.96-14,41.02-1.92l110.19,110.42,34.28,38.04-93.35,100.12c-16.88,18.1-33.17,35.36-51.44,51.53-12.07,10.69-28.92,9.36-39.69-.71-10.22-9.56-13.21-27.23-1.06-39.6Z"/>
    </g>
  </g>
</svg>