<?xml version="1.0" encoding="UTF-8"?>
<svg shape-rendering="crispEdges" id="Layer_2" data-name="Layer 2" xmlns="http://www.w3.org/2000/svg" viewBox="0 0 407.94 20.15">
  <defs>
    <style>
      .cls-1 {
        fill: #e1ad2d;
      }
    </style>
  </defs>
  <g id="Layer_1-2" data-name="Layer 1">
    <g>
      <g>
        <polygon class="cls-1" points="2.96 20.02 2.93 17.22 .12 17.22 .12 14.16 5.99 14.16 5.99 16.97 14.16 16.97 14.16 .12 20.02 .12 20.02 17.22 17.22 17.22 17.22 20.02 2.96 20.02"/>
        <path class="cls-1" d="M19.9.25v16.84h-2.81v2.81H3.09l-.03-2.81H.25v-2.81h5.61v2.81h8.42V.25h5.61M20.15,0h-6.11v16.84h-7.92v-2.81H0v3.31h2.81l.03,2.56v.25h14.51v-2.81h2.81V0h0Z"/>
      </g>
      <g>
        <path class="cls-1" d="M25.39,20.02v-2.81h-2.81V2.93h2.81V.12h14.29v2.81h2.81v14.29h-2.81v2.81h-14.29ZM36.62,16.97V3.18h-8.17v13.79h8.17Z"/>
        <path class="cls-1" d="M39.55.25v2.81h2.81v14.04h-2.81v2.81h-14.04v-2.81h-2.81V3.06h2.81V.25h14.04M28.32,17.09h8.42V3.06h-8.42v14.04M39.8,0h-14.54v2.81h-2.81v14.54h2.81v2.81h14.54v-2.81h2.81V2.81h-2.81V0h0ZM28.57,3.31h7.92v13.54h-7.92V3.31h0Z"/>
      </g>
      <g>
        <polygon class="cls-1" points="45.04 20.02 45.04 16.97 50.65 16.97 50.65 3.18 45.04 3.18 45.04 .12 62.13 .12 62.13 3.18 56.52 3.18 56.52 16.97 62.13 16.97 62.13 20.02 45.04 20.02"/>
        <path class="cls-1" d="M62.01.25v2.81h-5.61v14.04h5.61v2.81h-16.84v-2.81h5.61V3.06h-5.61V.25h16.84M62.26,0h-17.34v3.31h5.61v13.54h-5.61v3.31h17.34v-3.31h-5.61V3.31h5.61V0h0Z"/>
      </g>
      <g>
        <polygon class="cls-1" points="78.72 20.02 78.72 17.22 75.92 17.22 75.92 14.41 73.11 14.41 73.11 11.6 70.55 11.6 70.55 20.02 64.69 20.02 64.69 .12 70.55 .12 70.55 2.93 73.36 2.93 73.36 5.74 76.17 5.74 76.17 8.55 78.72 8.55 78.72 .12 84.59 .12 84.59 20.02 78.72 20.02"/>
        <path class="cls-1" d="M84.46.25v19.65h-5.61v-2.81h-2.81v-2.81h-2.81v-2.81h-2.81v8.42h-5.61V.25h5.61v2.81h2.81v2.81h2.81v2.81h2.81V.25h5.61M84.71,0h-6.11v8.42h-2.31v-2.81h-2.81v-2.81h-2.81V0h-6.11v20.15h6.11v-8.42h2.31v2.81h2.81v2.81h2.81v2.81h6.11V0h0Z"/>
      </g>
      <g>
        <path class="cls-1" d="M109.74,20.02V.12h17.09v2.81h2.81v8.67h-2.81v2.81h-11.23v5.61h-5.86ZM123.78,11.35V3.18h-8.17v8.17h8.17Z"/>
        <path class="cls-1" d="M126.71.25v2.81h2.81v8.42h-2.81v2.81h-11.23v5.61h-5.61V.25h16.84M115.48,11.48h8.42V3.06h-8.42v8.42M126.96,0h-17.34v20.15h6.11v-5.61h11.23v-2.81h2.81V2.81h-2.81V0h0ZM115.73,3.31h7.92v7.92h-7.92V3.31h0Z"/>
      </g>
      <g>
        <path class="cls-1" d="M143.43,20.02v-2.81h-2.81v-2.81h-2.56v5.61h-5.86V.12h17.09v2.81h2.81v8.67h-5.61v2.56h2.81v2.81l2.93-.03v3.09h-8.8ZM143.43,11.35v-2.81h2.81V3.18h-8.17v8.17h5.36Z"/>
        <path class="cls-1" d="M149.17.25v2.81h2.81v8.42h-5.61v2.81h2.81v2.81l2.93-.03v2.84h-8.55v-2.81h-2.81v-2.81h-2.81v5.61h-5.61V.25h16.84M137.94,11.48h5.61v-2.81h2.81V3.06h-8.42v8.42M149.42,0h-17.34v20.15h6.11v-5.61h2.31v2.81h2.81v2.81h9.05v-3.34h-.25s-2.68.03-2.68.03v-2.8h-2.81v-2.31h5.61V2.81h-2.81V0h0ZM138.19,3.31h7.92v5.11h-2.81v2.81h-5.11V3.31h0Z"/>
      </g>
      <g>
        <polygon class="cls-1" points="154.66 20.02 154.66 16.97 160.27 16.97 160.27 3.18 154.66 3.18 154.66 .12 171.75 .12 171.75 3.18 166.13 3.18 166.13 16.97 171.75 16.97 171.75 20.02 154.66 20.02"/>
        <path class="cls-1" d="M171.62.25v2.81h-5.61v14.04h5.61v2.81h-16.84v-2.81h5.61V3.06h-5.61V.25h16.84M171.87,0h-17.34v3.31h5.61v13.54h-5.61v3.31h17.34v-3.31h-5.61V3.31h5.61V0h0Z"/>
      </g>
      <g>
        <polygon class="cls-1" points="182.77 20.02 182.73 17.22 179.92 17.22 179.92 14.41 177.11 14.41 177.11 11.6 174.31 11.56 174.31 .12 180.17 .12 180.17 8.55 182.98 8.55 182.98 11.35 185.53 11.35 185.53 8.55 188.34 8.55 188.34 .12 194.21 .12 194.21 11.6 191.4 11.6 191.4 14.41 188.59 14.41 188.59 17.22 185.78 17.22 185.78 20.02 182.77 20.02"/>
        <path class="cls-1" d="M194.08.25v11.23h-2.81v2.81h-2.81v2.81h-2.81v2.81h-2.77l-.04-2.81h-2.81v-2.81h-2.81v-2.81l-2.81-.04V.25h5.61v8.42h2.81v2.81h2.81v-2.81h2.81V.25h5.61M194.33,0h-6.11v8.42h-2.81v2.81h-2.31v-2.81h-2.81V0h-6.11v11.68h.25s2.56.04,2.56.04v2.81h2.81v2.81h2.81l.04,2.56v.25h3.27v-2.81h2.81v-2.81h2.81v-2.81h2.81V0h0Z"/>
      </g>
      <g>
        <path class="cls-1" d="M210.8,20.02v-5.61h-8.17v5.61h-5.86V5.74h2.81v-2.81h2.81V.12h8.67v2.81h2.81v2.81h2.81v14.29h-5.86ZM210.8,11.35v-5.36h-2.81v-2.81h-2.56v2.81h-2.81v5.36h8.17Z"/>
        <path class="cls-1" d="M210.92.25v2.81h2.81v2.81h2.81v14.04h-5.61v-5.61h-8.42v5.61h-5.61V5.86h2.81v-2.81h2.81V.25h8.42M202.5,11.48h8.42v-5.61h-2.81v-2.81h-2.81v2.81h-2.81v5.61M211.17,0h-8.92v2.81h-2.81v2.81h-2.81v14.54h6.11v-5.61h7.92v5.61h6.11V5.61h-2.81v-2.81h-2.81V0h0ZM205.56,3.31h2.31v2.81h2.81v5.11h-7.92v-5.11h2.81v-2.81h0Z"/>
      </g>
      <g>
        <polygon class="cls-1" points="224.85 20.02 224.83 3.18 219.22 3.18 219.22 .12 236.31 .12 236.31 3.18 230.7 3.18 230.7 20.02 224.85 20.02"/>
        <path class="cls-1" d="M236.19.25v2.81h-5.61v16.84h-5.6V3.06h-5.63V.25h16.84M236.44,0h-17.34v3.31h5.61v16.59s.01.25.01.25h6.1V3.31h5.61V0h0Z"/>
      </g>
      <g>
        <polygon class="cls-1" points="238.87 20.02 238.87 .12 255.96 .12 255.96 3.18 244.73 3.18 244.73 8.55 255.96 8.55 255.96 11.6 244.73 11.6 244.73 16.97 255.96 16.97 255.96 20.02 238.87 20.02"/>
        <path class="cls-1" d="M255.84.25v2.81h-11.23v5.61h11.23v2.81h-11.23v5.61h11.23v2.81h-16.84V.25h16.84M256.09,0h-17.34v20.15h17.34v-3.31h-11.23v-5.11h11.23v-3.31h-11.23V3.31h11.23V0h0Z"/>
      </g>
      <g>
        <polygon class="cls-1" points="283.92 20.02 283.92 17.22 281.12 17.22 281.12 14.12 287.02 14.12 286.98 16.97 295.15 16.97 295.15 11.6 283.92 11.6 283.92 8.8 281.12 8.8 281.12 2.93 283.92 2.93 283.92 .12 295.4 .12 295.4 2.93 298.21 2.93 298.21 5.99 292.34 5.99 292.34 3.18 286.98 3.18 286.98 8.55 298.21 8.55 298.21 11.35 301.02 11.35 301.02 17.22 298.21 17.22 298.21 20.02 283.92 20.02"/>
        <path class="cls-1" d="M295.28.25v2.81h2.81v2.81h-5.61v-2.81h-5.61v5.61h11.23v2.81h2.81v5.61h-2.81v2.81h-14.04v-2.81h-2.81v-2.85h5.66l-.04,2.85h8.42v-5.61h-11.23v-2.81h-2.81V3.06h2.81V.25h11.23M286.9,14.24h0M295.53,0h-11.73v2.81h-2.81v6.11h2.81v2.81h11.23v5.11h-7.92l.04-2.6v-.25s-.25,0-.25,0h-5.91v3.35h2.81v2.81h14.54v-2.81h2.81v-6.11h-2.81v-2.81h-11.23V3.31h5.11v2.81h6.11v-3.31h-2.81V0h0Z"/>
      </g>
      <g>
        <polygon class="cls-1" points="303.57 20.02 303.57 .12 320.67 .12 320.67 3.18 309.44 3.18 309.44 8.55 320.67 8.55 320.67 11.6 309.44 11.6 309.44 16.97 320.67 16.97 320.67 20.02 303.57 20.02"/>
        <path class="cls-1" d="M320.54.25v2.81h-11.23v5.61h11.23v2.81h-11.23v5.61h11.23v2.81h-16.84V.25h16.84M320.79,0h-17.34v20.15h17.34v-3.31h-11.23v-5.11h11.23v-3.31h-11.23V3.31h11.23V0h0Z"/>
      </g>
      <g>
        <path class="cls-1" d="M334.45,20.02v-2.81h-2.81v-2.81h-2.56v5.61h-5.86V.12h17.09v2.81h2.81v8.67h-5.61v2.56h2.81v2.81l2.93-.03v3.09h-8.8ZM334.45,11.35v-2.81h2.81V3.18h-8.17v8.17h5.36Z"/>
        <path class="cls-1" d="M340.19.25v2.81h2.81v8.42h-5.61v2.81h2.81v2.81l2.93-.03v2.84h-8.55v-2.81h-2.81v-2.81h-2.81v5.61h-5.61V.25h16.84M328.96,11.48h5.61v-2.81h2.81V3.06h-8.42v8.42M340.44,0h-17.34v20.15h6.11v-5.61h2.31v2.81h2.81v2.81h9.05v-3.34h-.25s-2.68.03-2.68.03v-2.8h-2.81v-2.31h5.61V2.81h-2.81V0h0ZM329.21,3.31h7.92v5.11h-2.81v2.81h-5.11V3.31h0Z"/>
      </g>
      <g>
        <polygon class="cls-1" points="354.14 20.02 354.1 17.22 351.29 17.22 351.29 14.41 348.49 14.41 348.49 11.6 345.68 11.56 345.68 .12 351.54 .12 351.54 8.55 354.35 8.55 354.35 11.35 356.91 11.35 356.91 8.55 359.71 8.55 359.71 .12 365.58 .12 365.58 11.6 362.77 11.6 362.77 14.41 359.96 14.41 359.96 17.22 357.16 17.22 357.16 20.02 354.14 20.02"/>
        <path class="cls-1" d="M365.45.25v11.23h-2.81v2.81h-2.81v2.81h-2.81v2.81h-2.76l-.04-2.81h-2.81v-2.81h-2.81v-2.81l-2.81-.04V.25h5.61v8.42h2.81v2.81h2.81v-2.81h2.81V.25h5.61M365.7,0h-6.11v8.42h-2.81v2.81h-2.31v-2.81h-2.81V0h-6.11v11.68h.25s2.56.04,2.56.04v2.81h2.81v2.81h2.81l.04,2.56v.25h3.26v-2.81h2.81v-2.81h2.81v-2.81h2.81V0h0Z"/>
      </g>
      <g>
        <polygon class="cls-1" points="368.14 20.02 368.14 .12 385.23 .12 385.23 3.18 374 3.18 374 8.55 385.23 8.55 385.23 11.6 374 11.6 374 16.97 385.23 16.97 385.23 20.02 368.14 20.02"/>
        <path class="cls-1" d="M385.1.25v2.81h-11.23v5.61h11.23v2.81h-11.23v5.61h11.23v2.81h-16.84V.25h16.84M385.35,0h-17.34v20.15h17.34v-3.31h-11.23v-5.11h11.23v-3.31h-11.23V3.31h11.23V0h0Z"/>
      </g>
      <g>
        <path class="cls-1" d="M399.01,20.02v-2.81h-2.81v-2.81h-2.56v5.61h-5.86V.12h17.09v2.81h2.81v8.67h-5.61v2.56h2.81v2.81l2.93-.03v3.09h-8.8ZM399.01,11.35v-2.81h2.81V3.18h-8.17v8.17h5.36Z"/>
        <path class="cls-1" d="M404.75.25v2.81h2.81v8.42h-5.61v2.81h2.81v2.81l2.93-.03v2.84h-8.55v-2.81h-2.81v-2.81h-2.81v5.61h-5.61V.25h16.84M393.52,11.48h5.61v-2.81h2.81V3.06h-8.42v8.42M405,0h-17.34v20.15h6.11v-5.61h2.31v2.81h2.81v2.81h9.05v-3.34h-.25s-2.68.03-2.68.03v-2.8h-2.81v-2.31h5.61V2.81h-2.81V0h0ZM393.77,3.31h7.92v5.11h-2.81v2.81h-5.11V3.31h0Z"/>
      </g>
    </g>
  </g>
</svg>