<?xml version="1.0" encoding="UTF-8"?>
<svg shape-rendering="crispEdges" id="Layer_2" data-name="Layer 2" xmlns="http://www.w3.org/2000/svg" viewBox="0 0 1409.45 85.76">
  <defs>
    <style>
      .cls-1 {
        fill: #3084b1;
      }
    </style>
  </defs>
  <g id="Layer_1-2" data-name="Layer 1">
    <g>
      <path class="cls-1" d="M73.5,24.5h-24.5v-12.25h-24.5v24.5h49v12.25h12.25v24.5h-12.25v12.25H12.25v-12.25H0v-12.43h24.69l-.18,12.43h36.75v-24.5H12.25v-12.25H0V12.25h12.25V0h49v12.25h12.25v12.25Z"/>
      <path class="cls-1" d="M98.01,0h24.5v36.75h36.75V0h24.5v85.76h-24.5v-36.75h-36.75v36.75h-24.5V0Z"/>
      <path class="cls-1" d="M269.52,85.76h-61.25v-12.25h-12.25V12.25h12.25V0h61.25v12.25h12.25v61.25h-12.25v12.25ZM257.27,12.25h-36.75v61.25h36.75V12.25Z"/>
      <path class="cls-1" d="M318.52,61.25v24.5h-24.5V0h73.5v12.25h12.25v36.75h-12.25v12.25h-49ZM318.52,12.25v36.75h36.75V12.25h-36.75Z"/>
      <path class="cls-1" d="M551.9,73.5v-12.25h24.5v12.25h-12.25v12.25h-49v-12.25h-12.25v-12.25h-12.25V24.5h12.25v-12.25h12.25V0h49v12.25h12.25v12.25h-24.5v-12.25h-24.5v12.25h-12.25v36.75h12.25v12.25h24.5Z"/>
      <path class="cls-1" d="M588.65,24.5h12.25v-12.25h12.25V0h36.75v12.25h12.25v12.25h12.25v61.25h-24.5v-24.5h-36.75v24.5h-24.5V24.5ZM625.4,12.25v12.25h-12.25v24.5h36.75v-24.5h-12.25v-12.25h-12.25Z"/>
      <path class="cls-1" d="M711.22,85.76l-.06-73.5h-24.5V0h73.5v12.25h-24.5v73.5h-24.44Z"/>
      <path class="cls-1" d="M845.92,49h-49v24.5h49v12.25h-73.5V0h73.5v12.25h-49v24.5h49v12.25Z"/>
      <path class="cls-1" d="M943.92,85.76h-61.25v-12.25h-12.25v-12.25h-12.25V24.5h12.25v-12.25h12.25V0h61.25v12.25h-49v12.25h-12.25v36.75h12.25v12.25h24.5v-24.5h-12.25v-12.25h36.75v49Z"/>
      <path class="cls-1" d="M1029.68,85.76h-61.25v-12.25h-12.25V12.25h12.25V0h61.25v12.25h12.25v61.25h-12.25v12.25ZM1017.43,12.25h-36.75v61.25h36.75V12.25Z"/>
      <path class="cls-1" d="M1078.68,61.25v24.5h-24.5V0h73.5v12.25h12.25v36.75h-24.5v12.25h12.25v12.25l12.8-.12v12.37h-37.3v-12.25h-12.25v-12.25h-12.25ZM1078.68,12.25v36.75h24.5v-12.25h12.25V12.25h-36.75Z"/>
      <path class="cls-1" d="M1201.19,12.25v61.25h24.5v12.25h-73.5v-12.25h24.5V12.25h-24.5V0h73.5v12.25h-24.5Z"/>
      <path class="cls-1" d="M1311.45,49h-49v24.5h49v12.25h-73.5V0h73.5v12.25h-49v24.5h49v12.25Z"/>
      <path class="cls-1" d="M1397.2,24.5h-24.5v-12.25h-24.5v24.5h49v12.25h12.25v24.5h-12.25v12.25h-61.25v-12.25h-12.25v-12.43h24.69l-.18,12.43h36.75v-24.5h-49v-12.25h-12.25V12.25h12.25V0h49v12.25h12.25v12.25Z"/>
    </g>
  </g>
</svg>