<?xml version="1.0" encoding="UTF-8"?>
<svg shape-rendering="crispEdges" id="Layer_2" data-name="Layer 2" xmlns="http://www.w3.org/2000/svg" viewBox="0 0 1213.36 92.92">
  <defs>
    <style>
      .cls-1 {
        fill: #e1ad2d;
      }
    </style>
  </defs>
  <g id="Layer_1-2" data-name="Layer 1">
    <g>
      <path class="cls-1" d="M0,0h26.55v39.82h39.82V0h26.55v92.92h-26.55v-39.82H26.55v39.82H0V0Z"/>
      <path class="cls-1" d="M183.79,92.92h-66.37v-13.27h-13.27V13.27h13.27V0h66.37v13.27h13.27v66.37h-13.27v13.27ZM170.52,13.27h-39.82v66.37h39.82V13.27Z"/>
      <path class="cls-1" d="M208.3,92.92V0h26.55v53.09h13.27l.2-13.54h13.34v13.34l13.01.2V0h26.55v92.92h-26.55v-13.27h-13.27v-13.27h-13.27v13.27h-13.27v13.27h-26.55Z"/>
      <path class="cls-1" d="M470.36,13.27v66.37h26.55v13.27h-79.64v-13.27h26.55V13.27h-26.55V0h79.64v13.27h-26.55Z"/>
      <path class="cls-1" d="M534.76,92.92l-.07-79.64h-26.55V0h79.64v13.27h-26.55v79.64h-26.48Z"/>
      <path class="cls-1" d="M703.84,92.92V0h26.55v53.09h13.27l.2-13.54h13.34v13.34l13.01.2V0h26.55v92.92h-26.55v-13.27h-13.27v-13.27h-13.27v13.27h-13.27v13.27h-26.55Z"/>
      <path class="cls-1" d="M887.63,92.92h-66.37v-13.27h-13.27V13.27h13.27V0h66.37v13.27h13.27v66.37h-13.27v13.27ZM874.36,13.27h-39.82v66.37h39.82V13.27Z"/>
      <path class="cls-1" d="M938.69,66.37v26.55h-26.55V0h79.64v13.27h13.27v39.82h-26.55v13.27h13.27v13.27l13.87-.13v13.41h-40.42v-13.27h-13.27v-13.27h-13.27ZM938.69,13.27v39.82h26.55v-13.27h13.27V13.27h-39.82Z"/>
      <path class="cls-1" d="M1016.29,0h26.55v39.82h13.27v-13.27h13.27v-13.27h13.27V0h26.55v13.27h-13.27v13.27h-13.27v13.27h-13.27v13.27h13.27v13.27h13.27v13.27h13.27v13.27h-39.82v-13.27h-13.27v-13.27h-13.27v26.55h-26.55V0Z"/>
      <path class="cls-1" d="M1200.08,26.55h-26.55v-13.27h-26.55v26.55h53.09v13.27h13.27v26.55h-13.27v13.27h-66.37v-13.27h-13.27v-13.47h26.75l-.2,13.47h39.82v-26.55h-53.1v-13.27h-13.27V13.27h13.27V0h53.1v13.27h13.27v13.27Z"/>
    </g>
  </g>
</svg>